%TF.GenerationSoftware,KiCad,Pcbnew,7.0.2*%
%TF.CreationDate,2024-06-10T16:57:37+03:00*%
%TF.ProjectId,STM32_NRF24L01_Sleep_mode,53544d33-325f-44e5-9246-32344c30315f,rev?*%
%TF.SameCoordinates,Original*%
%TF.FileFunction,Legend,Top*%
%TF.FilePolarity,Positive*%
%FSLAX46Y46*%
G04 Gerber Fmt 4.6, Leading zero omitted, Abs format (unit mm)*
G04 Created by KiCad (PCBNEW 7.0.2) date 2024-06-10 16:57:37*
%MOMM*%
%LPD*%
G01*
G04 APERTURE LIST*
%ADD10C,0.100000*%
%ADD11C,0.300000*%
%ADD12C,0.150000*%
%ADD13C,0.120000*%
G04 APERTURE END LIST*
D10*
%TO.C,BT4*%
X-150224714Y-36350809D02*
X-150081857Y-36398428D01*
X-150081857Y-36398428D02*
X-150034238Y-36446047D01*
X-150034238Y-36446047D02*
X-149986619Y-36541285D01*
X-149986619Y-36541285D02*
X-149986619Y-36684142D01*
X-149986619Y-36684142D02*
X-150034238Y-36779380D01*
X-150034238Y-36779380D02*
X-150081857Y-36827000D01*
X-150081857Y-36827000D02*
X-150177095Y-36874619D01*
X-150177095Y-36874619D02*
X-150558047Y-36874619D01*
X-150558047Y-36874619D02*
X-150558047Y-35874619D01*
X-150558047Y-35874619D02*
X-150224714Y-35874619D01*
X-150224714Y-35874619D02*
X-150129476Y-35922238D01*
X-150129476Y-35922238D02*
X-150081857Y-35969857D01*
X-150081857Y-35969857D02*
X-150034238Y-36065095D01*
X-150034238Y-36065095D02*
X-150034238Y-36160333D01*
X-150034238Y-36160333D02*
X-150081857Y-36255571D01*
X-150081857Y-36255571D02*
X-150129476Y-36303190D01*
X-150129476Y-36303190D02*
X-150224714Y-36350809D01*
X-150224714Y-36350809D02*
X-150558047Y-36350809D01*
X-149700904Y-35874619D02*
X-149129476Y-35874619D01*
X-149415190Y-36874619D02*
X-149415190Y-35874619D01*
X-148367571Y-36207952D02*
X-148367571Y-36874619D01*
X-148605666Y-35827000D02*
X-148843761Y-36541285D01*
X-148843761Y-36541285D02*
X-148224714Y-36541285D01*
D11*
X-153851714Y-42404000D02*
X-151566000Y-42404000D01*
X-152708857Y-43546857D02*
X-152708857Y-41261142D01*
X-138851714Y-42404000D02*
X-136566000Y-42404000D01*
X-137708857Y-43546857D02*
X-137708857Y-41261142D01*
X-138851714Y-106404000D02*
X-136566000Y-106404000D01*
X-169686714Y-106454000D02*
X-167401000Y-106454000D01*
X-154686714Y-106454000D02*
X-152401000Y-106454000D01*
X-168851714Y-42404000D02*
X-166566000Y-42404000D01*
X-167708857Y-43546857D02*
X-167708857Y-41261142D01*
D10*
%TO.C,SW4*%
X-138633332Y-26790000D02*
X-138490475Y-26837619D01*
X-138490475Y-26837619D02*
X-138252380Y-26837619D01*
X-138252380Y-26837619D02*
X-138157142Y-26790000D01*
X-138157142Y-26790000D02*
X-138109523Y-26742380D01*
X-138109523Y-26742380D02*
X-138061904Y-26647142D01*
X-138061904Y-26647142D02*
X-138061904Y-26551904D01*
X-138061904Y-26551904D02*
X-138109523Y-26456666D01*
X-138109523Y-26456666D02*
X-138157142Y-26409047D01*
X-138157142Y-26409047D02*
X-138252380Y-26361428D01*
X-138252380Y-26361428D02*
X-138442856Y-26313809D01*
X-138442856Y-26313809D02*
X-138538094Y-26266190D01*
X-138538094Y-26266190D02*
X-138585713Y-26218571D01*
X-138585713Y-26218571D02*
X-138633332Y-26123333D01*
X-138633332Y-26123333D02*
X-138633332Y-26028095D01*
X-138633332Y-26028095D02*
X-138585713Y-25932857D01*
X-138585713Y-25932857D02*
X-138538094Y-25885238D01*
X-138538094Y-25885238D02*
X-138442856Y-25837619D01*
X-138442856Y-25837619D02*
X-138204761Y-25837619D01*
X-138204761Y-25837619D02*
X-138061904Y-25885238D01*
X-137728570Y-25837619D02*
X-137490475Y-26837619D01*
X-137490475Y-26837619D02*
X-137299999Y-26123333D01*
X-137299999Y-26123333D02*
X-137109523Y-26837619D01*
X-137109523Y-26837619D02*
X-136871428Y-25837619D01*
X-136061904Y-26170952D02*
X-136061904Y-26837619D01*
X-136299999Y-25790000D02*
X-136538094Y-26504285D01*
X-136538094Y-26504285D02*
X-135919047Y-26504285D01*
D12*
%TO.C,R10*%
X-124930357Y-36492619D02*
X-125263690Y-36016428D01*
X-125501785Y-36492619D02*
X-125501785Y-35492619D01*
X-125501785Y-35492619D02*
X-125120833Y-35492619D01*
X-125120833Y-35492619D02*
X-125025595Y-35540238D01*
X-125025595Y-35540238D02*
X-124977976Y-35587857D01*
X-124977976Y-35587857D02*
X-124930357Y-35683095D01*
X-124930357Y-35683095D02*
X-124930357Y-35825952D01*
X-124930357Y-35825952D02*
X-124977976Y-35921190D01*
X-124977976Y-35921190D02*
X-125025595Y-35968809D01*
X-125025595Y-35968809D02*
X-125120833Y-36016428D01*
X-125120833Y-36016428D02*
X-125501785Y-36016428D01*
X-123977976Y-36492619D02*
X-124549404Y-36492619D01*
X-124263690Y-36492619D02*
X-124263690Y-35492619D01*
X-124263690Y-35492619D02*
X-124358928Y-35635476D01*
X-124358928Y-35635476D02*
X-124454166Y-35730714D01*
X-124454166Y-35730714D02*
X-124549404Y-35778333D01*
X-123358928Y-35492619D02*
X-123263690Y-35492619D01*
X-123263690Y-35492619D02*
X-123168452Y-35540238D01*
X-123168452Y-35540238D02*
X-123120833Y-35587857D01*
X-123120833Y-35587857D02*
X-123073214Y-35683095D01*
X-123073214Y-35683095D02*
X-123025595Y-35873571D01*
X-123025595Y-35873571D02*
X-123025595Y-36111666D01*
X-123025595Y-36111666D02*
X-123073214Y-36302142D01*
X-123073214Y-36302142D02*
X-123120833Y-36397380D01*
X-123120833Y-36397380D02*
X-123168452Y-36445000D01*
X-123168452Y-36445000D02*
X-123263690Y-36492619D01*
X-123263690Y-36492619D02*
X-123358928Y-36492619D01*
X-123358928Y-36492619D02*
X-123454166Y-36445000D01*
X-123454166Y-36445000D02*
X-123501785Y-36397380D01*
X-123501785Y-36397380D02*
X-123549404Y-36302142D01*
X-123549404Y-36302142D02*
X-123597023Y-36111666D01*
X-123597023Y-36111666D02*
X-123597023Y-35873571D01*
X-123597023Y-35873571D02*
X-123549404Y-35683095D01*
X-123549404Y-35683095D02*
X-123501785Y-35587857D01*
X-123501785Y-35587857D02*
X-123454166Y-35540238D01*
X-123454166Y-35540238D02*
X-123358928Y-35492619D01*
%TO.C,R8*%
X-130941666Y-37862619D02*
X-131274999Y-37386428D01*
X-131513094Y-37862619D02*
X-131513094Y-36862619D01*
X-131513094Y-36862619D02*
X-131132142Y-36862619D01*
X-131132142Y-36862619D02*
X-131036904Y-36910238D01*
X-131036904Y-36910238D02*
X-130989285Y-36957857D01*
X-130989285Y-36957857D02*
X-130941666Y-37053095D01*
X-130941666Y-37053095D02*
X-130941666Y-37195952D01*
X-130941666Y-37195952D02*
X-130989285Y-37291190D01*
X-130989285Y-37291190D02*
X-131036904Y-37338809D01*
X-131036904Y-37338809D02*
X-131132142Y-37386428D01*
X-131132142Y-37386428D02*
X-131513094Y-37386428D01*
X-130370237Y-37291190D02*
X-130465475Y-37243571D01*
X-130465475Y-37243571D02*
X-130513094Y-37195952D01*
X-130513094Y-37195952D02*
X-130560713Y-37100714D01*
X-130560713Y-37100714D02*
X-130560713Y-37053095D01*
X-130560713Y-37053095D02*
X-130513094Y-36957857D01*
X-130513094Y-36957857D02*
X-130465475Y-36910238D01*
X-130465475Y-36910238D02*
X-130370237Y-36862619D01*
X-130370237Y-36862619D02*
X-130179761Y-36862619D01*
X-130179761Y-36862619D02*
X-130084523Y-36910238D01*
X-130084523Y-36910238D02*
X-130036904Y-36957857D01*
X-130036904Y-36957857D02*
X-129989285Y-37053095D01*
X-129989285Y-37053095D02*
X-129989285Y-37100714D01*
X-129989285Y-37100714D02*
X-130036904Y-37195952D01*
X-130036904Y-37195952D02*
X-130084523Y-37243571D01*
X-130084523Y-37243571D02*
X-130179761Y-37291190D01*
X-130179761Y-37291190D02*
X-130370237Y-37291190D01*
X-130370237Y-37291190D02*
X-130465475Y-37338809D01*
X-130465475Y-37338809D02*
X-130513094Y-37386428D01*
X-130513094Y-37386428D02*
X-130560713Y-37481666D01*
X-130560713Y-37481666D02*
X-130560713Y-37672142D01*
X-130560713Y-37672142D02*
X-130513094Y-37767380D01*
X-130513094Y-37767380D02*
X-130465475Y-37815000D01*
X-130465475Y-37815000D02*
X-130370237Y-37862619D01*
X-130370237Y-37862619D02*
X-130179761Y-37862619D01*
X-130179761Y-37862619D02*
X-130084523Y-37815000D01*
X-130084523Y-37815000D02*
X-130036904Y-37767380D01*
X-130036904Y-37767380D02*
X-129989285Y-37672142D01*
X-129989285Y-37672142D02*
X-129989285Y-37481666D01*
X-129989285Y-37481666D02*
X-130036904Y-37386428D01*
X-130036904Y-37386428D02*
X-130084523Y-37338809D01*
X-130084523Y-37338809D02*
X-130179761Y-37291190D01*
%TO.C,R3*%
X-127966666Y-36462619D02*
X-128299999Y-35986428D01*
X-128538094Y-36462619D02*
X-128538094Y-35462619D01*
X-128538094Y-35462619D02*
X-128157142Y-35462619D01*
X-128157142Y-35462619D02*
X-128061904Y-35510238D01*
X-128061904Y-35510238D02*
X-128014285Y-35557857D01*
X-128014285Y-35557857D02*
X-127966666Y-35653095D01*
X-127966666Y-35653095D02*
X-127966666Y-35795952D01*
X-127966666Y-35795952D02*
X-128014285Y-35891190D01*
X-128014285Y-35891190D02*
X-128061904Y-35938809D01*
X-128061904Y-35938809D02*
X-128157142Y-35986428D01*
X-128157142Y-35986428D02*
X-128538094Y-35986428D01*
X-127633332Y-35462619D02*
X-127014285Y-35462619D01*
X-127014285Y-35462619D02*
X-127347618Y-35843571D01*
X-127347618Y-35843571D02*
X-127204761Y-35843571D01*
X-127204761Y-35843571D02*
X-127109523Y-35891190D01*
X-127109523Y-35891190D02*
X-127061904Y-35938809D01*
X-127061904Y-35938809D02*
X-127014285Y-36034047D01*
X-127014285Y-36034047D02*
X-127014285Y-36272142D01*
X-127014285Y-36272142D02*
X-127061904Y-36367380D01*
X-127061904Y-36367380D02*
X-127109523Y-36415000D01*
X-127109523Y-36415000D02*
X-127204761Y-36462619D01*
X-127204761Y-36462619D02*
X-127490475Y-36462619D01*
X-127490475Y-36462619D02*
X-127585713Y-36415000D01*
X-127585713Y-36415000D02*
X-127633332Y-36367380D01*
%TO.C,C17*%
X-129992857Y-39492380D02*
X-130040476Y-39540000D01*
X-130040476Y-39540000D02*
X-130183333Y-39587619D01*
X-130183333Y-39587619D02*
X-130278571Y-39587619D01*
X-130278571Y-39587619D02*
X-130421428Y-39540000D01*
X-130421428Y-39540000D02*
X-130516666Y-39444761D01*
X-130516666Y-39444761D02*
X-130564285Y-39349523D01*
X-130564285Y-39349523D02*
X-130611904Y-39159047D01*
X-130611904Y-39159047D02*
X-130611904Y-39016190D01*
X-130611904Y-39016190D02*
X-130564285Y-38825714D01*
X-130564285Y-38825714D02*
X-130516666Y-38730476D01*
X-130516666Y-38730476D02*
X-130421428Y-38635238D01*
X-130421428Y-38635238D02*
X-130278571Y-38587619D01*
X-130278571Y-38587619D02*
X-130183333Y-38587619D01*
X-130183333Y-38587619D02*
X-130040476Y-38635238D01*
X-130040476Y-38635238D02*
X-129992857Y-38682857D01*
X-129040476Y-39587619D02*
X-129611904Y-39587619D01*
X-129326190Y-39587619D02*
X-129326190Y-38587619D01*
X-129326190Y-38587619D02*
X-129421428Y-38730476D01*
X-129421428Y-38730476D02*
X-129516666Y-38825714D01*
X-129516666Y-38825714D02*
X-129611904Y-38873333D01*
X-128707142Y-38587619D02*
X-128040476Y-38587619D01*
X-128040476Y-38587619D02*
X-128469047Y-39587619D01*
%TO.C,SW3*%
X-123910000Y-41433332D02*
X-123862380Y-41290475D01*
X-123862380Y-41290475D02*
X-123862380Y-41052380D01*
X-123862380Y-41052380D02*
X-123910000Y-40957142D01*
X-123910000Y-40957142D02*
X-123957619Y-40909523D01*
X-123957619Y-40909523D02*
X-124052857Y-40861904D01*
X-124052857Y-40861904D02*
X-124148095Y-40861904D01*
X-124148095Y-40861904D02*
X-124243333Y-40909523D01*
X-124243333Y-40909523D02*
X-124290952Y-40957142D01*
X-124290952Y-40957142D02*
X-124338571Y-41052380D01*
X-124338571Y-41052380D02*
X-124386190Y-41242856D01*
X-124386190Y-41242856D02*
X-124433809Y-41338094D01*
X-124433809Y-41338094D02*
X-124481428Y-41385713D01*
X-124481428Y-41385713D02*
X-124576666Y-41433332D01*
X-124576666Y-41433332D02*
X-124671904Y-41433332D01*
X-124671904Y-41433332D02*
X-124767142Y-41385713D01*
X-124767142Y-41385713D02*
X-124814761Y-41338094D01*
X-124814761Y-41338094D02*
X-124862380Y-41242856D01*
X-124862380Y-41242856D02*
X-124862380Y-41004761D01*
X-124862380Y-41004761D02*
X-124814761Y-40861904D01*
X-124862380Y-40528570D02*
X-123862380Y-40290475D01*
X-123862380Y-40290475D02*
X-124576666Y-40099999D01*
X-124576666Y-40099999D02*
X-123862380Y-39909523D01*
X-123862380Y-39909523D02*
X-124862380Y-39671428D01*
X-124862380Y-39385713D02*
X-124862380Y-38766666D01*
X-124862380Y-38766666D02*
X-124481428Y-39099999D01*
X-124481428Y-39099999D02*
X-124481428Y-38957142D01*
X-124481428Y-38957142D02*
X-124433809Y-38861904D01*
X-124433809Y-38861904D02*
X-124386190Y-38814285D01*
X-124386190Y-38814285D02*
X-124290952Y-38766666D01*
X-124290952Y-38766666D02*
X-124052857Y-38766666D01*
X-124052857Y-38766666D02*
X-123957619Y-38814285D01*
X-123957619Y-38814285D02*
X-123910000Y-38861904D01*
X-123910000Y-38861904D02*
X-123862380Y-38957142D01*
X-123862380Y-38957142D02*
X-123862380Y-39242856D01*
X-123862380Y-39242856D02*
X-123910000Y-39338094D01*
X-123910000Y-39338094D02*
X-123957619Y-39385713D01*
%TO.C,D1*%
X-128338094Y-31112619D02*
X-128338094Y-30112619D01*
X-128338094Y-30112619D02*
X-128099999Y-30112619D01*
X-128099999Y-30112619D02*
X-127957142Y-30160238D01*
X-127957142Y-30160238D02*
X-127861904Y-30255476D01*
X-127861904Y-30255476D02*
X-127814285Y-30350714D01*
X-127814285Y-30350714D02*
X-127766666Y-30541190D01*
X-127766666Y-30541190D02*
X-127766666Y-30684047D01*
X-127766666Y-30684047D02*
X-127814285Y-30874523D01*
X-127814285Y-30874523D02*
X-127861904Y-30969761D01*
X-127861904Y-30969761D02*
X-127957142Y-31065000D01*
X-127957142Y-31065000D02*
X-128099999Y-31112619D01*
X-128099999Y-31112619D02*
X-128338094Y-31112619D01*
X-126814285Y-31112619D02*
X-127385713Y-31112619D01*
X-127099999Y-31112619D02*
X-127099999Y-30112619D01*
X-127099999Y-30112619D02*
X-127195237Y-30255476D01*
X-127195237Y-30255476D02*
X-127290475Y-30350714D01*
X-127290475Y-30350714D02*
X-127385713Y-30398333D01*
%TO.C,D3*%
X-125088094Y-31087619D02*
X-125088094Y-30087619D01*
X-125088094Y-30087619D02*
X-124849999Y-30087619D01*
X-124849999Y-30087619D02*
X-124707142Y-30135238D01*
X-124707142Y-30135238D02*
X-124611904Y-30230476D01*
X-124611904Y-30230476D02*
X-124564285Y-30325714D01*
X-124564285Y-30325714D02*
X-124516666Y-30516190D01*
X-124516666Y-30516190D02*
X-124516666Y-30659047D01*
X-124516666Y-30659047D02*
X-124564285Y-30849523D01*
X-124564285Y-30849523D02*
X-124611904Y-30944761D01*
X-124611904Y-30944761D02*
X-124707142Y-31040000D01*
X-124707142Y-31040000D02*
X-124849999Y-31087619D01*
X-124849999Y-31087619D02*
X-125088094Y-31087619D01*
X-124183332Y-30087619D02*
X-123564285Y-30087619D01*
X-123564285Y-30087619D02*
X-123897618Y-30468571D01*
X-123897618Y-30468571D02*
X-123754761Y-30468571D01*
X-123754761Y-30468571D02*
X-123659523Y-30516190D01*
X-123659523Y-30516190D02*
X-123611904Y-30563809D01*
X-123611904Y-30563809D02*
X-123564285Y-30659047D01*
X-123564285Y-30659047D02*
X-123564285Y-30897142D01*
X-123564285Y-30897142D02*
X-123611904Y-30992380D01*
X-123611904Y-30992380D02*
X-123659523Y-31040000D01*
X-123659523Y-31040000D02*
X-123754761Y-31087619D01*
X-123754761Y-31087619D02*
X-124040475Y-31087619D01*
X-124040475Y-31087619D02*
X-124135713Y-31040000D01*
X-124135713Y-31040000D02*
X-124183332Y-30992380D01*
D10*
%TO.C,BT4*%
X-124566000Y-103914000D02*
X-124566000Y-43914000D01*
X-124566000Y-43914000D02*
X-169566000Y-43914000D01*
X-128066000Y-107914000D02*
X-165566000Y-107914000D01*
X-128066000Y-103914000D02*
X-128066000Y-107914000D01*
X-128566000Y-39914000D02*
X-128566000Y-43914000D01*
X-139566000Y-43914000D02*
X-132066000Y-43914000D01*
X-139566000Y-43914000D02*
X-139566000Y-103914000D01*
X-154566000Y-43914000D02*
X-139566000Y-43914000D01*
X-154566000Y-43914000D02*
X-154566000Y-103914000D01*
X-162066000Y-43914000D02*
X-162066000Y-40914000D01*
X-162066000Y-39914000D02*
X-128566000Y-39914000D01*
X-162066000Y-39914000D02*
X-165566000Y-39914000D01*
X-165566000Y-107914000D02*
X-165566000Y-103914000D01*
X-165566000Y-39914000D02*
X-165566000Y-43914000D01*
X-169566000Y-103914000D02*
X-124566000Y-103914000D01*
X-169566000Y-43914000D02*
X-154566000Y-43914000D01*
X-169566000Y-43914000D02*
X-162066000Y-43914000D01*
X-169566000Y-43914000D02*
X-169566000Y-103914000D01*
%TO.C,SW4*%
X-133217000Y-38978500D02*
X-133217000Y-38089500D01*
X-133344000Y-27421500D02*
X-133344000Y-28437500D01*
X-141980000Y-38978500D02*
X-133217000Y-38978500D01*
X-141980000Y-38978500D02*
X-141980000Y-37962500D01*
X-141980000Y-28437500D02*
X-141091000Y-27421500D01*
X-141980000Y-28437500D02*
X-141980000Y-27421500D01*
X-141980000Y-27421500D02*
X-133344000Y-27421500D01*
D13*
%TO.C,R10*%
X-124032776Y-35122500D02*
X-124542224Y-35122500D01*
X-124032776Y-34077500D02*
X-124542224Y-34077500D01*
%TO.C,R8*%
X-128317224Y-36777500D02*
X-127807776Y-36777500D01*
X-128317224Y-37822500D02*
X-127807776Y-37822500D01*
%TO.C,R3*%
X-128054724Y-34077500D02*
X-127545276Y-34077500D01*
X-128054724Y-35122500D02*
X-127545276Y-35122500D01*
%TO.C,C17*%
X-126615000Y-39841233D02*
X-126615000Y-40133767D01*
X-127635000Y-39841233D02*
X-127635000Y-40133767D01*
%TO.C,SW3*%
X-123005000Y-38180000D02*
X-123005000Y-42320000D01*
X-123305000Y-38180000D02*
X-123005000Y-38180000D01*
X-126145000Y-38180000D02*
X-125845000Y-38180000D01*
X-123005000Y-42320000D02*
X-123305000Y-42320000D01*
X-125845000Y-42320000D02*
X-126145000Y-42320000D01*
X-126145000Y-42320000D02*
X-126145000Y-38180000D01*
D10*
%TO.C,D1*%
X-127600000Y-33692500D02*
G75*
G03*
X-127600000Y-33692500I-50000J0D01*
G01*
%TO.C,D3*%
X-124250000Y-33667500D02*
G75*
G03*
X-124250000Y-33667500I-50000J0D01*
G01*
%TD*%
M02*
