%TF.GenerationSoftware,KiCad,Pcbnew,7.0.2*%
%TF.CreationDate,2024-06-10T16:57:37+03:00*%
%TF.ProjectId,STM32_NRF24L01_Sleep_mode,53544d33-325f-44e5-9246-32344c30315f,rev?*%
%TF.SameCoordinates,Original*%
%TF.FileFunction,Legend,Bot*%
%TF.FilePolarity,Positive*%
%FSLAX46Y46*%
G04 Gerber Fmt 4.6, Leading zero omitted, Abs format (unit mm)*
G04 Created by KiCad (PCBNEW 7.0.2) date 2024-06-10 16:57:37*
%MOMM*%
%LPD*%
G01*
G04 APERTURE LIST*
%ADD10C,0.150000*%
%ADD11C,0.200000*%
%ADD12C,0.100000*%
%ADD13C,0.120000*%
G04 APERTURE END LIST*
D10*
X-135550000Y-38037500D02*
X-135550000Y-44775000D01*
X-130275000Y-38012500D02*
X-130275000Y-44762500D01*
X-132825000Y-38012500D02*
X-132825000Y-44750000D01*
D11*
X-131002809Y-41334523D02*
X-130940904Y-41458333D01*
X-130940904Y-41458333D02*
X-130940904Y-41644047D01*
X-130940904Y-41644047D02*
X-131002809Y-41829761D01*
X-131002809Y-41829761D02*
X-131126619Y-41953571D01*
X-131126619Y-41953571D02*
X-131250428Y-42015476D01*
X-131250428Y-42015476D02*
X-131498047Y-42077380D01*
X-131498047Y-42077380D02*
X-131683761Y-42077380D01*
X-131683761Y-42077380D02*
X-131931380Y-42015476D01*
X-131931380Y-42015476D02*
X-132055190Y-41953571D01*
X-132055190Y-41953571D02*
X-132179000Y-41829761D01*
X-132179000Y-41829761D02*
X-132240904Y-41644047D01*
X-132240904Y-41644047D02*
X-132240904Y-41520238D01*
X-132240904Y-41520238D02*
X-132179000Y-41334523D01*
X-132179000Y-41334523D02*
X-132117095Y-41272619D01*
X-132117095Y-41272619D02*
X-131683761Y-41272619D01*
X-131683761Y-41272619D02*
X-131683761Y-41520238D01*
X-132240904Y-40715476D02*
X-130940904Y-40715476D01*
X-130940904Y-40715476D02*
X-132240904Y-39972619D01*
X-132240904Y-39972619D02*
X-130940904Y-39972619D01*
X-132240904Y-39353571D02*
X-130940904Y-39353571D01*
X-130940904Y-39353571D02*
X-130940904Y-39044047D01*
X-130940904Y-39044047D02*
X-131002809Y-38858333D01*
X-131002809Y-38858333D02*
X-131126619Y-38734523D01*
X-131126619Y-38734523D02*
X-131250428Y-38672618D01*
X-131250428Y-38672618D02*
X-131498047Y-38610714D01*
X-131498047Y-38610714D02*
X-131683761Y-38610714D01*
X-131683761Y-38610714D02*
X-131931380Y-38672618D01*
X-131931380Y-38672618D02*
X-132055190Y-38734523D01*
X-132055190Y-38734523D02*
X-132179000Y-38858333D01*
X-132179000Y-38858333D02*
X-132240904Y-39044047D01*
X-132240904Y-39044047D02*
X-132240904Y-39353571D01*
D10*
X-138075000Y-38012500D02*
X-138070000Y-44762500D01*
X-127825000Y-37987500D02*
X-127805000Y-44827500D01*
D11*
X-137354000Y-42102380D02*
X-137415904Y-41916666D01*
X-137415904Y-41916666D02*
X-137415904Y-41607142D01*
X-137415904Y-41607142D02*
X-137354000Y-41483333D01*
X-137354000Y-41483333D02*
X-137292095Y-41421428D01*
X-137292095Y-41421428D02*
X-137168285Y-41359523D01*
X-137168285Y-41359523D02*
X-137044476Y-41359523D01*
X-137044476Y-41359523D02*
X-136920666Y-41421428D01*
X-136920666Y-41421428D02*
X-136858761Y-41483333D01*
X-136858761Y-41483333D02*
X-136796857Y-41607142D01*
X-136796857Y-41607142D02*
X-136734952Y-41854761D01*
X-136734952Y-41854761D02*
X-136673047Y-41978571D01*
X-136673047Y-41978571D02*
X-136611142Y-42040476D01*
X-136611142Y-42040476D02*
X-136487333Y-42102380D01*
X-136487333Y-42102380D02*
X-136363523Y-42102380D01*
X-136363523Y-42102380D02*
X-136239714Y-42040476D01*
X-136239714Y-42040476D02*
X-136177809Y-41978571D01*
X-136177809Y-41978571D02*
X-136115904Y-41854761D01*
X-136115904Y-41854761D02*
X-136115904Y-41545238D01*
X-136115904Y-41545238D02*
X-136177809Y-41359523D01*
X-137415904Y-40802381D02*
X-136115904Y-40802381D01*
X-136115904Y-40802381D02*
X-136115904Y-40492857D01*
X-136115904Y-40492857D02*
X-136177809Y-40307143D01*
X-136177809Y-40307143D02*
X-136301619Y-40183333D01*
X-136301619Y-40183333D02*
X-136425428Y-40121428D01*
X-136425428Y-40121428D02*
X-136673047Y-40059524D01*
X-136673047Y-40059524D02*
X-136858761Y-40059524D01*
X-136858761Y-40059524D02*
X-137106380Y-40121428D01*
X-137106380Y-40121428D02*
X-137230190Y-40183333D01*
X-137230190Y-40183333D02*
X-137354000Y-40307143D01*
X-137354000Y-40307143D02*
X-137415904Y-40492857D01*
X-137415904Y-40492857D02*
X-137415904Y-40802381D01*
X-137044476Y-39564285D02*
X-137044476Y-38945238D01*
X-137415904Y-39688095D02*
X-136115904Y-39254762D01*
X-136115904Y-39254762D02*
X-137415904Y-38821428D01*
X-134704000Y-41927380D02*
X-134765904Y-41741666D01*
X-134765904Y-41741666D02*
X-134765904Y-41432142D01*
X-134765904Y-41432142D02*
X-134704000Y-41308333D01*
X-134704000Y-41308333D02*
X-134642095Y-41246428D01*
X-134642095Y-41246428D02*
X-134518285Y-41184523D01*
X-134518285Y-41184523D02*
X-134394476Y-41184523D01*
X-134394476Y-41184523D02*
X-134270666Y-41246428D01*
X-134270666Y-41246428D02*
X-134208761Y-41308333D01*
X-134208761Y-41308333D02*
X-134146857Y-41432142D01*
X-134146857Y-41432142D02*
X-134084952Y-41679761D01*
X-134084952Y-41679761D02*
X-134023047Y-41803571D01*
X-134023047Y-41803571D02*
X-133961142Y-41865476D01*
X-133961142Y-41865476D02*
X-133837333Y-41927380D01*
X-133837333Y-41927380D02*
X-133713523Y-41927380D01*
X-133713523Y-41927380D02*
X-133589714Y-41865476D01*
X-133589714Y-41865476D02*
X-133527809Y-41803571D01*
X-133527809Y-41803571D02*
X-133465904Y-41679761D01*
X-133465904Y-41679761D02*
X-133465904Y-41370238D01*
X-133465904Y-41370238D02*
X-133527809Y-41184523D01*
X-134642095Y-39884524D02*
X-134704000Y-39946428D01*
X-134704000Y-39946428D02*
X-134765904Y-40132143D01*
X-134765904Y-40132143D02*
X-134765904Y-40255952D01*
X-134765904Y-40255952D02*
X-134704000Y-40441666D01*
X-134704000Y-40441666D02*
X-134580190Y-40565476D01*
X-134580190Y-40565476D02*
X-134456380Y-40627381D01*
X-134456380Y-40627381D02*
X-134208761Y-40689285D01*
X-134208761Y-40689285D02*
X-134023047Y-40689285D01*
X-134023047Y-40689285D02*
X-133775428Y-40627381D01*
X-133775428Y-40627381D02*
X-133651619Y-40565476D01*
X-133651619Y-40565476D02*
X-133527809Y-40441666D01*
X-133527809Y-40441666D02*
X-133465904Y-40255952D01*
X-133465904Y-40255952D02*
X-133465904Y-40132143D01*
X-133465904Y-40132143D02*
X-133527809Y-39946428D01*
X-133527809Y-39946428D02*
X-133589714Y-39884524D01*
X-134765904Y-38708333D02*
X-134765904Y-39327381D01*
X-134765904Y-39327381D02*
X-133465904Y-39327381D01*
X-128390904Y-42489285D02*
X-128390904Y-41684523D01*
X-128390904Y-41684523D02*
X-128886142Y-42117857D01*
X-128886142Y-42117857D02*
X-128886142Y-41932142D01*
X-128886142Y-41932142D02*
X-128948047Y-41808333D01*
X-128948047Y-41808333D02*
X-129009952Y-41746428D01*
X-129009952Y-41746428D02*
X-129133761Y-41684523D01*
X-129133761Y-41684523D02*
X-129443285Y-41684523D01*
X-129443285Y-41684523D02*
X-129567095Y-41746428D01*
X-129567095Y-41746428D02*
X-129629000Y-41808333D01*
X-129629000Y-41808333D02*
X-129690904Y-41932142D01*
X-129690904Y-41932142D02*
X-129690904Y-42303571D01*
X-129690904Y-42303571D02*
X-129629000Y-42427380D01*
X-129629000Y-42427380D02*
X-129567095Y-42489285D01*
X-129567095Y-41127381D02*
X-129629000Y-41065476D01*
X-129629000Y-41065476D02*
X-129690904Y-41127381D01*
X-129690904Y-41127381D02*
X-129629000Y-41189285D01*
X-129629000Y-41189285D02*
X-129567095Y-41127381D01*
X-129567095Y-41127381D02*
X-129690904Y-41127381D01*
X-128390904Y-40632142D02*
X-128390904Y-39827380D01*
X-128390904Y-39827380D02*
X-128886142Y-40260714D01*
X-128886142Y-40260714D02*
X-128886142Y-40074999D01*
X-128886142Y-40074999D02*
X-128948047Y-39951190D01*
X-128948047Y-39951190D02*
X-129009952Y-39889285D01*
X-129009952Y-39889285D02*
X-129133761Y-39827380D01*
X-129133761Y-39827380D02*
X-129443285Y-39827380D01*
X-129443285Y-39827380D02*
X-129567095Y-39889285D01*
X-129567095Y-39889285D02*
X-129629000Y-39951190D01*
X-129629000Y-39951190D02*
X-129690904Y-40074999D01*
X-129690904Y-40074999D02*
X-129690904Y-40446428D01*
X-129690904Y-40446428D02*
X-129629000Y-40570237D01*
X-129629000Y-40570237D02*
X-129567095Y-40632142D01*
X-128390904Y-39455952D02*
X-129690904Y-39022619D01*
X-129690904Y-39022619D02*
X-128390904Y-38589285D01*
D10*
X-138075000Y-38012500D02*
X-127825000Y-37987500D01*
X-150122380Y-81488095D02*
X-151122380Y-81488095D01*
X-151122380Y-81488095D02*
X-151122380Y-81726190D01*
X-151122380Y-81726190D02*
X-151074761Y-81869047D01*
X-151074761Y-81869047D02*
X-150979523Y-81964285D01*
X-150979523Y-81964285D02*
X-150884285Y-82011904D01*
X-150884285Y-82011904D02*
X-150693809Y-82059523D01*
X-150693809Y-82059523D02*
X-150550952Y-82059523D01*
X-150550952Y-82059523D02*
X-150360476Y-82011904D01*
X-150360476Y-82011904D02*
X-150265238Y-81964285D01*
X-150265238Y-81964285D02*
X-150170000Y-81869047D01*
X-150170000Y-81869047D02*
X-150122380Y-81726190D01*
X-150122380Y-81726190D02*
X-150122380Y-81488095D01*
X-150646190Y-82488095D02*
X-150646190Y-82821428D01*
X-150122380Y-82964285D02*
X-150122380Y-82488095D01*
X-150122380Y-82488095D02*
X-151122380Y-82488095D01*
X-151122380Y-82488095D02*
X-151122380Y-82964285D01*
X-150646190Y-83726190D02*
X-150598571Y-83869047D01*
X-150598571Y-83869047D02*
X-150550952Y-83916666D01*
X-150550952Y-83916666D02*
X-150455714Y-83964285D01*
X-150455714Y-83964285D02*
X-150312857Y-83964285D01*
X-150312857Y-83964285D02*
X-150217619Y-83916666D01*
X-150217619Y-83916666D02*
X-150170000Y-83869047D01*
X-150170000Y-83869047D02*
X-150122380Y-83773809D01*
X-150122380Y-83773809D02*
X-150122380Y-83392857D01*
X-150122380Y-83392857D02*
X-151122380Y-83392857D01*
X-151122380Y-83392857D02*
X-151122380Y-83726190D01*
X-151122380Y-83726190D02*
X-151074761Y-83821428D01*
X-151074761Y-83821428D02*
X-151027142Y-83869047D01*
X-151027142Y-83869047D02*
X-150931904Y-83916666D01*
X-150931904Y-83916666D02*
X-150836666Y-83916666D01*
X-150836666Y-83916666D02*
X-150741428Y-83869047D01*
X-150741428Y-83869047D02*
X-150693809Y-83821428D01*
X-150693809Y-83821428D02*
X-150646190Y-83726190D01*
X-150646190Y-83726190D02*
X-150646190Y-83392857D01*
X-151122380Y-84392857D02*
X-150312857Y-84392857D01*
X-150312857Y-84392857D02*
X-150217619Y-84440476D01*
X-150217619Y-84440476D02*
X-150170000Y-84488095D01*
X-150170000Y-84488095D02*
X-150122380Y-84583333D01*
X-150122380Y-84583333D02*
X-150122380Y-84773809D01*
X-150122380Y-84773809D02*
X-150170000Y-84869047D01*
X-150170000Y-84869047D02*
X-150217619Y-84916666D01*
X-150217619Y-84916666D02*
X-150312857Y-84964285D01*
X-150312857Y-84964285D02*
X-151122380Y-84964285D01*
X-151074761Y-85964285D02*
X-151122380Y-85869047D01*
X-151122380Y-85869047D02*
X-151122380Y-85726190D01*
X-151122380Y-85726190D02*
X-151074761Y-85583333D01*
X-151074761Y-85583333D02*
X-150979523Y-85488095D01*
X-150979523Y-85488095D02*
X-150884285Y-85440476D01*
X-150884285Y-85440476D02*
X-150693809Y-85392857D01*
X-150693809Y-85392857D02*
X-150550952Y-85392857D01*
X-150550952Y-85392857D02*
X-150360476Y-85440476D01*
X-150360476Y-85440476D02*
X-150265238Y-85488095D01*
X-150265238Y-85488095D02*
X-150170000Y-85583333D01*
X-150170000Y-85583333D02*
X-150122380Y-85726190D01*
X-150122380Y-85726190D02*
X-150122380Y-85821428D01*
X-150122380Y-85821428D02*
X-150170000Y-85964285D01*
X-150170000Y-85964285D02*
X-150217619Y-86011904D01*
X-150217619Y-86011904D02*
X-150550952Y-86011904D01*
X-150550952Y-86011904D02*
X-150550952Y-85821428D01*
X-167788095Y-61296666D02*
X-168550000Y-61296666D01*
X-168169047Y-61677619D02*
X-168169047Y-60915714D01*
X-167738095Y-64521666D02*
X-168500000Y-64521666D01*
X-167267857Y-62452619D02*
X-167886904Y-62452619D01*
X-167886904Y-62452619D02*
X-167553571Y-62833571D01*
X-167553571Y-62833571D02*
X-167696428Y-62833571D01*
X-167696428Y-62833571D02*
X-167791666Y-62881190D01*
X-167791666Y-62881190D02*
X-167839285Y-62928809D01*
X-167839285Y-62928809D02*
X-167886904Y-63024047D01*
X-167886904Y-63024047D02*
X-167886904Y-63262142D01*
X-167886904Y-63262142D02*
X-167839285Y-63357380D01*
X-167839285Y-63357380D02*
X-167791666Y-63405000D01*
X-167791666Y-63405000D02*
X-167696428Y-63452619D01*
X-167696428Y-63452619D02*
X-167410714Y-63452619D01*
X-167410714Y-63452619D02*
X-167315476Y-63405000D01*
X-167315476Y-63405000D02*
X-167267857Y-63357380D01*
X-168315476Y-63357380D02*
X-168363095Y-63405000D01*
X-168363095Y-63405000D02*
X-168315476Y-63452619D01*
X-168315476Y-63452619D02*
X-168267857Y-63405000D01*
X-168267857Y-63405000D02*
X-168315476Y-63357380D01*
X-168315476Y-63357380D02*
X-168315476Y-63452619D01*
X-168696428Y-62452619D02*
X-169315475Y-62452619D01*
X-169315475Y-62452619D02*
X-168982142Y-62833571D01*
X-168982142Y-62833571D02*
X-169124999Y-62833571D01*
X-169124999Y-62833571D02*
X-169220237Y-62881190D01*
X-169220237Y-62881190D02*
X-169267856Y-62928809D01*
X-169267856Y-62928809D02*
X-169315475Y-63024047D01*
X-169315475Y-63024047D02*
X-169315475Y-63262142D01*
X-169315475Y-63262142D02*
X-169267856Y-63357380D01*
X-169267856Y-63357380D02*
X-169220237Y-63405000D01*
X-169220237Y-63405000D02*
X-169124999Y-63452619D01*
X-169124999Y-63452619D02*
X-168839285Y-63452619D01*
X-168839285Y-63452619D02*
X-168744047Y-63405000D01*
X-168744047Y-63405000D02*
X-168696428Y-63357380D01*
X-169601190Y-62452619D02*
X-169934523Y-63452619D01*
X-169934523Y-63452619D02*
X-170267856Y-62452619D01*
X-166778571Y-55802619D02*
X-166969047Y-55802619D01*
X-166969047Y-55802619D02*
X-167064285Y-55850238D01*
X-167064285Y-55850238D02*
X-167159523Y-55945476D01*
X-167159523Y-55945476D02*
X-167207142Y-56135952D01*
X-167207142Y-56135952D02*
X-167207142Y-56469285D01*
X-167207142Y-56469285D02*
X-167159523Y-56659761D01*
X-167159523Y-56659761D02*
X-167064285Y-56755000D01*
X-167064285Y-56755000D02*
X-166969047Y-56802619D01*
X-166969047Y-56802619D02*
X-166778571Y-56802619D01*
X-166778571Y-56802619D02*
X-166683333Y-56755000D01*
X-166683333Y-56755000D02*
X-166588095Y-56659761D01*
X-166588095Y-56659761D02*
X-166540476Y-56469285D01*
X-166540476Y-56469285D02*
X-166540476Y-56135952D01*
X-166540476Y-56135952D02*
X-166588095Y-55945476D01*
X-166588095Y-55945476D02*
X-166683333Y-55850238D01*
X-166683333Y-55850238D02*
X-166778571Y-55802619D01*
X-167635714Y-56802619D02*
X-167635714Y-55802619D01*
X-167635714Y-55802619D02*
X-168207142Y-56802619D01*
X-168207142Y-56802619D02*
X-168207142Y-55802619D01*
X-169397618Y-55755000D02*
X-168540476Y-57040714D01*
X-169921428Y-55802619D02*
X-170111904Y-55802619D01*
X-170111904Y-55802619D02*
X-170207142Y-55850238D01*
X-170207142Y-55850238D02*
X-170302380Y-55945476D01*
X-170302380Y-55945476D02*
X-170349999Y-56135952D01*
X-170349999Y-56135952D02*
X-170349999Y-56469285D01*
X-170349999Y-56469285D02*
X-170302380Y-56659761D01*
X-170302380Y-56659761D02*
X-170207142Y-56755000D01*
X-170207142Y-56755000D02*
X-170111904Y-56802619D01*
X-170111904Y-56802619D02*
X-169921428Y-56802619D01*
X-169921428Y-56802619D02*
X-169826190Y-56755000D01*
X-169826190Y-56755000D02*
X-169730952Y-56659761D01*
X-169730952Y-56659761D02*
X-169683333Y-56469285D01*
X-169683333Y-56469285D02*
X-169683333Y-56135952D01*
X-169683333Y-56135952D02*
X-169730952Y-55945476D01*
X-169730952Y-55945476D02*
X-169826190Y-55850238D01*
X-169826190Y-55850238D02*
X-169921428Y-55802619D01*
X-171111904Y-56278809D02*
X-170778571Y-56278809D01*
X-170778571Y-56802619D02*
X-170778571Y-55802619D01*
X-170778571Y-55802619D02*
X-171254761Y-55802619D01*
X-171969047Y-56278809D02*
X-171635714Y-56278809D01*
X-171635714Y-56802619D02*
X-171635714Y-55802619D01*
X-171635714Y-55802619D02*
X-172111904Y-55802619D01*
X-171950000Y-44800000D02*
X-171950000Y-52500000D01*
X-166250000Y-49925000D02*
X-171950000Y-49925000D01*
X-166300000Y-47375000D02*
X-171950000Y-47375000D01*
X-168963095Y-45602619D02*
X-168963095Y-46412142D01*
X-168963095Y-46412142D02*
X-169010714Y-46507380D01*
X-169010714Y-46507380D02*
X-169058333Y-46555000D01*
X-169058333Y-46555000D02*
X-169153571Y-46602619D01*
X-169153571Y-46602619D02*
X-169344047Y-46602619D01*
X-169344047Y-46602619D02*
X-169439285Y-46555000D01*
X-169439285Y-46555000D02*
X-169486904Y-46507380D01*
X-169486904Y-46507380D02*
X-169534523Y-46412142D01*
X-169534523Y-46412142D02*
X-169534523Y-45602619D01*
X-169963095Y-46555000D02*
X-170105952Y-46602619D01*
X-170105952Y-46602619D02*
X-170344047Y-46602619D01*
X-170344047Y-46602619D02*
X-170439285Y-46555000D01*
X-170439285Y-46555000D02*
X-170486904Y-46507380D01*
X-170486904Y-46507380D02*
X-170534523Y-46412142D01*
X-170534523Y-46412142D02*
X-170534523Y-46316904D01*
X-170534523Y-46316904D02*
X-170486904Y-46221666D01*
X-170486904Y-46221666D02*
X-170439285Y-46174047D01*
X-170439285Y-46174047D02*
X-170344047Y-46126428D01*
X-170344047Y-46126428D02*
X-170153571Y-46078809D01*
X-170153571Y-46078809D02*
X-170058333Y-46031190D01*
X-170058333Y-46031190D02*
X-170010714Y-45983571D01*
X-170010714Y-45983571D02*
X-169963095Y-45888333D01*
X-169963095Y-45888333D02*
X-169963095Y-45793095D01*
X-169963095Y-45793095D02*
X-170010714Y-45697857D01*
X-170010714Y-45697857D02*
X-170058333Y-45650238D01*
X-170058333Y-45650238D02*
X-170153571Y-45602619D01*
X-170153571Y-45602619D02*
X-170391666Y-45602619D01*
X-170391666Y-45602619D02*
X-170534523Y-45650238D01*
X-171296428Y-46078809D02*
X-171439285Y-46126428D01*
X-171439285Y-46126428D02*
X-171486904Y-46174047D01*
X-171486904Y-46174047D02*
X-171534523Y-46269285D01*
X-171534523Y-46269285D02*
X-171534523Y-46412142D01*
X-171534523Y-46412142D02*
X-171486904Y-46507380D01*
X-171486904Y-46507380D02*
X-171439285Y-46555000D01*
X-171439285Y-46555000D02*
X-171344047Y-46602619D01*
X-171344047Y-46602619D02*
X-170963095Y-46602619D01*
X-170963095Y-46602619D02*
X-170963095Y-45602619D01*
X-170963095Y-45602619D02*
X-171296428Y-45602619D01*
X-171296428Y-45602619D02*
X-171391666Y-45650238D01*
X-171391666Y-45650238D02*
X-171439285Y-45697857D01*
X-171439285Y-45697857D02*
X-171486904Y-45793095D01*
X-171486904Y-45793095D02*
X-171486904Y-45888333D01*
X-171486904Y-45888333D02*
X-171439285Y-45983571D01*
X-171439285Y-45983571D02*
X-171391666Y-46031190D01*
X-171391666Y-46031190D02*
X-171296428Y-46078809D01*
X-171296428Y-46078809D02*
X-170963095Y-46078809D01*
X-166863095Y-49127619D02*
X-166863095Y-48127619D01*
X-166863095Y-48127619D02*
X-167244047Y-48127619D01*
X-167244047Y-48127619D02*
X-167339285Y-48175238D01*
X-167339285Y-48175238D02*
X-167386904Y-48222857D01*
X-167386904Y-48222857D02*
X-167434523Y-48318095D01*
X-167434523Y-48318095D02*
X-167434523Y-48460952D01*
X-167434523Y-48460952D02*
X-167386904Y-48556190D01*
X-167386904Y-48556190D02*
X-167339285Y-48603809D01*
X-167339285Y-48603809D02*
X-167244047Y-48651428D01*
X-167244047Y-48651428D02*
X-166863095Y-48651428D01*
X-168053571Y-48127619D02*
X-168244047Y-48127619D01*
X-168244047Y-48127619D02*
X-168339285Y-48175238D01*
X-168339285Y-48175238D02*
X-168434523Y-48270476D01*
X-168434523Y-48270476D02*
X-168482142Y-48460952D01*
X-168482142Y-48460952D02*
X-168482142Y-48794285D01*
X-168482142Y-48794285D02*
X-168434523Y-48984761D01*
X-168434523Y-48984761D02*
X-168339285Y-49080000D01*
X-168339285Y-49080000D02*
X-168244047Y-49127619D01*
X-168244047Y-49127619D02*
X-168053571Y-49127619D01*
X-168053571Y-49127619D02*
X-167958333Y-49080000D01*
X-167958333Y-49080000D02*
X-167863095Y-48984761D01*
X-167863095Y-48984761D02*
X-167815476Y-48794285D01*
X-167815476Y-48794285D02*
X-167815476Y-48460952D01*
X-167815476Y-48460952D02*
X-167863095Y-48270476D01*
X-167863095Y-48270476D02*
X-167958333Y-48175238D01*
X-167958333Y-48175238D02*
X-168053571Y-48127619D01*
X-168815476Y-48127619D02*
X-169053571Y-49127619D01*
X-169053571Y-49127619D02*
X-169244047Y-48413333D01*
X-169244047Y-48413333D02*
X-169434523Y-49127619D01*
X-169434523Y-49127619D02*
X-169672619Y-48127619D01*
X-170053571Y-48603809D02*
X-170386904Y-48603809D01*
X-170529761Y-49127619D02*
X-170053571Y-49127619D01*
X-170053571Y-49127619D02*
X-170053571Y-48127619D01*
X-170053571Y-48127619D02*
X-170529761Y-48127619D01*
X-171529761Y-49127619D02*
X-171196428Y-48651428D01*
X-170958333Y-49127619D02*
X-170958333Y-48127619D01*
X-170958333Y-48127619D02*
X-171339285Y-48127619D01*
X-171339285Y-48127619D02*
X-171434523Y-48175238D01*
X-171434523Y-48175238D02*
X-171482142Y-48222857D01*
X-171482142Y-48222857D02*
X-171529761Y-48318095D01*
X-171529761Y-48318095D02*
X-171529761Y-48460952D01*
X-171529761Y-48460952D02*
X-171482142Y-48556190D01*
X-171482142Y-48556190D02*
X-171434523Y-48603809D01*
X-171434523Y-48603809D02*
X-171339285Y-48651428D01*
X-171339285Y-48651428D02*
X-170958333Y-48651428D01*
X-168671428Y-51403809D02*
X-168814285Y-51451428D01*
X-168814285Y-51451428D02*
X-168861904Y-51499047D01*
X-168861904Y-51499047D02*
X-168909523Y-51594285D01*
X-168909523Y-51594285D02*
X-168909523Y-51737142D01*
X-168909523Y-51737142D02*
X-168861904Y-51832380D01*
X-168861904Y-51832380D02*
X-168814285Y-51880000D01*
X-168814285Y-51880000D02*
X-168719047Y-51927619D01*
X-168719047Y-51927619D02*
X-168338095Y-51927619D01*
X-168338095Y-51927619D02*
X-168338095Y-50927619D01*
X-168338095Y-50927619D02*
X-168671428Y-50927619D01*
X-168671428Y-50927619D02*
X-168766666Y-50975238D01*
X-168766666Y-50975238D02*
X-168814285Y-51022857D01*
X-168814285Y-51022857D02*
X-168861904Y-51118095D01*
X-168861904Y-51118095D02*
X-168861904Y-51213333D01*
X-168861904Y-51213333D02*
X-168814285Y-51308571D01*
X-168814285Y-51308571D02*
X-168766666Y-51356190D01*
X-168766666Y-51356190D02*
X-168671428Y-51403809D01*
X-168671428Y-51403809D02*
X-168338095Y-51403809D01*
X-169338095Y-50927619D02*
X-169338095Y-51737142D01*
X-169338095Y-51737142D02*
X-169385714Y-51832380D01*
X-169385714Y-51832380D02*
X-169433333Y-51880000D01*
X-169433333Y-51880000D02*
X-169528571Y-51927619D01*
X-169528571Y-51927619D02*
X-169719047Y-51927619D01*
X-169719047Y-51927619D02*
X-169814285Y-51880000D01*
X-169814285Y-51880000D02*
X-169861904Y-51832380D01*
X-169861904Y-51832380D02*
X-169909523Y-51737142D01*
X-169909523Y-51737142D02*
X-169909523Y-50927619D01*
X-170242857Y-50927619D02*
X-170814285Y-50927619D01*
X-170528571Y-51927619D02*
X-170528571Y-50927619D01*
X-171004762Y-50927619D02*
X-171576190Y-50927619D01*
X-171290476Y-51927619D02*
X-171290476Y-50927619D01*
X-165275000Y-44790000D02*
X-171950000Y-44800000D01*
X-165275000Y-52530000D02*
X-171950000Y-52500000D01*
X-165330000Y-53700000D02*
X-172350000Y-53700000D01*
X-165330000Y-59100000D02*
X-172300000Y-59100000D01*
X-165330000Y-60300000D02*
X-172300000Y-60300000D01*
X-165330000Y-65700000D02*
X-172350000Y-65700000D01*
X-163000000Y-81200000D02*
X-156250000Y-81200000D01*
X-163000000Y-83750000D02*
X-156262500Y-83750000D01*
X-162975000Y-86475000D02*
X-156237500Y-86475000D01*
X-163025000Y-78750000D02*
X-156185000Y-78730000D01*
X-163000000Y-89000000D02*
X-163025000Y-78750000D01*
X-163000000Y-89000000D02*
X-156250000Y-88995000D01*
D11*
X-159440476Y-87302809D02*
X-159316666Y-87240904D01*
X-159316666Y-87240904D02*
X-159130952Y-87240904D01*
X-159130952Y-87240904D02*
X-158945238Y-87302809D01*
X-158945238Y-87302809D02*
X-158821428Y-87426619D01*
X-158821428Y-87426619D02*
X-158759523Y-87550428D01*
X-158759523Y-87550428D02*
X-158697619Y-87798047D01*
X-158697619Y-87798047D02*
X-158697619Y-87983761D01*
X-158697619Y-87983761D02*
X-158759523Y-88231380D01*
X-158759523Y-88231380D02*
X-158821428Y-88355190D01*
X-158821428Y-88355190D02*
X-158945238Y-88479000D01*
X-158945238Y-88479000D02*
X-159130952Y-88540904D01*
X-159130952Y-88540904D02*
X-159254761Y-88540904D01*
X-159254761Y-88540904D02*
X-159440476Y-88479000D01*
X-159440476Y-88479000D02*
X-159502380Y-88417095D01*
X-159502380Y-88417095D02*
X-159502380Y-87983761D01*
X-159502380Y-87983761D02*
X-159254761Y-87983761D01*
X-160059523Y-88540904D02*
X-160059523Y-87240904D01*
X-160059523Y-87240904D02*
X-160802380Y-88540904D01*
X-160802380Y-88540904D02*
X-160802380Y-87240904D01*
X-161421428Y-88540904D02*
X-161421428Y-87240904D01*
X-161421428Y-87240904D02*
X-161730952Y-87240904D01*
X-161730952Y-87240904D02*
X-161916666Y-87302809D01*
X-161916666Y-87302809D02*
X-162040476Y-87426619D01*
X-162040476Y-87426619D02*
X-162102381Y-87550428D01*
X-162102381Y-87550428D02*
X-162164285Y-87798047D01*
X-162164285Y-87798047D02*
X-162164285Y-87983761D01*
X-162164285Y-87983761D02*
X-162102381Y-88231380D01*
X-162102381Y-88231380D02*
X-162040476Y-88355190D01*
X-162040476Y-88355190D02*
X-161916666Y-88479000D01*
X-161916666Y-88479000D02*
X-161730952Y-88540904D01*
X-161730952Y-88540904D02*
X-161421428Y-88540904D01*
X-159477380Y-85667095D02*
X-159415476Y-85729000D01*
X-159415476Y-85729000D02*
X-159229761Y-85790904D01*
X-159229761Y-85790904D02*
X-159105952Y-85790904D01*
X-159105952Y-85790904D02*
X-158920238Y-85729000D01*
X-158920238Y-85729000D02*
X-158796428Y-85605190D01*
X-158796428Y-85605190D02*
X-158734523Y-85481380D01*
X-158734523Y-85481380D02*
X-158672619Y-85233761D01*
X-158672619Y-85233761D02*
X-158672619Y-85048047D01*
X-158672619Y-85048047D02*
X-158734523Y-84800428D01*
X-158734523Y-84800428D02*
X-158796428Y-84676619D01*
X-158796428Y-84676619D02*
X-158920238Y-84552809D01*
X-158920238Y-84552809D02*
X-159105952Y-84490904D01*
X-159105952Y-84490904D02*
X-159229761Y-84490904D01*
X-159229761Y-84490904D02*
X-159415476Y-84552809D01*
X-159415476Y-84552809D02*
X-159477380Y-84614714D01*
X-160653571Y-85790904D02*
X-160034523Y-85790904D01*
X-160034523Y-85790904D02*
X-160034523Y-84490904D01*
X-161086904Y-85790904D02*
X-161086904Y-84490904D01*
X-161829761Y-85790904D02*
X-161272619Y-85048047D01*
X-161829761Y-84490904D02*
X-161086904Y-85233761D01*
X-158734523Y-83140904D02*
X-158734523Y-81840904D01*
X-158734523Y-81840904D02*
X-159044047Y-81840904D01*
X-159044047Y-81840904D02*
X-159229761Y-81902809D01*
X-159229761Y-81902809D02*
X-159353571Y-82026619D01*
X-159353571Y-82026619D02*
X-159415476Y-82150428D01*
X-159415476Y-82150428D02*
X-159477380Y-82398047D01*
X-159477380Y-82398047D02*
X-159477380Y-82583761D01*
X-159477380Y-82583761D02*
X-159415476Y-82831380D01*
X-159415476Y-82831380D02*
X-159353571Y-82955190D01*
X-159353571Y-82955190D02*
X-159229761Y-83079000D01*
X-159229761Y-83079000D02*
X-159044047Y-83140904D01*
X-159044047Y-83140904D02*
X-158734523Y-83140904D01*
X-160034523Y-83140904D02*
X-160034523Y-81840904D01*
X-160901190Y-81840904D02*
X-161148809Y-81840904D01*
X-161148809Y-81840904D02*
X-161272619Y-81902809D01*
X-161272619Y-81902809D02*
X-161396428Y-82026619D01*
X-161396428Y-82026619D02*
X-161458333Y-82274238D01*
X-161458333Y-82274238D02*
X-161458333Y-82707571D01*
X-161458333Y-82707571D02*
X-161396428Y-82955190D01*
X-161396428Y-82955190D02*
X-161272619Y-83079000D01*
X-161272619Y-83079000D02*
X-161148809Y-83140904D01*
X-161148809Y-83140904D02*
X-160901190Y-83140904D01*
X-160901190Y-83140904D02*
X-160777381Y-83079000D01*
X-160777381Y-83079000D02*
X-160653571Y-82955190D01*
X-160653571Y-82955190D02*
X-160591667Y-82707571D01*
X-160591667Y-82707571D02*
X-160591667Y-82274238D01*
X-160591667Y-82274238D02*
X-160653571Y-82026619D01*
X-160653571Y-82026619D02*
X-160777381Y-81902809D01*
X-160777381Y-81902809D02*
X-160901190Y-81840904D01*
X-158710714Y-79340904D02*
X-159515476Y-79340904D01*
X-159515476Y-79340904D02*
X-159082142Y-79836142D01*
X-159082142Y-79836142D02*
X-159267857Y-79836142D01*
X-159267857Y-79836142D02*
X-159391666Y-79898047D01*
X-159391666Y-79898047D02*
X-159453571Y-79959952D01*
X-159453571Y-79959952D02*
X-159515476Y-80083761D01*
X-159515476Y-80083761D02*
X-159515476Y-80393285D01*
X-159515476Y-80393285D02*
X-159453571Y-80517095D01*
X-159453571Y-80517095D02*
X-159391666Y-80579000D01*
X-159391666Y-80579000D02*
X-159267857Y-80640904D01*
X-159267857Y-80640904D02*
X-158896428Y-80640904D01*
X-158896428Y-80640904D02*
X-158772619Y-80579000D01*
X-158772619Y-80579000D02*
X-158710714Y-80517095D01*
X-160072618Y-80517095D02*
X-160134523Y-80579000D01*
X-160134523Y-80579000D02*
X-160072618Y-80640904D01*
X-160072618Y-80640904D02*
X-160010714Y-80579000D01*
X-160010714Y-80579000D02*
X-160072618Y-80517095D01*
X-160072618Y-80517095D02*
X-160072618Y-80640904D01*
X-160567857Y-79340904D02*
X-161372619Y-79340904D01*
X-161372619Y-79340904D02*
X-160939285Y-79836142D01*
X-160939285Y-79836142D02*
X-161125000Y-79836142D01*
X-161125000Y-79836142D02*
X-161248809Y-79898047D01*
X-161248809Y-79898047D02*
X-161310714Y-79959952D01*
X-161310714Y-79959952D02*
X-161372619Y-80083761D01*
X-161372619Y-80083761D02*
X-161372619Y-80393285D01*
X-161372619Y-80393285D02*
X-161310714Y-80517095D01*
X-161310714Y-80517095D02*
X-161248809Y-80579000D01*
X-161248809Y-80579000D02*
X-161125000Y-80640904D01*
X-161125000Y-80640904D02*
X-160753571Y-80640904D01*
X-160753571Y-80640904D02*
X-160629762Y-80579000D01*
X-160629762Y-80579000D02*
X-160567857Y-80517095D01*
X-161744047Y-79340904D02*
X-162177380Y-80640904D01*
X-162177380Y-80640904D02*
X-162610714Y-79340904D01*
D10*
X-160777619Y-65561904D02*
X-159777619Y-65561904D01*
X-159777619Y-65561904D02*
X-160491904Y-65228571D01*
X-160491904Y-65228571D02*
X-159777619Y-64895238D01*
X-159777619Y-64895238D02*
X-160777619Y-64895238D01*
X-160253809Y-64419047D02*
X-160253809Y-64085714D01*
X-160777619Y-63942857D02*
X-160777619Y-64419047D01*
X-160777619Y-64419047D02*
X-159777619Y-64419047D01*
X-159777619Y-64419047D02*
X-159777619Y-63942857D01*
X-160491904Y-63561904D02*
X-160491904Y-63085714D01*
X-160777619Y-63657142D02*
X-159777619Y-63323809D01*
X-159777619Y-63323809D02*
X-160777619Y-62990476D01*
X-160730000Y-62704761D02*
X-160777619Y-62561904D01*
X-160777619Y-62561904D02*
X-160777619Y-62323809D01*
X-160777619Y-62323809D02*
X-160730000Y-62228571D01*
X-160730000Y-62228571D02*
X-160682380Y-62180952D01*
X-160682380Y-62180952D02*
X-160587142Y-62133333D01*
X-160587142Y-62133333D02*
X-160491904Y-62133333D01*
X-160491904Y-62133333D02*
X-160396666Y-62180952D01*
X-160396666Y-62180952D02*
X-160349047Y-62228571D01*
X-160349047Y-62228571D02*
X-160301428Y-62323809D01*
X-160301428Y-62323809D02*
X-160253809Y-62514285D01*
X-160253809Y-62514285D02*
X-160206190Y-62609523D01*
X-160206190Y-62609523D02*
X-160158571Y-62657142D01*
X-160158571Y-62657142D02*
X-160063333Y-62704761D01*
X-160063333Y-62704761D02*
X-159968095Y-62704761D01*
X-159968095Y-62704761D02*
X-159872857Y-62657142D01*
X-159872857Y-62657142D02*
X-159825238Y-62609523D01*
X-159825238Y-62609523D02*
X-159777619Y-62514285D01*
X-159777619Y-62514285D02*
X-159777619Y-62276190D01*
X-159777619Y-62276190D02*
X-159825238Y-62133333D01*
X-160730000Y-61752380D02*
X-160777619Y-61609523D01*
X-160777619Y-61609523D02*
X-160777619Y-61371428D01*
X-160777619Y-61371428D02*
X-160730000Y-61276190D01*
X-160730000Y-61276190D02*
X-160682380Y-61228571D01*
X-160682380Y-61228571D02*
X-160587142Y-61180952D01*
X-160587142Y-61180952D02*
X-160491904Y-61180952D01*
X-160491904Y-61180952D02*
X-160396666Y-61228571D01*
X-160396666Y-61228571D02*
X-160349047Y-61276190D01*
X-160349047Y-61276190D02*
X-160301428Y-61371428D01*
X-160301428Y-61371428D02*
X-160253809Y-61561904D01*
X-160253809Y-61561904D02*
X-160206190Y-61657142D01*
X-160206190Y-61657142D02*
X-160158571Y-61704761D01*
X-160158571Y-61704761D02*
X-160063333Y-61752380D01*
X-160063333Y-61752380D02*
X-159968095Y-61752380D01*
X-159968095Y-61752380D02*
X-159872857Y-61704761D01*
X-159872857Y-61704761D02*
X-159825238Y-61657142D01*
X-159825238Y-61657142D02*
X-159777619Y-61561904D01*
X-159777619Y-61561904D02*
X-159777619Y-61323809D01*
X-159777619Y-61323809D02*
X-159825238Y-61180952D01*
X-159777619Y-60752380D02*
X-160587142Y-60752380D01*
X-160587142Y-60752380D02*
X-160682380Y-60704761D01*
X-160682380Y-60704761D02*
X-160730000Y-60657142D01*
X-160730000Y-60657142D02*
X-160777619Y-60561904D01*
X-160777619Y-60561904D02*
X-160777619Y-60371428D01*
X-160777619Y-60371428D02*
X-160730000Y-60276190D01*
X-160730000Y-60276190D02*
X-160682380Y-60228571D01*
X-160682380Y-60228571D02*
X-160587142Y-60180952D01*
X-160587142Y-60180952D02*
X-159777619Y-60180952D01*
X-160777619Y-59133333D02*
X-160301428Y-59466666D01*
X-160777619Y-59704761D02*
X-159777619Y-59704761D01*
X-159777619Y-59704761D02*
X-159777619Y-59323809D01*
X-159777619Y-59323809D02*
X-159825238Y-59228571D01*
X-159825238Y-59228571D02*
X-159872857Y-59180952D01*
X-159872857Y-59180952D02*
X-159968095Y-59133333D01*
X-159968095Y-59133333D02*
X-160110952Y-59133333D01*
X-160110952Y-59133333D02*
X-160206190Y-59180952D01*
X-160206190Y-59180952D02*
X-160253809Y-59228571D01*
X-160253809Y-59228571D02*
X-160301428Y-59323809D01*
X-160301428Y-59323809D02*
X-160301428Y-59704761D01*
X-160253809Y-58704761D02*
X-160253809Y-58371428D01*
X-160777619Y-58228571D02*
X-160777619Y-58704761D01*
X-160777619Y-58704761D02*
X-159777619Y-58704761D01*
X-159777619Y-58704761D02*
X-159777619Y-58228571D01*
X-170947380Y-73563095D02*
X-171947380Y-73563095D01*
X-171947380Y-73563095D02*
X-170947380Y-74134523D01*
X-170947380Y-74134523D02*
X-171947380Y-74134523D01*
X-170947380Y-75182142D02*
X-171423571Y-74848809D01*
X-170947380Y-74610714D02*
X-171947380Y-74610714D01*
X-171947380Y-74610714D02*
X-171947380Y-74991666D01*
X-171947380Y-74991666D02*
X-171899761Y-75086904D01*
X-171899761Y-75086904D02*
X-171852142Y-75134523D01*
X-171852142Y-75134523D02*
X-171756904Y-75182142D01*
X-171756904Y-75182142D02*
X-171614047Y-75182142D01*
X-171614047Y-75182142D02*
X-171518809Y-75134523D01*
X-171518809Y-75134523D02*
X-171471190Y-75086904D01*
X-171471190Y-75086904D02*
X-171423571Y-74991666D01*
X-171423571Y-74991666D02*
X-171423571Y-74610714D01*
X-170995000Y-75563095D02*
X-170947380Y-75705952D01*
X-170947380Y-75705952D02*
X-170947380Y-75944047D01*
X-170947380Y-75944047D02*
X-170995000Y-76039285D01*
X-170995000Y-76039285D02*
X-171042619Y-76086904D01*
X-171042619Y-76086904D02*
X-171137857Y-76134523D01*
X-171137857Y-76134523D02*
X-171233095Y-76134523D01*
X-171233095Y-76134523D02*
X-171328333Y-76086904D01*
X-171328333Y-76086904D02*
X-171375952Y-76039285D01*
X-171375952Y-76039285D02*
X-171423571Y-75944047D01*
X-171423571Y-75944047D02*
X-171471190Y-75753571D01*
X-171471190Y-75753571D02*
X-171518809Y-75658333D01*
X-171518809Y-75658333D02*
X-171566428Y-75610714D01*
X-171566428Y-75610714D02*
X-171661666Y-75563095D01*
X-171661666Y-75563095D02*
X-171756904Y-75563095D01*
X-171756904Y-75563095D02*
X-171852142Y-75610714D01*
X-171852142Y-75610714D02*
X-171899761Y-75658333D01*
X-171899761Y-75658333D02*
X-171947380Y-75753571D01*
X-171947380Y-75753571D02*
X-171947380Y-75991666D01*
X-171947380Y-75991666D02*
X-171899761Y-76134523D01*
X-171947380Y-76420238D02*
X-171947380Y-76991666D01*
X-170947380Y-76705952D02*
X-171947380Y-76705952D01*
X-171496190Y-80546428D02*
X-171448571Y-80689285D01*
X-171448571Y-80689285D02*
X-171400952Y-80736904D01*
X-171400952Y-80736904D02*
X-171305714Y-80784523D01*
X-171305714Y-80784523D02*
X-171162857Y-80784523D01*
X-171162857Y-80784523D02*
X-171067619Y-80736904D01*
X-171067619Y-80736904D02*
X-171020000Y-80689285D01*
X-171020000Y-80689285D02*
X-170972380Y-80594047D01*
X-170972380Y-80594047D02*
X-170972380Y-80213095D01*
X-170972380Y-80213095D02*
X-171972380Y-80213095D01*
X-171972380Y-80213095D02*
X-171972380Y-80546428D01*
X-171972380Y-80546428D02*
X-171924761Y-80641666D01*
X-171924761Y-80641666D02*
X-171877142Y-80689285D01*
X-171877142Y-80689285D02*
X-171781904Y-80736904D01*
X-171781904Y-80736904D02*
X-171686666Y-80736904D01*
X-171686666Y-80736904D02*
X-171591428Y-80689285D01*
X-171591428Y-80689285D02*
X-171543809Y-80641666D01*
X-171543809Y-80641666D02*
X-171496190Y-80546428D01*
X-171496190Y-80546428D02*
X-171496190Y-80213095D01*
X-171972380Y-81403571D02*
X-171972380Y-81594047D01*
X-171972380Y-81594047D02*
X-171924761Y-81689285D01*
X-171924761Y-81689285D02*
X-171829523Y-81784523D01*
X-171829523Y-81784523D02*
X-171639047Y-81832142D01*
X-171639047Y-81832142D02*
X-171305714Y-81832142D01*
X-171305714Y-81832142D02*
X-171115238Y-81784523D01*
X-171115238Y-81784523D02*
X-171020000Y-81689285D01*
X-171020000Y-81689285D02*
X-170972380Y-81594047D01*
X-170972380Y-81594047D02*
X-170972380Y-81403571D01*
X-170972380Y-81403571D02*
X-171020000Y-81308333D01*
X-171020000Y-81308333D02*
X-171115238Y-81213095D01*
X-171115238Y-81213095D02*
X-171305714Y-81165476D01*
X-171305714Y-81165476D02*
X-171639047Y-81165476D01*
X-171639047Y-81165476D02*
X-171829523Y-81213095D01*
X-171829523Y-81213095D02*
X-171924761Y-81308333D01*
X-171924761Y-81308333D02*
X-171972380Y-81403571D01*
X-171972380Y-82451190D02*
X-171972380Y-82641666D01*
X-171972380Y-82641666D02*
X-171924761Y-82736904D01*
X-171924761Y-82736904D02*
X-171829523Y-82832142D01*
X-171829523Y-82832142D02*
X-171639047Y-82879761D01*
X-171639047Y-82879761D02*
X-171305714Y-82879761D01*
X-171305714Y-82879761D02*
X-171115238Y-82832142D01*
X-171115238Y-82832142D02*
X-171020000Y-82736904D01*
X-171020000Y-82736904D02*
X-170972380Y-82641666D01*
X-170972380Y-82641666D02*
X-170972380Y-82451190D01*
X-170972380Y-82451190D02*
X-171020000Y-82355952D01*
X-171020000Y-82355952D02*
X-171115238Y-82260714D01*
X-171115238Y-82260714D02*
X-171305714Y-82213095D01*
X-171305714Y-82213095D02*
X-171639047Y-82213095D01*
X-171639047Y-82213095D02*
X-171829523Y-82260714D01*
X-171829523Y-82260714D02*
X-171924761Y-82355952D01*
X-171924761Y-82355952D02*
X-171972380Y-82451190D01*
X-171972380Y-83165476D02*
X-171972380Y-83736904D01*
X-170972380Y-83451190D02*
X-171972380Y-83451190D01*
%TO.C,JP10*%
X-155390476Y-61462619D02*
X-155390476Y-62176904D01*
X-155390476Y-62176904D02*
X-155342857Y-62319761D01*
X-155342857Y-62319761D02*
X-155247619Y-62415000D01*
X-155247619Y-62415000D02*
X-155104762Y-62462619D01*
X-155104762Y-62462619D02*
X-155009524Y-62462619D01*
X-155866667Y-62462619D02*
X-155866667Y-61462619D01*
X-155866667Y-61462619D02*
X-156247619Y-61462619D01*
X-156247619Y-61462619D02*
X-156342857Y-61510238D01*
X-156342857Y-61510238D02*
X-156390476Y-61557857D01*
X-156390476Y-61557857D02*
X-156438095Y-61653095D01*
X-156438095Y-61653095D02*
X-156438095Y-61795952D01*
X-156438095Y-61795952D02*
X-156390476Y-61891190D01*
X-156390476Y-61891190D02*
X-156342857Y-61938809D01*
X-156342857Y-61938809D02*
X-156247619Y-61986428D01*
X-156247619Y-61986428D02*
X-155866667Y-61986428D01*
X-157390476Y-62462619D02*
X-156819048Y-62462619D01*
X-157104762Y-62462619D02*
X-157104762Y-61462619D01*
X-157104762Y-61462619D02*
X-157009524Y-61605476D01*
X-157009524Y-61605476D02*
X-156914286Y-61700714D01*
X-156914286Y-61700714D02*
X-156819048Y-61748333D01*
X-158009524Y-61462619D02*
X-158104762Y-61462619D01*
X-158104762Y-61462619D02*
X-158200000Y-61510238D01*
X-158200000Y-61510238D02*
X-158247619Y-61557857D01*
X-158247619Y-61557857D02*
X-158295238Y-61653095D01*
X-158295238Y-61653095D02*
X-158342857Y-61843571D01*
X-158342857Y-61843571D02*
X-158342857Y-62081666D01*
X-158342857Y-62081666D02*
X-158295238Y-62272142D01*
X-158295238Y-62272142D02*
X-158247619Y-62367380D01*
X-158247619Y-62367380D02*
X-158200000Y-62415000D01*
X-158200000Y-62415000D02*
X-158104762Y-62462619D01*
X-158104762Y-62462619D02*
X-158009524Y-62462619D01*
X-158009524Y-62462619D02*
X-157914286Y-62415000D01*
X-157914286Y-62415000D02*
X-157866667Y-62367380D01*
X-157866667Y-62367380D02*
X-157819048Y-62272142D01*
X-157819048Y-62272142D02*
X-157771429Y-62081666D01*
X-157771429Y-62081666D02*
X-157771429Y-61843571D01*
X-157771429Y-61843571D02*
X-157819048Y-61653095D01*
X-157819048Y-61653095D02*
X-157866667Y-61557857D01*
X-157866667Y-61557857D02*
X-157914286Y-61510238D01*
X-157914286Y-61510238D02*
X-158009524Y-61462619D01*
%TO.C,U2*%
X-146138095Y-60712619D02*
X-146138095Y-61522142D01*
X-146138095Y-61522142D02*
X-146185714Y-61617380D01*
X-146185714Y-61617380D02*
X-146233333Y-61665000D01*
X-146233333Y-61665000D02*
X-146328571Y-61712619D01*
X-146328571Y-61712619D02*
X-146519047Y-61712619D01*
X-146519047Y-61712619D02*
X-146614285Y-61665000D01*
X-146614285Y-61665000D02*
X-146661904Y-61617380D01*
X-146661904Y-61617380D02*
X-146709523Y-61522142D01*
X-146709523Y-61522142D02*
X-146709523Y-60712619D01*
X-147138095Y-60807857D02*
X-147185714Y-60760238D01*
X-147185714Y-60760238D02*
X-147280952Y-60712619D01*
X-147280952Y-60712619D02*
X-147519047Y-60712619D01*
X-147519047Y-60712619D02*
X-147614285Y-60760238D01*
X-147614285Y-60760238D02*
X-147661904Y-60807857D01*
X-147661904Y-60807857D02*
X-147709523Y-60903095D01*
X-147709523Y-60903095D02*
X-147709523Y-60998333D01*
X-147709523Y-60998333D02*
X-147661904Y-61141190D01*
X-147661904Y-61141190D02*
X-147090476Y-61712619D01*
X-147090476Y-61712619D02*
X-147709523Y-61712619D01*
%TO.C,C10*%
X-146994642Y-68497380D02*
X-146947023Y-68545000D01*
X-146947023Y-68545000D02*
X-146804166Y-68592619D01*
X-146804166Y-68592619D02*
X-146708928Y-68592619D01*
X-146708928Y-68592619D02*
X-146566071Y-68545000D01*
X-146566071Y-68545000D02*
X-146470833Y-68449761D01*
X-146470833Y-68449761D02*
X-146423214Y-68354523D01*
X-146423214Y-68354523D02*
X-146375595Y-68164047D01*
X-146375595Y-68164047D02*
X-146375595Y-68021190D01*
X-146375595Y-68021190D02*
X-146423214Y-67830714D01*
X-146423214Y-67830714D02*
X-146470833Y-67735476D01*
X-146470833Y-67735476D02*
X-146566071Y-67640238D01*
X-146566071Y-67640238D02*
X-146708928Y-67592619D01*
X-146708928Y-67592619D02*
X-146804166Y-67592619D01*
X-146804166Y-67592619D02*
X-146947023Y-67640238D01*
X-146947023Y-67640238D02*
X-146994642Y-67687857D01*
X-147947023Y-68592619D02*
X-147375595Y-68592619D01*
X-147661309Y-68592619D02*
X-147661309Y-67592619D01*
X-147661309Y-67592619D02*
X-147566071Y-67735476D01*
X-147566071Y-67735476D02*
X-147470833Y-67830714D01*
X-147470833Y-67830714D02*
X-147375595Y-67878333D01*
X-148566071Y-67592619D02*
X-148661309Y-67592619D01*
X-148661309Y-67592619D02*
X-148756547Y-67640238D01*
X-148756547Y-67640238D02*
X-148804166Y-67687857D01*
X-148804166Y-67687857D02*
X-148851785Y-67783095D01*
X-148851785Y-67783095D02*
X-148899404Y-67973571D01*
X-148899404Y-67973571D02*
X-148899404Y-68211666D01*
X-148899404Y-68211666D02*
X-148851785Y-68402142D01*
X-148851785Y-68402142D02*
X-148804166Y-68497380D01*
X-148804166Y-68497380D02*
X-148756547Y-68545000D01*
X-148756547Y-68545000D02*
X-148661309Y-68592619D01*
X-148661309Y-68592619D02*
X-148566071Y-68592619D01*
X-148566071Y-68592619D02*
X-148470833Y-68545000D01*
X-148470833Y-68545000D02*
X-148423214Y-68497380D01*
X-148423214Y-68497380D02*
X-148375595Y-68402142D01*
X-148375595Y-68402142D02*
X-148327976Y-68211666D01*
X-148327976Y-68211666D02*
X-148327976Y-67973571D01*
X-148327976Y-67973571D02*
X-148375595Y-67783095D01*
X-148375595Y-67783095D02*
X-148423214Y-67687857D01*
X-148423214Y-67687857D02*
X-148470833Y-67640238D01*
X-148470833Y-67640238D02*
X-148566071Y-67592619D01*
%TO.C,C15*%
X-141157142Y-58167380D02*
X-141109523Y-58215000D01*
X-141109523Y-58215000D02*
X-140966666Y-58262619D01*
X-140966666Y-58262619D02*
X-140871428Y-58262619D01*
X-140871428Y-58262619D02*
X-140728571Y-58215000D01*
X-140728571Y-58215000D02*
X-140633333Y-58119761D01*
X-140633333Y-58119761D02*
X-140585714Y-58024523D01*
X-140585714Y-58024523D02*
X-140538095Y-57834047D01*
X-140538095Y-57834047D02*
X-140538095Y-57691190D01*
X-140538095Y-57691190D02*
X-140585714Y-57500714D01*
X-140585714Y-57500714D02*
X-140633333Y-57405476D01*
X-140633333Y-57405476D02*
X-140728571Y-57310238D01*
X-140728571Y-57310238D02*
X-140871428Y-57262619D01*
X-140871428Y-57262619D02*
X-140966666Y-57262619D01*
X-140966666Y-57262619D02*
X-141109523Y-57310238D01*
X-141109523Y-57310238D02*
X-141157142Y-57357857D01*
X-142109523Y-58262619D02*
X-141538095Y-58262619D01*
X-141823809Y-58262619D02*
X-141823809Y-57262619D01*
X-141823809Y-57262619D02*
X-141728571Y-57405476D01*
X-141728571Y-57405476D02*
X-141633333Y-57500714D01*
X-141633333Y-57500714D02*
X-141538095Y-57548333D01*
X-143014285Y-57262619D02*
X-142538095Y-57262619D01*
X-142538095Y-57262619D02*
X-142490476Y-57738809D01*
X-142490476Y-57738809D02*
X-142538095Y-57691190D01*
X-142538095Y-57691190D02*
X-142633333Y-57643571D01*
X-142633333Y-57643571D02*
X-142871428Y-57643571D01*
X-142871428Y-57643571D02*
X-142966666Y-57691190D01*
X-142966666Y-57691190D02*
X-143014285Y-57738809D01*
X-143014285Y-57738809D02*
X-143061904Y-57834047D01*
X-143061904Y-57834047D02*
X-143061904Y-58072142D01*
X-143061904Y-58072142D02*
X-143014285Y-58167380D01*
X-143014285Y-58167380D02*
X-142966666Y-58215000D01*
X-142966666Y-58215000D02*
X-142871428Y-58262619D01*
X-142871428Y-58262619D02*
X-142633333Y-58262619D01*
X-142633333Y-58262619D02*
X-142538095Y-58215000D01*
X-142538095Y-58215000D02*
X-142490476Y-58167380D01*
%TO.C,JP9*%
X-137066666Y-80012619D02*
X-137066666Y-80726904D01*
X-137066666Y-80726904D02*
X-137019047Y-80869761D01*
X-137019047Y-80869761D02*
X-136923809Y-80965000D01*
X-136923809Y-80965000D02*
X-136780952Y-81012619D01*
X-136780952Y-81012619D02*
X-136685714Y-81012619D01*
X-137542857Y-81012619D02*
X-137542857Y-80012619D01*
X-137542857Y-80012619D02*
X-137923809Y-80012619D01*
X-137923809Y-80012619D02*
X-138019047Y-80060238D01*
X-138019047Y-80060238D02*
X-138066666Y-80107857D01*
X-138066666Y-80107857D02*
X-138114285Y-80203095D01*
X-138114285Y-80203095D02*
X-138114285Y-80345952D01*
X-138114285Y-80345952D02*
X-138066666Y-80441190D01*
X-138066666Y-80441190D02*
X-138019047Y-80488809D01*
X-138019047Y-80488809D02*
X-137923809Y-80536428D01*
X-137923809Y-80536428D02*
X-137542857Y-80536428D01*
X-138590476Y-81012619D02*
X-138780952Y-81012619D01*
X-138780952Y-81012619D02*
X-138876190Y-80965000D01*
X-138876190Y-80965000D02*
X-138923809Y-80917380D01*
X-138923809Y-80917380D02*
X-139019047Y-80774523D01*
X-139019047Y-80774523D02*
X-139066666Y-80584047D01*
X-139066666Y-80584047D02*
X-139066666Y-80203095D01*
X-139066666Y-80203095D02*
X-139019047Y-80107857D01*
X-139019047Y-80107857D02*
X-138971428Y-80060238D01*
X-138971428Y-80060238D02*
X-138876190Y-80012619D01*
X-138876190Y-80012619D02*
X-138685714Y-80012619D01*
X-138685714Y-80012619D02*
X-138590476Y-80060238D01*
X-138590476Y-80060238D02*
X-138542857Y-80107857D01*
X-138542857Y-80107857D02*
X-138495238Y-80203095D01*
X-138495238Y-80203095D02*
X-138495238Y-80441190D01*
X-138495238Y-80441190D02*
X-138542857Y-80536428D01*
X-138542857Y-80536428D02*
X-138590476Y-80584047D01*
X-138590476Y-80584047D02*
X-138685714Y-80631666D01*
X-138685714Y-80631666D02*
X-138876190Y-80631666D01*
X-138876190Y-80631666D02*
X-138971428Y-80584047D01*
X-138971428Y-80584047D02*
X-139019047Y-80536428D01*
X-139019047Y-80536428D02*
X-139066666Y-80441190D01*
%TO.C,J3*%
X-161316666Y-59912619D02*
X-161316666Y-60626904D01*
X-161316666Y-60626904D02*
X-161269047Y-60769761D01*
X-161269047Y-60769761D02*
X-161173809Y-60865000D01*
X-161173809Y-60865000D02*
X-161030952Y-60912619D01*
X-161030952Y-60912619D02*
X-160935714Y-60912619D01*
X-161697619Y-59912619D02*
X-162316666Y-59912619D01*
X-162316666Y-59912619D02*
X-161983333Y-60293571D01*
X-161983333Y-60293571D02*
X-162126190Y-60293571D01*
X-162126190Y-60293571D02*
X-162221428Y-60341190D01*
X-162221428Y-60341190D02*
X-162269047Y-60388809D01*
X-162269047Y-60388809D02*
X-162316666Y-60484047D01*
X-162316666Y-60484047D02*
X-162316666Y-60722142D01*
X-162316666Y-60722142D02*
X-162269047Y-60817380D01*
X-162269047Y-60817380D02*
X-162221428Y-60865000D01*
X-162221428Y-60865000D02*
X-162126190Y-60912619D01*
X-162126190Y-60912619D02*
X-161840476Y-60912619D01*
X-161840476Y-60912619D02*
X-161745238Y-60865000D01*
X-161745238Y-60865000D02*
X-161697619Y-60817380D01*
%TO.C,J2*%
X-161341666Y-53362619D02*
X-161341666Y-54076904D01*
X-161341666Y-54076904D02*
X-161294047Y-54219761D01*
X-161294047Y-54219761D02*
X-161198809Y-54315000D01*
X-161198809Y-54315000D02*
X-161055952Y-54362619D01*
X-161055952Y-54362619D02*
X-160960714Y-54362619D01*
X-161770238Y-53457857D02*
X-161817857Y-53410238D01*
X-161817857Y-53410238D02*
X-161913095Y-53362619D01*
X-161913095Y-53362619D02*
X-162151190Y-53362619D01*
X-162151190Y-53362619D02*
X-162246428Y-53410238D01*
X-162246428Y-53410238D02*
X-162294047Y-53457857D01*
X-162294047Y-53457857D02*
X-162341666Y-53553095D01*
X-162341666Y-53553095D02*
X-162341666Y-53648333D01*
X-162341666Y-53648333D02*
X-162294047Y-53791190D01*
X-162294047Y-53791190D02*
X-161722619Y-54362619D01*
X-161722619Y-54362619D02*
X-162341666Y-54362619D01*
%TO.C,J1*%
X-152016666Y-85512619D02*
X-152016666Y-86226904D01*
X-152016666Y-86226904D02*
X-151969047Y-86369761D01*
X-151969047Y-86369761D02*
X-151873809Y-86465000D01*
X-151873809Y-86465000D02*
X-151730952Y-86512619D01*
X-151730952Y-86512619D02*
X-151635714Y-86512619D01*
X-153016666Y-86512619D02*
X-152445238Y-86512619D01*
X-152730952Y-86512619D02*
X-152730952Y-85512619D01*
X-152730952Y-85512619D02*
X-152635714Y-85655476D01*
X-152635714Y-85655476D02*
X-152540476Y-85750714D01*
X-152540476Y-85750714D02*
X-152445238Y-85798333D01*
%TO.C,JP13*%
X-163715476Y-43237619D02*
X-163715476Y-43951904D01*
X-163715476Y-43951904D02*
X-163667857Y-44094761D01*
X-163667857Y-44094761D02*
X-163572619Y-44190000D01*
X-163572619Y-44190000D02*
X-163429762Y-44237619D01*
X-163429762Y-44237619D02*
X-163334524Y-44237619D01*
X-164191667Y-44237619D02*
X-164191667Y-43237619D01*
X-164191667Y-43237619D02*
X-164572619Y-43237619D01*
X-164572619Y-43237619D02*
X-164667857Y-43285238D01*
X-164667857Y-43285238D02*
X-164715476Y-43332857D01*
X-164715476Y-43332857D02*
X-164763095Y-43428095D01*
X-164763095Y-43428095D02*
X-164763095Y-43570952D01*
X-164763095Y-43570952D02*
X-164715476Y-43666190D01*
X-164715476Y-43666190D02*
X-164667857Y-43713809D01*
X-164667857Y-43713809D02*
X-164572619Y-43761428D01*
X-164572619Y-43761428D02*
X-164191667Y-43761428D01*
X-165715476Y-44237619D02*
X-165144048Y-44237619D01*
X-165429762Y-44237619D02*
X-165429762Y-43237619D01*
X-165429762Y-43237619D02*
X-165334524Y-43380476D01*
X-165334524Y-43380476D02*
X-165239286Y-43475714D01*
X-165239286Y-43475714D02*
X-165144048Y-43523333D01*
X-166048810Y-43237619D02*
X-166667857Y-43237619D01*
X-166667857Y-43237619D02*
X-166334524Y-43618571D01*
X-166334524Y-43618571D02*
X-166477381Y-43618571D01*
X-166477381Y-43618571D02*
X-166572619Y-43666190D01*
X-166572619Y-43666190D02*
X-166620238Y-43713809D01*
X-166620238Y-43713809D02*
X-166667857Y-43809047D01*
X-166667857Y-43809047D02*
X-166667857Y-44047142D01*
X-166667857Y-44047142D02*
X-166620238Y-44142380D01*
X-166620238Y-44142380D02*
X-166572619Y-44190000D01*
X-166572619Y-44190000D02*
X-166477381Y-44237619D01*
X-166477381Y-44237619D02*
X-166191667Y-44237619D01*
X-166191667Y-44237619D02*
X-166096429Y-44190000D01*
X-166096429Y-44190000D02*
X-166048810Y-44142380D01*
%TO.C,J6*%
X-126216666Y-44837619D02*
X-126216666Y-45551904D01*
X-126216666Y-45551904D02*
X-126169047Y-45694761D01*
X-126169047Y-45694761D02*
X-126073809Y-45790000D01*
X-126073809Y-45790000D02*
X-125930952Y-45837619D01*
X-125930952Y-45837619D02*
X-125835714Y-45837619D01*
X-127121428Y-44837619D02*
X-126930952Y-44837619D01*
X-126930952Y-44837619D02*
X-126835714Y-44885238D01*
X-126835714Y-44885238D02*
X-126788095Y-44932857D01*
X-126788095Y-44932857D02*
X-126692857Y-45075714D01*
X-126692857Y-45075714D02*
X-126645238Y-45266190D01*
X-126645238Y-45266190D02*
X-126645238Y-45647142D01*
X-126645238Y-45647142D02*
X-126692857Y-45742380D01*
X-126692857Y-45742380D02*
X-126740476Y-45790000D01*
X-126740476Y-45790000D02*
X-126835714Y-45837619D01*
X-126835714Y-45837619D02*
X-127026190Y-45837619D01*
X-127026190Y-45837619D02*
X-127121428Y-45790000D01*
X-127121428Y-45790000D02*
X-127169047Y-45742380D01*
X-127169047Y-45742380D02*
X-127216666Y-45647142D01*
X-127216666Y-45647142D02*
X-127216666Y-45409047D01*
X-127216666Y-45409047D02*
X-127169047Y-45313809D01*
X-127169047Y-45313809D02*
X-127121428Y-45266190D01*
X-127121428Y-45266190D02*
X-127026190Y-45218571D01*
X-127026190Y-45218571D02*
X-126835714Y-45218571D01*
X-126835714Y-45218571D02*
X-126740476Y-45266190D01*
X-126740476Y-45266190D02*
X-126692857Y-45313809D01*
X-126692857Y-45313809D02*
X-126645238Y-45409047D01*
%TO.C,D2*%
X-152261905Y-94862619D02*
X-152261905Y-93862619D01*
X-152261905Y-93862619D02*
X-152500000Y-93862619D01*
X-152500000Y-93862619D02*
X-152642857Y-93910238D01*
X-152642857Y-93910238D02*
X-152738095Y-94005476D01*
X-152738095Y-94005476D02*
X-152785714Y-94100714D01*
X-152785714Y-94100714D02*
X-152833333Y-94291190D01*
X-152833333Y-94291190D02*
X-152833333Y-94434047D01*
X-152833333Y-94434047D02*
X-152785714Y-94624523D01*
X-152785714Y-94624523D02*
X-152738095Y-94719761D01*
X-152738095Y-94719761D02*
X-152642857Y-94815000D01*
X-152642857Y-94815000D02*
X-152500000Y-94862619D01*
X-152500000Y-94862619D02*
X-152261905Y-94862619D01*
X-153214286Y-93957857D02*
X-153261905Y-93910238D01*
X-153261905Y-93910238D02*
X-153357143Y-93862619D01*
X-153357143Y-93862619D02*
X-153595238Y-93862619D01*
X-153595238Y-93862619D02*
X-153690476Y-93910238D01*
X-153690476Y-93910238D02*
X-153738095Y-93957857D01*
X-153738095Y-93957857D02*
X-153785714Y-94053095D01*
X-153785714Y-94053095D02*
X-153785714Y-94148333D01*
X-153785714Y-94148333D02*
X-153738095Y-94291190D01*
X-153738095Y-94291190D02*
X-153166667Y-94862619D01*
X-153166667Y-94862619D02*
X-153785714Y-94862619D01*
%TO.C,BT2*%
X-151314285Y-99818809D02*
X-151457142Y-99866428D01*
X-151457142Y-99866428D02*
X-151504761Y-99914047D01*
X-151504761Y-99914047D02*
X-151552380Y-100009285D01*
X-151552380Y-100009285D02*
X-151552380Y-100152142D01*
X-151552380Y-100152142D02*
X-151504761Y-100247380D01*
X-151504761Y-100247380D02*
X-151457142Y-100295000D01*
X-151457142Y-100295000D02*
X-151361904Y-100342619D01*
X-151361904Y-100342619D02*
X-150980952Y-100342619D01*
X-150980952Y-100342619D02*
X-150980952Y-99342619D01*
X-150980952Y-99342619D02*
X-151314285Y-99342619D01*
X-151314285Y-99342619D02*
X-151409523Y-99390238D01*
X-151409523Y-99390238D02*
X-151457142Y-99437857D01*
X-151457142Y-99437857D02*
X-151504761Y-99533095D01*
X-151504761Y-99533095D02*
X-151504761Y-99628333D01*
X-151504761Y-99628333D02*
X-151457142Y-99723571D01*
X-151457142Y-99723571D02*
X-151409523Y-99771190D01*
X-151409523Y-99771190D02*
X-151314285Y-99818809D01*
X-151314285Y-99818809D02*
X-150980952Y-99818809D01*
X-151838095Y-99342619D02*
X-152409523Y-99342619D01*
X-152123809Y-100342619D02*
X-152123809Y-99342619D01*
X-152695238Y-99437857D02*
X-152742857Y-99390238D01*
X-152742857Y-99390238D02*
X-152838095Y-99342619D01*
X-152838095Y-99342619D02*
X-153076190Y-99342619D01*
X-153076190Y-99342619D02*
X-153171428Y-99390238D01*
X-153171428Y-99390238D02*
X-153219047Y-99437857D01*
X-153219047Y-99437857D02*
X-153266666Y-99533095D01*
X-153266666Y-99533095D02*
X-153266666Y-99628333D01*
X-153266666Y-99628333D02*
X-153219047Y-99771190D01*
X-153219047Y-99771190D02*
X-152647619Y-100342619D01*
X-152647619Y-100342619D02*
X-153266666Y-100342619D01*
%TO.C,JP8*%
X-138716666Y-68612619D02*
X-138716666Y-69326904D01*
X-138716666Y-69326904D02*
X-138669047Y-69469761D01*
X-138669047Y-69469761D02*
X-138573809Y-69565000D01*
X-138573809Y-69565000D02*
X-138430952Y-69612619D01*
X-138430952Y-69612619D02*
X-138335714Y-69612619D01*
X-139192857Y-69612619D02*
X-139192857Y-68612619D01*
X-139192857Y-68612619D02*
X-139573809Y-68612619D01*
X-139573809Y-68612619D02*
X-139669047Y-68660238D01*
X-139669047Y-68660238D02*
X-139716666Y-68707857D01*
X-139716666Y-68707857D02*
X-139764285Y-68803095D01*
X-139764285Y-68803095D02*
X-139764285Y-68945952D01*
X-139764285Y-68945952D02*
X-139716666Y-69041190D01*
X-139716666Y-69041190D02*
X-139669047Y-69088809D01*
X-139669047Y-69088809D02*
X-139573809Y-69136428D01*
X-139573809Y-69136428D02*
X-139192857Y-69136428D01*
X-140335714Y-69041190D02*
X-140240476Y-68993571D01*
X-140240476Y-68993571D02*
X-140192857Y-68945952D01*
X-140192857Y-68945952D02*
X-140145238Y-68850714D01*
X-140145238Y-68850714D02*
X-140145238Y-68803095D01*
X-140145238Y-68803095D02*
X-140192857Y-68707857D01*
X-140192857Y-68707857D02*
X-140240476Y-68660238D01*
X-140240476Y-68660238D02*
X-140335714Y-68612619D01*
X-140335714Y-68612619D02*
X-140526190Y-68612619D01*
X-140526190Y-68612619D02*
X-140621428Y-68660238D01*
X-140621428Y-68660238D02*
X-140669047Y-68707857D01*
X-140669047Y-68707857D02*
X-140716666Y-68803095D01*
X-140716666Y-68803095D02*
X-140716666Y-68850714D01*
X-140716666Y-68850714D02*
X-140669047Y-68945952D01*
X-140669047Y-68945952D02*
X-140621428Y-68993571D01*
X-140621428Y-68993571D02*
X-140526190Y-69041190D01*
X-140526190Y-69041190D02*
X-140335714Y-69041190D01*
X-140335714Y-69041190D02*
X-140240476Y-69088809D01*
X-140240476Y-69088809D02*
X-140192857Y-69136428D01*
X-140192857Y-69136428D02*
X-140145238Y-69231666D01*
X-140145238Y-69231666D02*
X-140145238Y-69422142D01*
X-140145238Y-69422142D02*
X-140192857Y-69517380D01*
X-140192857Y-69517380D02*
X-140240476Y-69565000D01*
X-140240476Y-69565000D02*
X-140335714Y-69612619D01*
X-140335714Y-69612619D02*
X-140526190Y-69612619D01*
X-140526190Y-69612619D02*
X-140621428Y-69565000D01*
X-140621428Y-69565000D02*
X-140669047Y-69517380D01*
X-140669047Y-69517380D02*
X-140716666Y-69422142D01*
X-140716666Y-69422142D02*
X-140716666Y-69231666D01*
X-140716666Y-69231666D02*
X-140669047Y-69136428D01*
X-140669047Y-69136428D02*
X-140621428Y-69088809D01*
X-140621428Y-69088809D02*
X-140526190Y-69041190D01*
%TO.C,TP2*%
X-134738095Y-62912619D02*
X-135309523Y-62912619D01*
X-135023809Y-63912619D02*
X-135023809Y-62912619D01*
X-135642857Y-63912619D02*
X-135642857Y-62912619D01*
X-135642857Y-62912619D02*
X-136023809Y-62912619D01*
X-136023809Y-62912619D02*
X-136119047Y-62960238D01*
X-136119047Y-62960238D02*
X-136166666Y-63007857D01*
X-136166666Y-63007857D02*
X-136214285Y-63103095D01*
X-136214285Y-63103095D02*
X-136214285Y-63245952D01*
X-136214285Y-63245952D02*
X-136166666Y-63341190D01*
X-136166666Y-63341190D02*
X-136119047Y-63388809D01*
X-136119047Y-63388809D02*
X-136023809Y-63436428D01*
X-136023809Y-63436428D02*
X-135642857Y-63436428D01*
X-136595238Y-63007857D02*
X-136642857Y-62960238D01*
X-136642857Y-62960238D02*
X-136738095Y-62912619D01*
X-136738095Y-62912619D02*
X-136976190Y-62912619D01*
X-136976190Y-62912619D02*
X-137071428Y-62960238D01*
X-137071428Y-62960238D02*
X-137119047Y-63007857D01*
X-137119047Y-63007857D02*
X-137166666Y-63103095D01*
X-137166666Y-63103095D02*
X-137166666Y-63198333D01*
X-137166666Y-63198333D02*
X-137119047Y-63341190D01*
X-137119047Y-63341190D02*
X-136547619Y-63912619D01*
X-136547619Y-63912619D02*
X-137166666Y-63912619D01*
%TO.C,TP1*%
X-134738095Y-64412619D02*
X-135309523Y-64412619D01*
X-135023809Y-65412619D02*
X-135023809Y-64412619D01*
X-135642857Y-65412619D02*
X-135642857Y-64412619D01*
X-135642857Y-64412619D02*
X-136023809Y-64412619D01*
X-136023809Y-64412619D02*
X-136119047Y-64460238D01*
X-136119047Y-64460238D02*
X-136166666Y-64507857D01*
X-136166666Y-64507857D02*
X-136214285Y-64603095D01*
X-136214285Y-64603095D02*
X-136214285Y-64745952D01*
X-136214285Y-64745952D02*
X-136166666Y-64841190D01*
X-136166666Y-64841190D02*
X-136119047Y-64888809D01*
X-136119047Y-64888809D02*
X-136023809Y-64936428D01*
X-136023809Y-64936428D02*
X-135642857Y-64936428D01*
X-137166666Y-65412619D02*
X-136595238Y-65412619D01*
X-136880952Y-65412619D02*
X-136880952Y-64412619D01*
X-136880952Y-64412619D02*
X-136785714Y-64555476D01*
X-136785714Y-64555476D02*
X-136690476Y-64650714D01*
X-136690476Y-64650714D02*
X-136595238Y-64698333D01*
%TO.C,JP1*%
X-149716666Y-60462619D02*
X-149716666Y-61176904D01*
X-149716666Y-61176904D02*
X-149669047Y-61319761D01*
X-149669047Y-61319761D02*
X-149573809Y-61415000D01*
X-149573809Y-61415000D02*
X-149430952Y-61462619D01*
X-149430952Y-61462619D02*
X-149335714Y-61462619D01*
X-150192857Y-61462619D02*
X-150192857Y-60462619D01*
X-150192857Y-60462619D02*
X-150573809Y-60462619D01*
X-150573809Y-60462619D02*
X-150669047Y-60510238D01*
X-150669047Y-60510238D02*
X-150716666Y-60557857D01*
X-150716666Y-60557857D02*
X-150764285Y-60653095D01*
X-150764285Y-60653095D02*
X-150764285Y-60795952D01*
X-150764285Y-60795952D02*
X-150716666Y-60891190D01*
X-150716666Y-60891190D02*
X-150669047Y-60938809D01*
X-150669047Y-60938809D02*
X-150573809Y-60986428D01*
X-150573809Y-60986428D02*
X-150192857Y-60986428D01*
X-151716666Y-61462619D02*
X-151145238Y-61462619D01*
X-151430952Y-61462619D02*
X-151430952Y-60462619D01*
X-151430952Y-60462619D02*
X-151335714Y-60605476D01*
X-151335714Y-60605476D02*
X-151240476Y-60700714D01*
X-151240476Y-60700714D02*
X-151145238Y-60748333D01*
%TO.C,JP7*%
X-165819166Y-95662619D02*
X-165819166Y-96376904D01*
X-165819166Y-96376904D02*
X-165771547Y-96519761D01*
X-165771547Y-96519761D02*
X-165676309Y-96615000D01*
X-165676309Y-96615000D02*
X-165533452Y-96662619D01*
X-165533452Y-96662619D02*
X-165438214Y-96662619D01*
X-166295357Y-96662619D02*
X-166295357Y-95662619D01*
X-166295357Y-95662619D02*
X-166676309Y-95662619D01*
X-166676309Y-95662619D02*
X-166771547Y-95710238D01*
X-166771547Y-95710238D02*
X-166819166Y-95757857D01*
X-166819166Y-95757857D02*
X-166866785Y-95853095D01*
X-166866785Y-95853095D02*
X-166866785Y-95995952D01*
X-166866785Y-95995952D02*
X-166819166Y-96091190D01*
X-166819166Y-96091190D02*
X-166771547Y-96138809D01*
X-166771547Y-96138809D02*
X-166676309Y-96186428D01*
X-166676309Y-96186428D02*
X-166295357Y-96186428D01*
X-167200119Y-95662619D02*
X-167866785Y-95662619D01*
X-167866785Y-95662619D02*
X-167438214Y-96662619D01*
%TO.C,JP3*%
X-140679166Y-44862619D02*
X-140679166Y-45576904D01*
X-140679166Y-45576904D02*
X-140631547Y-45719761D01*
X-140631547Y-45719761D02*
X-140536309Y-45815000D01*
X-140536309Y-45815000D02*
X-140393452Y-45862619D01*
X-140393452Y-45862619D02*
X-140298214Y-45862619D01*
X-141155357Y-45862619D02*
X-141155357Y-44862619D01*
X-141155357Y-44862619D02*
X-141536309Y-44862619D01*
X-141536309Y-44862619D02*
X-141631547Y-44910238D01*
X-141631547Y-44910238D02*
X-141679166Y-44957857D01*
X-141679166Y-44957857D02*
X-141726785Y-45053095D01*
X-141726785Y-45053095D02*
X-141726785Y-45195952D01*
X-141726785Y-45195952D02*
X-141679166Y-45291190D01*
X-141679166Y-45291190D02*
X-141631547Y-45338809D01*
X-141631547Y-45338809D02*
X-141536309Y-45386428D01*
X-141536309Y-45386428D02*
X-141155357Y-45386428D01*
X-142060119Y-44862619D02*
X-142679166Y-44862619D01*
X-142679166Y-44862619D02*
X-142345833Y-45243571D01*
X-142345833Y-45243571D02*
X-142488690Y-45243571D01*
X-142488690Y-45243571D02*
X-142583928Y-45291190D01*
X-142583928Y-45291190D02*
X-142631547Y-45338809D01*
X-142631547Y-45338809D02*
X-142679166Y-45434047D01*
X-142679166Y-45434047D02*
X-142679166Y-45672142D01*
X-142679166Y-45672142D02*
X-142631547Y-45767380D01*
X-142631547Y-45767380D02*
X-142583928Y-45815000D01*
X-142583928Y-45815000D02*
X-142488690Y-45862619D01*
X-142488690Y-45862619D02*
X-142202976Y-45862619D01*
X-142202976Y-45862619D02*
X-142107738Y-45815000D01*
X-142107738Y-45815000D02*
X-142060119Y-45767380D01*
%TO.C,JP2*%
X-134466666Y-55362619D02*
X-134466666Y-56076904D01*
X-134466666Y-56076904D02*
X-134419047Y-56219761D01*
X-134419047Y-56219761D02*
X-134323809Y-56315000D01*
X-134323809Y-56315000D02*
X-134180952Y-56362619D01*
X-134180952Y-56362619D02*
X-134085714Y-56362619D01*
X-134942857Y-56362619D02*
X-134942857Y-55362619D01*
X-134942857Y-55362619D02*
X-135323809Y-55362619D01*
X-135323809Y-55362619D02*
X-135419047Y-55410238D01*
X-135419047Y-55410238D02*
X-135466666Y-55457857D01*
X-135466666Y-55457857D02*
X-135514285Y-55553095D01*
X-135514285Y-55553095D02*
X-135514285Y-55695952D01*
X-135514285Y-55695952D02*
X-135466666Y-55791190D01*
X-135466666Y-55791190D02*
X-135419047Y-55838809D01*
X-135419047Y-55838809D02*
X-135323809Y-55886428D01*
X-135323809Y-55886428D02*
X-134942857Y-55886428D01*
X-135895238Y-55457857D02*
X-135942857Y-55410238D01*
X-135942857Y-55410238D02*
X-136038095Y-55362619D01*
X-136038095Y-55362619D02*
X-136276190Y-55362619D01*
X-136276190Y-55362619D02*
X-136371428Y-55410238D01*
X-136371428Y-55410238D02*
X-136419047Y-55457857D01*
X-136419047Y-55457857D02*
X-136466666Y-55553095D01*
X-136466666Y-55553095D02*
X-136466666Y-55648333D01*
X-136466666Y-55648333D02*
X-136419047Y-55791190D01*
X-136419047Y-55791190D02*
X-135847619Y-56362619D01*
X-135847619Y-56362619D02*
X-136466666Y-56362619D01*
%TO.C,R16*%
X-131732142Y-84652619D02*
X-131398809Y-84176428D01*
X-131160714Y-84652619D02*
X-131160714Y-83652619D01*
X-131160714Y-83652619D02*
X-131541666Y-83652619D01*
X-131541666Y-83652619D02*
X-131636904Y-83700238D01*
X-131636904Y-83700238D02*
X-131684523Y-83747857D01*
X-131684523Y-83747857D02*
X-131732142Y-83843095D01*
X-131732142Y-83843095D02*
X-131732142Y-83985952D01*
X-131732142Y-83985952D02*
X-131684523Y-84081190D01*
X-131684523Y-84081190D02*
X-131636904Y-84128809D01*
X-131636904Y-84128809D02*
X-131541666Y-84176428D01*
X-131541666Y-84176428D02*
X-131160714Y-84176428D01*
X-132684523Y-84652619D02*
X-132113095Y-84652619D01*
X-132398809Y-84652619D02*
X-132398809Y-83652619D01*
X-132398809Y-83652619D02*
X-132303571Y-83795476D01*
X-132303571Y-83795476D02*
X-132208333Y-83890714D01*
X-132208333Y-83890714D02*
X-132113095Y-83938333D01*
X-133541666Y-83652619D02*
X-133351190Y-83652619D01*
X-133351190Y-83652619D02*
X-133255952Y-83700238D01*
X-133255952Y-83700238D02*
X-133208333Y-83747857D01*
X-133208333Y-83747857D02*
X-133113095Y-83890714D01*
X-133113095Y-83890714D02*
X-133065476Y-84081190D01*
X-133065476Y-84081190D02*
X-133065476Y-84462142D01*
X-133065476Y-84462142D02*
X-133113095Y-84557380D01*
X-133113095Y-84557380D02*
X-133160714Y-84605000D01*
X-133160714Y-84605000D02*
X-133255952Y-84652619D01*
X-133255952Y-84652619D02*
X-133446428Y-84652619D01*
X-133446428Y-84652619D02*
X-133541666Y-84605000D01*
X-133541666Y-84605000D02*
X-133589285Y-84557380D01*
X-133589285Y-84557380D02*
X-133636904Y-84462142D01*
X-133636904Y-84462142D02*
X-133636904Y-84224047D01*
X-133636904Y-84224047D02*
X-133589285Y-84128809D01*
X-133589285Y-84128809D02*
X-133541666Y-84081190D01*
X-133541666Y-84081190D02*
X-133446428Y-84033571D01*
X-133446428Y-84033571D02*
X-133255952Y-84033571D01*
X-133255952Y-84033571D02*
X-133160714Y-84081190D01*
X-133160714Y-84081190D02*
X-133113095Y-84128809D01*
X-133113095Y-84128809D02*
X-133065476Y-84224047D01*
%TO.C,R15*%
X-131607142Y-82637619D02*
X-131273809Y-82161428D01*
X-131035714Y-82637619D02*
X-131035714Y-81637619D01*
X-131035714Y-81637619D02*
X-131416666Y-81637619D01*
X-131416666Y-81637619D02*
X-131511904Y-81685238D01*
X-131511904Y-81685238D02*
X-131559523Y-81732857D01*
X-131559523Y-81732857D02*
X-131607142Y-81828095D01*
X-131607142Y-81828095D02*
X-131607142Y-81970952D01*
X-131607142Y-81970952D02*
X-131559523Y-82066190D01*
X-131559523Y-82066190D02*
X-131511904Y-82113809D01*
X-131511904Y-82113809D02*
X-131416666Y-82161428D01*
X-131416666Y-82161428D02*
X-131035714Y-82161428D01*
X-132559523Y-82637619D02*
X-131988095Y-82637619D01*
X-132273809Y-82637619D02*
X-132273809Y-81637619D01*
X-132273809Y-81637619D02*
X-132178571Y-81780476D01*
X-132178571Y-81780476D02*
X-132083333Y-81875714D01*
X-132083333Y-81875714D02*
X-131988095Y-81923333D01*
X-133464285Y-81637619D02*
X-132988095Y-81637619D01*
X-132988095Y-81637619D02*
X-132940476Y-82113809D01*
X-132940476Y-82113809D02*
X-132988095Y-82066190D01*
X-132988095Y-82066190D02*
X-133083333Y-82018571D01*
X-133083333Y-82018571D02*
X-133321428Y-82018571D01*
X-133321428Y-82018571D02*
X-133416666Y-82066190D01*
X-133416666Y-82066190D02*
X-133464285Y-82113809D01*
X-133464285Y-82113809D02*
X-133511904Y-82209047D01*
X-133511904Y-82209047D02*
X-133511904Y-82447142D01*
X-133511904Y-82447142D02*
X-133464285Y-82542380D01*
X-133464285Y-82542380D02*
X-133416666Y-82590000D01*
X-133416666Y-82590000D02*
X-133321428Y-82637619D01*
X-133321428Y-82637619D02*
X-133083333Y-82637619D01*
X-133083333Y-82637619D02*
X-132988095Y-82590000D01*
X-132988095Y-82590000D02*
X-132940476Y-82542380D01*
%TO.C,R14*%
X-142707142Y-72212619D02*
X-142373809Y-71736428D01*
X-142135714Y-72212619D02*
X-142135714Y-71212619D01*
X-142135714Y-71212619D02*
X-142516666Y-71212619D01*
X-142516666Y-71212619D02*
X-142611904Y-71260238D01*
X-142611904Y-71260238D02*
X-142659523Y-71307857D01*
X-142659523Y-71307857D02*
X-142707142Y-71403095D01*
X-142707142Y-71403095D02*
X-142707142Y-71545952D01*
X-142707142Y-71545952D02*
X-142659523Y-71641190D01*
X-142659523Y-71641190D02*
X-142611904Y-71688809D01*
X-142611904Y-71688809D02*
X-142516666Y-71736428D01*
X-142516666Y-71736428D02*
X-142135714Y-71736428D01*
X-143659523Y-72212619D02*
X-143088095Y-72212619D01*
X-143373809Y-72212619D02*
X-143373809Y-71212619D01*
X-143373809Y-71212619D02*
X-143278571Y-71355476D01*
X-143278571Y-71355476D02*
X-143183333Y-71450714D01*
X-143183333Y-71450714D02*
X-143088095Y-71498333D01*
X-144516666Y-71545952D02*
X-144516666Y-72212619D01*
X-144278571Y-71165000D02*
X-144040476Y-71879285D01*
X-144040476Y-71879285D02*
X-144659523Y-71879285D01*
%TO.C,R13*%
X-142607142Y-75762619D02*
X-142273809Y-75286428D01*
X-142035714Y-75762619D02*
X-142035714Y-74762619D01*
X-142035714Y-74762619D02*
X-142416666Y-74762619D01*
X-142416666Y-74762619D02*
X-142511904Y-74810238D01*
X-142511904Y-74810238D02*
X-142559523Y-74857857D01*
X-142559523Y-74857857D02*
X-142607142Y-74953095D01*
X-142607142Y-74953095D02*
X-142607142Y-75095952D01*
X-142607142Y-75095952D02*
X-142559523Y-75191190D01*
X-142559523Y-75191190D02*
X-142511904Y-75238809D01*
X-142511904Y-75238809D02*
X-142416666Y-75286428D01*
X-142416666Y-75286428D02*
X-142035714Y-75286428D01*
X-143559523Y-75762619D02*
X-142988095Y-75762619D01*
X-143273809Y-75762619D02*
X-143273809Y-74762619D01*
X-143273809Y-74762619D02*
X-143178571Y-74905476D01*
X-143178571Y-74905476D02*
X-143083333Y-75000714D01*
X-143083333Y-75000714D02*
X-142988095Y-75048333D01*
X-143892857Y-74762619D02*
X-144511904Y-74762619D01*
X-144511904Y-74762619D02*
X-144178571Y-75143571D01*
X-144178571Y-75143571D02*
X-144321428Y-75143571D01*
X-144321428Y-75143571D02*
X-144416666Y-75191190D01*
X-144416666Y-75191190D02*
X-144464285Y-75238809D01*
X-144464285Y-75238809D02*
X-144511904Y-75334047D01*
X-144511904Y-75334047D02*
X-144511904Y-75572142D01*
X-144511904Y-75572142D02*
X-144464285Y-75667380D01*
X-144464285Y-75667380D02*
X-144416666Y-75715000D01*
X-144416666Y-75715000D02*
X-144321428Y-75762619D01*
X-144321428Y-75762619D02*
X-144035714Y-75762619D01*
X-144035714Y-75762619D02*
X-143940476Y-75715000D01*
X-143940476Y-75715000D02*
X-143892857Y-75667380D01*
%TO.C,R11*%
X-151387380Y-90557142D02*
X-151863571Y-90223809D01*
X-151387380Y-89985714D02*
X-152387380Y-89985714D01*
X-152387380Y-89985714D02*
X-152387380Y-90366666D01*
X-152387380Y-90366666D02*
X-152339761Y-90461904D01*
X-152339761Y-90461904D02*
X-152292142Y-90509523D01*
X-152292142Y-90509523D02*
X-152196904Y-90557142D01*
X-152196904Y-90557142D02*
X-152054047Y-90557142D01*
X-152054047Y-90557142D02*
X-151958809Y-90509523D01*
X-151958809Y-90509523D02*
X-151911190Y-90461904D01*
X-151911190Y-90461904D02*
X-151863571Y-90366666D01*
X-151863571Y-90366666D02*
X-151863571Y-89985714D01*
X-151387380Y-91509523D02*
X-151387380Y-90938095D01*
X-151387380Y-91223809D02*
X-152387380Y-91223809D01*
X-152387380Y-91223809D02*
X-152244523Y-91128571D01*
X-152244523Y-91128571D02*
X-152149285Y-91033333D01*
X-152149285Y-91033333D02*
X-152101666Y-90938095D01*
X-151387380Y-92461904D02*
X-151387380Y-91890476D01*
X-151387380Y-92176190D02*
X-152387380Y-92176190D01*
X-152387380Y-92176190D02*
X-152244523Y-92080952D01*
X-152244523Y-92080952D02*
X-152149285Y-91985714D01*
X-152149285Y-91985714D02*
X-152101666Y-91890476D01*
%TO.C,R9*%
X-164737380Y-93633333D02*
X-165213571Y-93300000D01*
X-164737380Y-93061905D02*
X-165737380Y-93061905D01*
X-165737380Y-93061905D02*
X-165737380Y-93442857D01*
X-165737380Y-93442857D02*
X-165689761Y-93538095D01*
X-165689761Y-93538095D02*
X-165642142Y-93585714D01*
X-165642142Y-93585714D02*
X-165546904Y-93633333D01*
X-165546904Y-93633333D02*
X-165404047Y-93633333D01*
X-165404047Y-93633333D02*
X-165308809Y-93585714D01*
X-165308809Y-93585714D02*
X-165261190Y-93538095D01*
X-165261190Y-93538095D02*
X-165213571Y-93442857D01*
X-165213571Y-93442857D02*
X-165213571Y-93061905D01*
X-164737380Y-94109524D02*
X-164737380Y-94300000D01*
X-164737380Y-94300000D02*
X-164785000Y-94395238D01*
X-164785000Y-94395238D02*
X-164832619Y-94442857D01*
X-164832619Y-94442857D02*
X-164975476Y-94538095D01*
X-164975476Y-94538095D02*
X-165165952Y-94585714D01*
X-165165952Y-94585714D02*
X-165546904Y-94585714D01*
X-165546904Y-94585714D02*
X-165642142Y-94538095D01*
X-165642142Y-94538095D02*
X-165689761Y-94490476D01*
X-165689761Y-94490476D02*
X-165737380Y-94395238D01*
X-165737380Y-94395238D02*
X-165737380Y-94204762D01*
X-165737380Y-94204762D02*
X-165689761Y-94109524D01*
X-165689761Y-94109524D02*
X-165642142Y-94061905D01*
X-165642142Y-94061905D02*
X-165546904Y-94014286D01*
X-165546904Y-94014286D02*
X-165308809Y-94014286D01*
X-165308809Y-94014286D02*
X-165213571Y-94061905D01*
X-165213571Y-94061905D02*
X-165165952Y-94109524D01*
X-165165952Y-94109524D02*
X-165118333Y-94204762D01*
X-165118333Y-94204762D02*
X-165118333Y-94395238D01*
X-165118333Y-94395238D02*
X-165165952Y-94490476D01*
X-165165952Y-94490476D02*
X-165213571Y-94538095D01*
X-165213571Y-94538095D02*
X-165308809Y-94585714D01*
%TO.C,R7*%
X-165783333Y-84612619D02*
X-165450000Y-84136428D01*
X-165211905Y-84612619D02*
X-165211905Y-83612619D01*
X-165211905Y-83612619D02*
X-165592857Y-83612619D01*
X-165592857Y-83612619D02*
X-165688095Y-83660238D01*
X-165688095Y-83660238D02*
X-165735714Y-83707857D01*
X-165735714Y-83707857D02*
X-165783333Y-83803095D01*
X-165783333Y-83803095D02*
X-165783333Y-83945952D01*
X-165783333Y-83945952D02*
X-165735714Y-84041190D01*
X-165735714Y-84041190D02*
X-165688095Y-84088809D01*
X-165688095Y-84088809D02*
X-165592857Y-84136428D01*
X-165592857Y-84136428D02*
X-165211905Y-84136428D01*
X-166116667Y-83612619D02*
X-166783333Y-83612619D01*
X-166783333Y-83612619D02*
X-166354762Y-84612619D01*
%TO.C,R6*%
X-165933333Y-71962619D02*
X-165600000Y-71486428D01*
X-165361905Y-71962619D02*
X-165361905Y-70962619D01*
X-165361905Y-70962619D02*
X-165742857Y-70962619D01*
X-165742857Y-70962619D02*
X-165838095Y-71010238D01*
X-165838095Y-71010238D02*
X-165885714Y-71057857D01*
X-165885714Y-71057857D02*
X-165933333Y-71153095D01*
X-165933333Y-71153095D02*
X-165933333Y-71295952D01*
X-165933333Y-71295952D02*
X-165885714Y-71391190D01*
X-165885714Y-71391190D02*
X-165838095Y-71438809D01*
X-165838095Y-71438809D02*
X-165742857Y-71486428D01*
X-165742857Y-71486428D02*
X-165361905Y-71486428D01*
X-166790476Y-70962619D02*
X-166600000Y-70962619D01*
X-166600000Y-70962619D02*
X-166504762Y-71010238D01*
X-166504762Y-71010238D02*
X-166457143Y-71057857D01*
X-166457143Y-71057857D02*
X-166361905Y-71200714D01*
X-166361905Y-71200714D02*
X-166314286Y-71391190D01*
X-166314286Y-71391190D02*
X-166314286Y-71772142D01*
X-166314286Y-71772142D02*
X-166361905Y-71867380D01*
X-166361905Y-71867380D02*
X-166409524Y-71915000D01*
X-166409524Y-71915000D02*
X-166504762Y-71962619D01*
X-166504762Y-71962619D02*
X-166695238Y-71962619D01*
X-166695238Y-71962619D02*
X-166790476Y-71915000D01*
X-166790476Y-71915000D02*
X-166838095Y-71867380D01*
X-166838095Y-71867380D02*
X-166885714Y-71772142D01*
X-166885714Y-71772142D02*
X-166885714Y-71534047D01*
X-166885714Y-71534047D02*
X-166838095Y-71438809D01*
X-166838095Y-71438809D02*
X-166790476Y-71391190D01*
X-166790476Y-71391190D02*
X-166695238Y-71343571D01*
X-166695238Y-71343571D02*
X-166504762Y-71343571D01*
X-166504762Y-71343571D02*
X-166409524Y-71391190D01*
X-166409524Y-71391190D02*
X-166361905Y-71438809D01*
X-166361905Y-71438809D02*
X-166314286Y-71534047D01*
%TO.C,R5*%
X-161883333Y-73062619D02*
X-161550000Y-72586428D01*
X-161311905Y-73062619D02*
X-161311905Y-72062619D01*
X-161311905Y-72062619D02*
X-161692857Y-72062619D01*
X-161692857Y-72062619D02*
X-161788095Y-72110238D01*
X-161788095Y-72110238D02*
X-161835714Y-72157857D01*
X-161835714Y-72157857D02*
X-161883333Y-72253095D01*
X-161883333Y-72253095D02*
X-161883333Y-72395952D01*
X-161883333Y-72395952D02*
X-161835714Y-72491190D01*
X-161835714Y-72491190D02*
X-161788095Y-72538809D01*
X-161788095Y-72538809D02*
X-161692857Y-72586428D01*
X-161692857Y-72586428D02*
X-161311905Y-72586428D01*
X-162788095Y-72062619D02*
X-162311905Y-72062619D01*
X-162311905Y-72062619D02*
X-162264286Y-72538809D01*
X-162264286Y-72538809D02*
X-162311905Y-72491190D01*
X-162311905Y-72491190D02*
X-162407143Y-72443571D01*
X-162407143Y-72443571D02*
X-162645238Y-72443571D01*
X-162645238Y-72443571D02*
X-162740476Y-72491190D01*
X-162740476Y-72491190D02*
X-162788095Y-72538809D01*
X-162788095Y-72538809D02*
X-162835714Y-72634047D01*
X-162835714Y-72634047D02*
X-162835714Y-72872142D01*
X-162835714Y-72872142D02*
X-162788095Y-72967380D01*
X-162788095Y-72967380D02*
X-162740476Y-73015000D01*
X-162740476Y-73015000D02*
X-162645238Y-73062619D01*
X-162645238Y-73062619D02*
X-162407143Y-73062619D01*
X-162407143Y-73062619D02*
X-162311905Y-73015000D01*
X-162311905Y-73015000D02*
X-162264286Y-72967380D01*
%TO.C,R4*%
X-161933333Y-74612619D02*
X-161600000Y-74136428D01*
X-161361905Y-74612619D02*
X-161361905Y-73612619D01*
X-161361905Y-73612619D02*
X-161742857Y-73612619D01*
X-161742857Y-73612619D02*
X-161838095Y-73660238D01*
X-161838095Y-73660238D02*
X-161885714Y-73707857D01*
X-161885714Y-73707857D02*
X-161933333Y-73803095D01*
X-161933333Y-73803095D02*
X-161933333Y-73945952D01*
X-161933333Y-73945952D02*
X-161885714Y-74041190D01*
X-161885714Y-74041190D02*
X-161838095Y-74088809D01*
X-161838095Y-74088809D02*
X-161742857Y-74136428D01*
X-161742857Y-74136428D02*
X-161361905Y-74136428D01*
X-162790476Y-73945952D02*
X-162790476Y-74612619D01*
X-162552381Y-73565000D02*
X-162314286Y-74279285D01*
X-162314286Y-74279285D02*
X-162933333Y-74279285D01*
%TO.C,R2*%
X-164787380Y-90133333D02*
X-165263571Y-89800000D01*
X-164787380Y-89561905D02*
X-165787380Y-89561905D01*
X-165787380Y-89561905D02*
X-165787380Y-89942857D01*
X-165787380Y-89942857D02*
X-165739761Y-90038095D01*
X-165739761Y-90038095D02*
X-165692142Y-90085714D01*
X-165692142Y-90085714D02*
X-165596904Y-90133333D01*
X-165596904Y-90133333D02*
X-165454047Y-90133333D01*
X-165454047Y-90133333D02*
X-165358809Y-90085714D01*
X-165358809Y-90085714D02*
X-165311190Y-90038095D01*
X-165311190Y-90038095D02*
X-165263571Y-89942857D01*
X-165263571Y-89942857D02*
X-165263571Y-89561905D01*
X-165692142Y-90514286D02*
X-165739761Y-90561905D01*
X-165739761Y-90561905D02*
X-165787380Y-90657143D01*
X-165787380Y-90657143D02*
X-165787380Y-90895238D01*
X-165787380Y-90895238D02*
X-165739761Y-90990476D01*
X-165739761Y-90990476D02*
X-165692142Y-91038095D01*
X-165692142Y-91038095D02*
X-165596904Y-91085714D01*
X-165596904Y-91085714D02*
X-165501666Y-91085714D01*
X-165501666Y-91085714D02*
X-165358809Y-91038095D01*
X-165358809Y-91038095D02*
X-164787380Y-90466667D01*
X-164787380Y-90466667D02*
X-164787380Y-91085714D01*
%TO.C,R1*%
X-164887380Y-86483333D02*
X-165363571Y-86150000D01*
X-164887380Y-85911905D02*
X-165887380Y-85911905D01*
X-165887380Y-85911905D02*
X-165887380Y-86292857D01*
X-165887380Y-86292857D02*
X-165839761Y-86388095D01*
X-165839761Y-86388095D02*
X-165792142Y-86435714D01*
X-165792142Y-86435714D02*
X-165696904Y-86483333D01*
X-165696904Y-86483333D02*
X-165554047Y-86483333D01*
X-165554047Y-86483333D02*
X-165458809Y-86435714D01*
X-165458809Y-86435714D02*
X-165411190Y-86388095D01*
X-165411190Y-86388095D02*
X-165363571Y-86292857D01*
X-165363571Y-86292857D02*
X-165363571Y-85911905D01*
X-164887380Y-87435714D02*
X-164887380Y-86864286D01*
X-164887380Y-87150000D02*
X-165887380Y-87150000D01*
X-165887380Y-87150000D02*
X-165744523Y-87054762D01*
X-165744523Y-87054762D02*
X-165649285Y-86959524D01*
X-165649285Y-86959524D02*
X-165601666Y-86864286D01*
%TO.C,U8*%
X-129638095Y-70862619D02*
X-129638095Y-71672142D01*
X-129638095Y-71672142D02*
X-129685714Y-71767380D01*
X-129685714Y-71767380D02*
X-129733333Y-71815000D01*
X-129733333Y-71815000D02*
X-129828571Y-71862619D01*
X-129828571Y-71862619D02*
X-130019047Y-71862619D01*
X-130019047Y-71862619D02*
X-130114285Y-71815000D01*
X-130114285Y-71815000D02*
X-130161904Y-71767380D01*
X-130161904Y-71767380D02*
X-130209523Y-71672142D01*
X-130209523Y-71672142D02*
X-130209523Y-70862619D01*
X-130828571Y-71291190D02*
X-130733333Y-71243571D01*
X-130733333Y-71243571D02*
X-130685714Y-71195952D01*
X-130685714Y-71195952D02*
X-130638095Y-71100714D01*
X-130638095Y-71100714D02*
X-130638095Y-71053095D01*
X-130638095Y-71053095D02*
X-130685714Y-70957857D01*
X-130685714Y-70957857D02*
X-130733333Y-70910238D01*
X-130733333Y-70910238D02*
X-130828571Y-70862619D01*
X-130828571Y-70862619D02*
X-131019047Y-70862619D01*
X-131019047Y-70862619D02*
X-131114285Y-70910238D01*
X-131114285Y-70910238D02*
X-131161904Y-70957857D01*
X-131161904Y-70957857D02*
X-131209523Y-71053095D01*
X-131209523Y-71053095D02*
X-131209523Y-71100714D01*
X-131209523Y-71100714D02*
X-131161904Y-71195952D01*
X-131161904Y-71195952D02*
X-131114285Y-71243571D01*
X-131114285Y-71243571D02*
X-131019047Y-71291190D01*
X-131019047Y-71291190D02*
X-130828571Y-71291190D01*
X-130828571Y-71291190D02*
X-130733333Y-71338809D01*
X-130733333Y-71338809D02*
X-130685714Y-71386428D01*
X-130685714Y-71386428D02*
X-130638095Y-71481666D01*
X-130638095Y-71481666D02*
X-130638095Y-71672142D01*
X-130638095Y-71672142D02*
X-130685714Y-71767380D01*
X-130685714Y-71767380D02*
X-130733333Y-71815000D01*
X-130733333Y-71815000D02*
X-130828571Y-71862619D01*
X-130828571Y-71862619D02*
X-131019047Y-71862619D01*
X-131019047Y-71862619D02*
X-131114285Y-71815000D01*
X-131114285Y-71815000D02*
X-131161904Y-71767380D01*
X-131161904Y-71767380D02*
X-131209523Y-71672142D01*
X-131209523Y-71672142D02*
X-131209523Y-71481666D01*
X-131209523Y-71481666D02*
X-131161904Y-71386428D01*
X-131161904Y-71386428D02*
X-131114285Y-71338809D01*
X-131114285Y-71338809D02*
X-131019047Y-71291190D01*
%TO.C,U7*%
X-132263095Y-79912619D02*
X-132263095Y-80722142D01*
X-132263095Y-80722142D02*
X-132310714Y-80817380D01*
X-132310714Y-80817380D02*
X-132358333Y-80865000D01*
X-132358333Y-80865000D02*
X-132453571Y-80912619D01*
X-132453571Y-80912619D02*
X-132644047Y-80912619D01*
X-132644047Y-80912619D02*
X-132739285Y-80865000D01*
X-132739285Y-80865000D02*
X-132786904Y-80817380D01*
X-132786904Y-80817380D02*
X-132834523Y-80722142D01*
X-132834523Y-80722142D02*
X-132834523Y-79912619D01*
X-133215476Y-79912619D02*
X-133882142Y-79912619D01*
X-133882142Y-79912619D02*
X-133453571Y-80912619D01*
%TO.C,Q3*%
X-168904761Y-68757857D02*
X-168809523Y-68710238D01*
X-168809523Y-68710238D02*
X-168714285Y-68615000D01*
X-168714285Y-68615000D02*
X-168571428Y-68472142D01*
X-168571428Y-68472142D02*
X-168476190Y-68424523D01*
X-168476190Y-68424523D02*
X-168380952Y-68424523D01*
X-168428571Y-68662619D02*
X-168333333Y-68615000D01*
X-168333333Y-68615000D02*
X-168238095Y-68519761D01*
X-168238095Y-68519761D02*
X-168190476Y-68329285D01*
X-168190476Y-68329285D02*
X-168190476Y-67995952D01*
X-168190476Y-67995952D02*
X-168238095Y-67805476D01*
X-168238095Y-67805476D02*
X-168333333Y-67710238D01*
X-168333333Y-67710238D02*
X-168428571Y-67662619D01*
X-168428571Y-67662619D02*
X-168619047Y-67662619D01*
X-168619047Y-67662619D02*
X-168714285Y-67710238D01*
X-168714285Y-67710238D02*
X-168809523Y-67805476D01*
X-168809523Y-67805476D02*
X-168857142Y-67995952D01*
X-168857142Y-67995952D02*
X-168857142Y-68329285D01*
X-168857142Y-68329285D02*
X-168809523Y-68519761D01*
X-168809523Y-68519761D02*
X-168714285Y-68615000D01*
X-168714285Y-68615000D02*
X-168619047Y-68662619D01*
X-168619047Y-68662619D02*
X-168428571Y-68662619D01*
X-169190476Y-67662619D02*
X-169809523Y-67662619D01*
X-169809523Y-67662619D02*
X-169476190Y-68043571D01*
X-169476190Y-68043571D02*
X-169619047Y-68043571D01*
X-169619047Y-68043571D02*
X-169714285Y-68091190D01*
X-169714285Y-68091190D02*
X-169761904Y-68138809D01*
X-169761904Y-68138809D02*
X-169809523Y-68234047D01*
X-169809523Y-68234047D02*
X-169809523Y-68472142D01*
X-169809523Y-68472142D02*
X-169761904Y-68567380D01*
X-169761904Y-68567380D02*
X-169714285Y-68615000D01*
X-169714285Y-68615000D02*
X-169619047Y-68662619D01*
X-169619047Y-68662619D02*
X-169333333Y-68662619D01*
X-169333333Y-68662619D02*
X-169238095Y-68615000D01*
X-169238095Y-68615000D02*
X-169190476Y-68567380D01*
%TO.C,P2*%
X-124261905Y-75462619D02*
X-124261905Y-74462619D01*
X-124261905Y-74462619D02*
X-124642857Y-74462619D01*
X-124642857Y-74462619D02*
X-124738095Y-74510238D01*
X-124738095Y-74510238D02*
X-124785714Y-74557857D01*
X-124785714Y-74557857D02*
X-124833333Y-74653095D01*
X-124833333Y-74653095D02*
X-124833333Y-74795952D01*
X-124833333Y-74795952D02*
X-124785714Y-74891190D01*
X-124785714Y-74891190D02*
X-124738095Y-74938809D01*
X-124738095Y-74938809D02*
X-124642857Y-74986428D01*
X-124642857Y-74986428D02*
X-124261905Y-74986428D01*
X-125214286Y-74557857D02*
X-125261905Y-74510238D01*
X-125261905Y-74510238D02*
X-125357143Y-74462619D01*
X-125357143Y-74462619D02*
X-125595238Y-74462619D01*
X-125595238Y-74462619D02*
X-125690476Y-74510238D01*
X-125690476Y-74510238D02*
X-125738095Y-74557857D01*
X-125738095Y-74557857D02*
X-125785714Y-74653095D01*
X-125785714Y-74653095D02*
X-125785714Y-74748333D01*
X-125785714Y-74748333D02*
X-125738095Y-74891190D01*
X-125738095Y-74891190D02*
X-125166667Y-75462619D01*
X-125166667Y-75462619D02*
X-125785714Y-75462619D01*
%TO.C,F1*%
X-132266666Y-66738809D02*
X-131933333Y-66738809D01*
X-131933333Y-67262619D02*
X-131933333Y-66262619D01*
X-131933333Y-66262619D02*
X-132409523Y-66262619D01*
X-133314285Y-67262619D02*
X-132742857Y-67262619D01*
X-133028571Y-67262619D02*
X-133028571Y-66262619D01*
X-133028571Y-66262619D02*
X-132933333Y-66405476D01*
X-132933333Y-66405476D02*
X-132838095Y-66500714D01*
X-132838095Y-66500714D02*
X-132742857Y-66548333D01*
%TO.C,D5*%
X-125261905Y-84712619D02*
X-125261905Y-83712619D01*
X-125261905Y-83712619D02*
X-125500000Y-83712619D01*
X-125500000Y-83712619D02*
X-125642857Y-83760238D01*
X-125642857Y-83760238D02*
X-125738095Y-83855476D01*
X-125738095Y-83855476D02*
X-125785714Y-83950714D01*
X-125785714Y-83950714D02*
X-125833333Y-84141190D01*
X-125833333Y-84141190D02*
X-125833333Y-84284047D01*
X-125833333Y-84284047D02*
X-125785714Y-84474523D01*
X-125785714Y-84474523D02*
X-125738095Y-84569761D01*
X-125738095Y-84569761D02*
X-125642857Y-84665000D01*
X-125642857Y-84665000D02*
X-125500000Y-84712619D01*
X-125500000Y-84712619D02*
X-125261905Y-84712619D01*
X-126738095Y-83712619D02*
X-126261905Y-83712619D01*
X-126261905Y-83712619D02*
X-126214286Y-84188809D01*
X-126214286Y-84188809D02*
X-126261905Y-84141190D01*
X-126261905Y-84141190D02*
X-126357143Y-84093571D01*
X-126357143Y-84093571D02*
X-126595238Y-84093571D01*
X-126595238Y-84093571D02*
X-126690476Y-84141190D01*
X-126690476Y-84141190D02*
X-126738095Y-84188809D01*
X-126738095Y-84188809D02*
X-126785714Y-84284047D01*
X-126785714Y-84284047D02*
X-126785714Y-84522142D01*
X-126785714Y-84522142D02*
X-126738095Y-84617380D01*
X-126738095Y-84617380D02*
X-126690476Y-84665000D01*
X-126690476Y-84665000D02*
X-126595238Y-84712619D01*
X-126595238Y-84712619D02*
X-126357143Y-84712619D01*
X-126357143Y-84712619D02*
X-126261905Y-84665000D01*
X-126261905Y-84665000D02*
X-126214286Y-84617380D01*
%TO.C,D4*%
X-125261905Y-82712619D02*
X-125261905Y-81712619D01*
X-125261905Y-81712619D02*
X-125500000Y-81712619D01*
X-125500000Y-81712619D02*
X-125642857Y-81760238D01*
X-125642857Y-81760238D02*
X-125738095Y-81855476D01*
X-125738095Y-81855476D02*
X-125785714Y-81950714D01*
X-125785714Y-81950714D02*
X-125833333Y-82141190D01*
X-125833333Y-82141190D02*
X-125833333Y-82284047D01*
X-125833333Y-82284047D02*
X-125785714Y-82474523D01*
X-125785714Y-82474523D02*
X-125738095Y-82569761D01*
X-125738095Y-82569761D02*
X-125642857Y-82665000D01*
X-125642857Y-82665000D02*
X-125500000Y-82712619D01*
X-125500000Y-82712619D02*
X-125261905Y-82712619D01*
X-126690476Y-82045952D02*
X-126690476Y-82712619D01*
X-126452381Y-81665000D02*
X-126214286Y-82379285D01*
X-126214286Y-82379285D02*
X-126833333Y-82379285D01*
%TO.C,C19*%
X-137307142Y-74217380D02*
X-137259523Y-74265000D01*
X-137259523Y-74265000D02*
X-137116666Y-74312619D01*
X-137116666Y-74312619D02*
X-137021428Y-74312619D01*
X-137021428Y-74312619D02*
X-136878571Y-74265000D01*
X-136878571Y-74265000D02*
X-136783333Y-74169761D01*
X-136783333Y-74169761D02*
X-136735714Y-74074523D01*
X-136735714Y-74074523D02*
X-136688095Y-73884047D01*
X-136688095Y-73884047D02*
X-136688095Y-73741190D01*
X-136688095Y-73741190D02*
X-136735714Y-73550714D01*
X-136735714Y-73550714D02*
X-136783333Y-73455476D01*
X-136783333Y-73455476D02*
X-136878571Y-73360238D01*
X-136878571Y-73360238D02*
X-137021428Y-73312619D01*
X-137021428Y-73312619D02*
X-137116666Y-73312619D01*
X-137116666Y-73312619D02*
X-137259523Y-73360238D01*
X-137259523Y-73360238D02*
X-137307142Y-73407857D01*
X-138259523Y-74312619D02*
X-137688095Y-74312619D01*
X-137973809Y-74312619D02*
X-137973809Y-73312619D01*
X-137973809Y-73312619D02*
X-137878571Y-73455476D01*
X-137878571Y-73455476D02*
X-137783333Y-73550714D01*
X-137783333Y-73550714D02*
X-137688095Y-73598333D01*
X-138735714Y-74312619D02*
X-138926190Y-74312619D01*
X-138926190Y-74312619D02*
X-139021428Y-74265000D01*
X-139021428Y-74265000D02*
X-139069047Y-74217380D01*
X-139069047Y-74217380D02*
X-139164285Y-74074523D01*
X-139164285Y-74074523D02*
X-139211904Y-73884047D01*
X-139211904Y-73884047D02*
X-139211904Y-73503095D01*
X-139211904Y-73503095D02*
X-139164285Y-73407857D01*
X-139164285Y-73407857D02*
X-139116666Y-73360238D01*
X-139116666Y-73360238D02*
X-139021428Y-73312619D01*
X-139021428Y-73312619D02*
X-138830952Y-73312619D01*
X-138830952Y-73312619D02*
X-138735714Y-73360238D01*
X-138735714Y-73360238D02*
X-138688095Y-73407857D01*
X-138688095Y-73407857D02*
X-138640476Y-73503095D01*
X-138640476Y-73503095D02*
X-138640476Y-73741190D01*
X-138640476Y-73741190D02*
X-138688095Y-73836428D01*
X-138688095Y-73836428D02*
X-138735714Y-73884047D01*
X-138735714Y-73884047D02*
X-138830952Y-73931666D01*
X-138830952Y-73931666D02*
X-139021428Y-73931666D01*
X-139021428Y-73931666D02*
X-139116666Y-73884047D01*
X-139116666Y-73884047D02*
X-139164285Y-73836428D01*
X-139164285Y-73836428D02*
X-139211904Y-73741190D01*
%TO.C,C18*%
X-137357142Y-77413880D02*
X-137309523Y-77461500D01*
X-137309523Y-77461500D02*
X-137166666Y-77509119D01*
X-137166666Y-77509119D02*
X-137071428Y-77509119D01*
X-137071428Y-77509119D02*
X-136928571Y-77461500D01*
X-136928571Y-77461500D02*
X-136833333Y-77366261D01*
X-136833333Y-77366261D02*
X-136785714Y-77271023D01*
X-136785714Y-77271023D02*
X-136738095Y-77080547D01*
X-136738095Y-77080547D02*
X-136738095Y-76937690D01*
X-136738095Y-76937690D02*
X-136785714Y-76747214D01*
X-136785714Y-76747214D02*
X-136833333Y-76651976D01*
X-136833333Y-76651976D02*
X-136928571Y-76556738D01*
X-136928571Y-76556738D02*
X-137071428Y-76509119D01*
X-137071428Y-76509119D02*
X-137166666Y-76509119D01*
X-137166666Y-76509119D02*
X-137309523Y-76556738D01*
X-137309523Y-76556738D02*
X-137357142Y-76604357D01*
X-138309523Y-77509119D02*
X-137738095Y-77509119D01*
X-138023809Y-77509119D02*
X-138023809Y-76509119D01*
X-138023809Y-76509119D02*
X-137928571Y-76651976D01*
X-137928571Y-76651976D02*
X-137833333Y-76747214D01*
X-137833333Y-76747214D02*
X-137738095Y-76794833D01*
X-138880952Y-76937690D02*
X-138785714Y-76890071D01*
X-138785714Y-76890071D02*
X-138738095Y-76842452D01*
X-138738095Y-76842452D02*
X-138690476Y-76747214D01*
X-138690476Y-76747214D02*
X-138690476Y-76699595D01*
X-138690476Y-76699595D02*
X-138738095Y-76604357D01*
X-138738095Y-76604357D02*
X-138785714Y-76556738D01*
X-138785714Y-76556738D02*
X-138880952Y-76509119D01*
X-138880952Y-76509119D02*
X-139071428Y-76509119D01*
X-139071428Y-76509119D02*
X-139166666Y-76556738D01*
X-139166666Y-76556738D02*
X-139214285Y-76604357D01*
X-139214285Y-76604357D02*
X-139261904Y-76699595D01*
X-139261904Y-76699595D02*
X-139261904Y-76747214D01*
X-139261904Y-76747214D02*
X-139214285Y-76842452D01*
X-139214285Y-76842452D02*
X-139166666Y-76890071D01*
X-139166666Y-76890071D02*
X-139071428Y-76937690D01*
X-139071428Y-76937690D02*
X-138880952Y-76937690D01*
X-138880952Y-76937690D02*
X-138785714Y-76985309D01*
X-138785714Y-76985309D02*
X-138738095Y-77032928D01*
X-138738095Y-77032928D02*
X-138690476Y-77128166D01*
X-138690476Y-77128166D02*
X-138690476Y-77318642D01*
X-138690476Y-77318642D02*
X-138738095Y-77413880D01*
X-138738095Y-77413880D02*
X-138785714Y-77461500D01*
X-138785714Y-77461500D02*
X-138880952Y-77509119D01*
X-138880952Y-77509119D02*
X-139071428Y-77509119D01*
X-139071428Y-77509119D02*
X-139166666Y-77461500D01*
X-139166666Y-77461500D02*
X-139214285Y-77413880D01*
X-139214285Y-77413880D02*
X-139261904Y-77318642D01*
X-139261904Y-77318642D02*
X-139261904Y-77128166D01*
X-139261904Y-77128166D02*
X-139214285Y-77032928D01*
X-139214285Y-77032928D02*
X-139166666Y-76985309D01*
X-139166666Y-76985309D02*
X-139071428Y-76937690D01*
%TO.C,C6*%
X-162933333Y-76167380D02*
X-162885714Y-76215000D01*
X-162885714Y-76215000D02*
X-162742857Y-76262619D01*
X-162742857Y-76262619D02*
X-162647619Y-76262619D01*
X-162647619Y-76262619D02*
X-162504762Y-76215000D01*
X-162504762Y-76215000D02*
X-162409524Y-76119761D01*
X-162409524Y-76119761D02*
X-162361905Y-76024523D01*
X-162361905Y-76024523D02*
X-162314286Y-75834047D01*
X-162314286Y-75834047D02*
X-162314286Y-75691190D01*
X-162314286Y-75691190D02*
X-162361905Y-75500714D01*
X-162361905Y-75500714D02*
X-162409524Y-75405476D01*
X-162409524Y-75405476D02*
X-162504762Y-75310238D01*
X-162504762Y-75310238D02*
X-162647619Y-75262619D01*
X-162647619Y-75262619D02*
X-162742857Y-75262619D01*
X-162742857Y-75262619D02*
X-162885714Y-75310238D01*
X-162885714Y-75310238D02*
X-162933333Y-75357857D01*
X-163790476Y-75262619D02*
X-163600000Y-75262619D01*
X-163600000Y-75262619D02*
X-163504762Y-75310238D01*
X-163504762Y-75310238D02*
X-163457143Y-75357857D01*
X-163457143Y-75357857D02*
X-163361905Y-75500714D01*
X-163361905Y-75500714D02*
X-163314286Y-75691190D01*
X-163314286Y-75691190D02*
X-163314286Y-76072142D01*
X-163314286Y-76072142D02*
X-163361905Y-76167380D01*
X-163361905Y-76167380D02*
X-163409524Y-76215000D01*
X-163409524Y-76215000D02*
X-163504762Y-76262619D01*
X-163504762Y-76262619D02*
X-163695238Y-76262619D01*
X-163695238Y-76262619D02*
X-163790476Y-76215000D01*
X-163790476Y-76215000D02*
X-163838095Y-76167380D01*
X-163838095Y-76167380D02*
X-163885714Y-76072142D01*
X-163885714Y-76072142D02*
X-163885714Y-75834047D01*
X-163885714Y-75834047D02*
X-163838095Y-75738809D01*
X-163838095Y-75738809D02*
X-163790476Y-75691190D01*
X-163790476Y-75691190D02*
X-163695238Y-75643571D01*
X-163695238Y-75643571D02*
X-163504762Y-75643571D01*
X-163504762Y-75643571D02*
X-163409524Y-75691190D01*
X-163409524Y-75691190D02*
X-163361905Y-75738809D01*
X-163361905Y-75738809D02*
X-163314286Y-75834047D01*
%TO.C,C14*%
X-156907142Y-78067380D02*
X-156859523Y-78115000D01*
X-156859523Y-78115000D02*
X-156716666Y-78162619D01*
X-156716666Y-78162619D02*
X-156621428Y-78162619D01*
X-156621428Y-78162619D02*
X-156478571Y-78115000D01*
X-156478571Y-78115000D02*
X-156383333Y-78019761D01*
X-156383333Y-78019761D02*
X-156335714Y-77924523D01*
X-156335714Y-77924523D02*
X-156288095Y-77734047D01*
X-156288095Y-77734047D02*
X-156288095Y-77591190D01*
X-156288095Y-77591190D02*
X-156335714Y-77400714D01*
X-156335714Y-77400714D02*
X-156383333Y-77305476D01*
X-156383333Y-77305476D02*
X-156478571Y-77210238D01*
X-156478571Y-77210238D02*
X-156621428Y-77162619D01*
X-156621428Y-77162619D02*
X-156716666Y-77162619D01*
X-156716666Y-77162619D02*
X-156859523Y-77210238D01*
X-156859523Y-77210238D02*
X-156907142Y-77257857D01*
X-157859523Y-78162619D02*
X-157288095Y-78162619D01*
X-157573809Y-78162619D02*
X-157573809Y-77162619D01*
X-157573809Y-77162619D02*
X-157478571Y-77305476D01*
X-157478571Y-77305476D02*
X-157383333Y-77400714D01*
X-157383333Y-77400714D02*
X-157288095Y-77448333D01*
X-158716666Y-77495952D02*
X-158716666Y-78162619D01*
X-158478571Y-77115000D02*
X-158240476Y-77829285D01*
X-158240476Y-77829285D02*
X-158859523Y-77829285D01*
%TO.C,C1*%
X-131483333Y-55817380D02*
X-131435714Y-55865000D01*
X-131435714Y-55865000D02*
X-131292857Y-55912619D01*
X-131292857Y-55912619D02*
X-131197619Y-55912619D01*
X-131197619Y-55912619D02*
X-131054762Y-55865000D01*
X-131054762Y-55865000D02*
X-130959524Y-55769761D01*
X-130959524Y-55769761D02*
X-130911905Y-55674523D01*
X-130911905Y-55674523D02*
X-130864286Y-55484047D01*
X-130864286Y-55484047D02*
X-130864286Y-55341190D01*
X-130864286Y-55341190D02*
X-130911905Y-55150714D01*
X-130911905Y-55150714D02*
X-130959524Y-55055476D01*
X-130959524Y-55055476D02*
X-131054762Y-54960238D01*
X-131054762Y-54960238D02*
X-131197619Y-54912619D01*
X-131197619Y-54912619D02*
X-131292857Y-54912619D01*
X-131292857Y-54912619D02*
X-131435714Y-54960238D01*
X-131435714Y-54960238D02*
X-131483333Y-55007857D01*
X-132435714Y-55912619D02*
X-131864286Y-55912619D01*
X-132150000Y-55912619D02*
X-132150000Y-54912619D01*
X-132150000Y-54912619D02*
X-132054762Y-55055476D01*
X-132054762Y-55055476D02*
X-131959524Y-55150714D01*
X-131959524Y-55150714D02*
X-131864286Y-55198333D01*
%TO.C,U4*%
X-163238095Y-70262619D02*
X-163238095Y-71072142D01*
X-163238095Y-71072142D02*
X-163285714Y-71167380D01*
X-163285714Y-71167380D02*
X-163333333Y-71215000D01*
X-163333333Y-71215000D02*
X-163428571Y-71262619D01*
X-163428571Y-71262619D02*
X-163619047Y-71262619D01*
X-163619047Y-71262619D02*
X-163714285Y-71215000D01*
X-163714285Y-71215000D02*
X-163761904Y-71167380D01*
X-163761904Y-71167380D02*
X-163809523Y-71072142D01*
X-163809523Y-71072142D02*
X-163809523Y-70262619D01*
X-164714285Y-70595952D02*
X-164714285Y-71262619D01*
X-164476190Y-70215000D02*
X-164238095Y-70929285D01*
X-164238095Y-70929285D02*
X-164857142Y-70929285D01*
%TO.C,U5*%
X-163438095Y-104262619D02*
X-163438095Y-105072142D01*
X-163438095Y-105072142D02*
X-163485714Y-105167380D01*
X-163485714Y-105167380D02*
X-163533333Y-105215000D01*
X-163533333Y-105215000D02*
X-163628571Y-105262619D01*
X-163628571Y-105262619D02*
X-163819047Y-105262619D01*
X-163819047Y-105262619D02*
X-163914285Y-105215000D01*
X-163914285Y-105215000D02*
X-163961904Y-105167380D01*
X-163961904Y-105167380D02*
X-164009523Y-105072142D01*
X-164009523Y-105072142D02*
X-164009523Y-104262619D01*
X-164961904Y-104262619D02*
X-164485714Y-104262619D01*
X-164485714Y-104262619D02*
X-164438095Y-104738809D01*
X-164438095Y-104738809D02*
X-164485714Y-104691190D01*
X-164485714Y-104691190D02*
X-164580952Y-104643571D01*
X-164580952Y-104643571D02*
X-164819047Y-104643571D01*
X-164819047Y-104643571D02*
X-164914285Y-104691190D01*
X-164914285Y-104691190D02*
X-164961904Y-104738809D01*
X-164961904Y-104738809D02*
X-165009523Y-104834047D01*
X-165009523Y-104834047D02*
X-165009523Y-105072142D01*
X-165009523Y-105072142D02*
X-164961904Y-105167380D01*
X-164961904Y-105167380D02*
X-164914285Y-105215000D01*
X-164914285Y-105215000D02*
X-164819047Y-105262619D01*
X-164819047Y-105262619D02*
X-164580952Y-105262619D01*
X-164580952Y-105262619D02*
X-164485714Y-105215000D01*
X-164485714Y-105215000D02*
X-164438095Y-105167380D01*
%TO.C,JP6*%
X-171937380Y-85841666D02*
X-171223095Y-85841666D01*
X-171223095Y-85841666D02*
X-171080238Y-85794047D01*
X-171080238Y-85794047D02*
X-170985000Y-85698809D01*
X-170985000Y-85698809D02*
X-170937380Y-85555952D01*
X-170937380Y-85555952D02*
X-170937380Y-85460714D01*
X-170937380Y-86317857D02*
X-171937380Y-86317857D01*
X-171937380Y-86317857D02*
X-171937380Y-86698809D01*
X-171937380Y-86698809D02*
X-171889761Y-86794047D01*
X-171889761Y-86794047D02*
X-171842142Y-86841666D01*
X-171842142Y-86841666D02*
X-171746904Y-86889285D01*
X-171746904Y-86889285D02*
X-171604047Y-86889285D01*
X-171604047Y-86889285D02*
X-171508809Y-86841666D01*
X-171508809Y-86841666D02*
X-171461190Y-86794047D01*
X-171461190Y-86794047D02*
X-171413571Y-86698809D01*
X-171413571Y-86698809D02*
X-171413571Y-86317857D01*
X-171937380Y-87746428D02*
X-171937380Y-87555952D01*
X-171937380Y-87555952D02*
X-171889761Y-87460714D01*
X-171889761Y-87460714D02*
X-171842142Y-87413095D01*
X-171842142Y-87413095D02*
X-171699285Y-87317857D01*
X-171699285Y-87317857D02*
X-171508809Y-87270238D01*
X-171508809Y-87270238D02*
X-171127857Y-87270238D01*
X-171127857Y-87270238D02*
X-171032619Y-87317857D01*
X-171032619Y-87317857D02*
X-170985000Y-87365476D01*
X-170985000Y-87365476D02*
X-170937380Y-87460714D01*
X-170937380Y-87460714D02*
X-170937380Y-87651190D01*
X-170937380Y-87651190D02*
X-170985000Y-87746428D01*
X-170985000Y-87746428D02*
X-171032619Y-87794047D01*
X-171032619Y-87794047D02*
X-171127857Y-87841666D01*
X-171127857Y-87841666D02*
X-171365952Y-87841666D01*
X-171365952Y-87841666D02*
X-171461190Y-87794047D01*
X-171461190Y-87794047D02*
X-171508809Y-87746428D01*
X-171508809Y-87746428D02*
X-171556428Y-87651190D01*
X-171556428Y-87651190D02*
X-171556428Y-87460714D01*
X-171556428Y-87460714D02*
X-171508809Y-87365476D01*
X-171508809Y-87365476D02*
X-171461190Y-87317857D01*
X-171461190Y-87317857D02*
X-171365952Y-87270238D01*
%TO.C,C4*%
X-146333333Y-81617380D02*
X-146285714Y-81665000D01*
X-146285714Y-81665000D02*
X-146142857Y-81712619D01*
X-146142857Y-81712619D02*
X-146047619Y-81712619D01*
X-146047619Y-81712619D02*
X-145904762Y-81665000D01*
X-145904762Y-81665000D02*
X-145809524Y-81569761D01*
X-145809524Y-81569761D02*
X-145761905Y-81474523D01*
X-145761905Y-81474523D02*
X-145714286Y-81284047D01*
X-145714286Y-81284047D02*
X-145714286Y-81141190D01*
X-145714286Y-81141190D02*
X-145761905Y-80950714D01*
X-145761905Y-80950714D02*
X-145809524Y-80855476D01*
X-145809524Y-80855476D02*
X-145904762Y-80760238D01*
X-145904762Y-80760238D02*
X-146047619Y-80712619D01*
X-146047619Y-80712619D02*
X-146142857Y-80712619D01*
X-146142857Y-80712619D02*
X-146285714Y-80760238D01*
X-146285714Y-80760238D02*
X-146333333Y-80807857D01*
X-147190476Y-81045952D02*
X-147190476Y-81712619D01*
X-146952381Y-80665000D02*
X-146714286Y-81379285D01*
X-146714286Y-81379285D02*
X-147333333Y-81379285D01*
%TO.C,U1*%
X-150088095Y-67412619D02*
X-150088095Y-68222142D01*
X-150088095Y-68222142D02*
X-150135714Y-68317380D01*
X-150135714Y-68317380D02*
X-150183333Y-68365000D01*
X-150183333Y-68365000D02*
X-150278571Y-68412619D01*
X-150278571Y-68412619D02*
X-150469047Y-68412619D01*
X-150469047Y-68412619D02*
X-150564285Y-68365000D01*
X-150564285Y-68365000D02*
X-150611904Y-68317380D01*
X-150611904Y-68317380D02*
X-150659523Y-68222142D01*
X-150659523Y-68222142D02*
X-150659523Y-67412619D01*
X-151659523Y-68412619D02*
X-151088095Y-68412619D01*
X-151373809Y-68412619D02*
X-151373809Y-67412619D01*
X-151373809Y-67412619D02*
X-151278571Y-67555476D01*
X-151278571Y-67555476D02*
X-151183333Y-67650714D01*
X-151183333Y-67650714D02*
X-151088095Y-67698333D01*
%TO.C,JP4*%
X-171937380Y-92966666D02*
X-171223095Y-92966666D01*
X-171223095Y-92966666D02*
X-171080238Y-92919047D01*
X-171080238Y-92919047D02*
X-170985000Y-92823809D01*
X-170985000Y-92823809D02*
X-170937380Y-92680952D01*
X-170937380Y-92680952D02*
X-170937380Y-92585714D01*
X-170937380Y-93442857D02*
X-171937380Y-93442857D01*
X-171937380Y-93442857D02*
X-171937380Y-93823809D01*
X-171937380Y-93823809D02*
X-171889761Y-93919047D01*
X-171889761Y-93919047D02*
X-171842142Y-93966666D01*
X-171842142Y-93966666D02*
X-171746904Y-94014285D01*
X-171746904Y-94014285D02*
X-171604047Y-94014285D01*
X-171604047Y-94014285D02*
X-171508809Y-93966666D01*
X-171508809Y-93966666D02*
X-171461190Y-93919047D01*
X-171461190Y-93919047D02*
X-171413571Y-93823809D01*
X-171413571Y-93823809D02*
X-171413571Y-93442857D01*
X-171604047Y-94871428D02*
X-170937380Y-94871428D01*
X-171985000Y-94633333D02*
X-171270714Y-94395238D01*
X-171270714Y-94395238D02*
X-171270714Y-95014285D01*
%TO.C,C12*%
X-164607142Y-102867380D02*
X-164559523Y-102915000D01*
X-164559523Y-102915000D02*
X-164416666Y-102962619D01*
X-164416666Y-102962619D02*
X-164321428Y-102962619D01*
X-164321428Y-102962619D02*
X-164178571Y-102915000D01*
X-164178571Y-102915000D02*
X-164083333Y-102819761D01*
X-164083333Y-102819761D02*
X-164035714Y-102724523D01*
X-164035714Y-102724523D02*
X-163988095Y-102534047D01*
X-163988095Y-102534047D02*
X-163988095Y-102391190D01*
X-163988095Y-102391190D02*
X-164035714Y-102200714D01*
X-164035714Y-102200714D02*
X-164083333Y-102105476D01*
X-164083333Y-102105476D02*
X-164178571Y-102010238D01*
X-164178571Y-102010238D02*
X-164321428Y-101962619D01*
X-164321428Y-101962619D02*
X-164416666Y-101962619D01*
X-164416666Y-101962619D02*
X-164559523Y-102010238D01*
X-164559523Y-102010238D02*
X-164607142Y-102057857D01*
X-165559523Y-102962619D02*
X-164988095Y-102962619D01*
X-165273809Y-102962619D02*
X-165273809Y-101962619D01*
X-165273809Y-101962619D02*
X-165178571Y-102105476D01*
X-165178571Y-102105476D02*
X-165083333Y-102200714D01*
X-165083333Y-102200714D02*
X-164988095Y-102248333D01*
X-165940476Y-102057857D02*
X-165988095Y-102010238D01*
X-165988095Y-102010238D02*
X-166083333Y-101962619D01*
X-166083333Y-101962619D02*
X-166321428Y-101962619D01*
X-166321428Y-101962619D02*
X-166416666Y-102010238D01*
X-166416666Y-102010238D02*
X-166464285Y-102057857D01*
X-166464285Y-102057857D02*
X-166511904Y-102153095D01*
X-166511904Y-102153095D02*
X-166511904Y-102248333D01*
X-166511904Y-102248333D02*
X-166464285Y-102391190D01*
X-166464285Y-102391190D02*
X-165892857Y-102962619D01*
X-165892857Y-102962619D02*
X-166511904Y-102962619D01*
%TO.C,C2*%
X-131483333Y-54067380D02*
X-131435714Y-54115000D01*
X-131435714Y-54115000D02*
X-131292857Y-54162619D01*
X-131292857Y-54162619D02*
X-131197619Y-54162619D01*
X-131197619Y-54162619D02*
X-131054762Y-54115000D01*
X-131054762Y-54115000D02*
X-130959524Y-54019761D01*
X-130959524Y-54019761D02*
X-130911905Y-53924523D01*
X-130911905Y-53924523D02*
X-130864286Y-53734047D01*
X-130864286Y-53734047D02*
X-130864286Y-53591190D01*
X-130864286Y-53591190D02*
X-130911905Y-53400714D01*
X-130911905Y-53400714D02*
X-130959524Y-53305476D01*
X-130959524Y-53305476D02*
X-131054762Y-53210238D01*
X-131054762Y-53210238D02*
X-131197619Y-53162619D01*
X-131197619Y-53162619D02*
X-131292857Y-53162619D01*
X-131292857Y-53162619D02*
X-131435714Y-53210238D01*
X-131435714Y-53210238D02*
X-131483333Y-53257857D01*
X-131864286Y-53257857D02*
X-131911905Y-53210238D01*
X-131911905Y-53210238D02*
X-132007143Y-53162619D01*
X-132007143Y-53162619D02*
X-132245238Y-53162619D01*
X-132245238Y-53162619D02*
X-132340476Y-53210238D01*
X-132340476Y-53210238D02*
X-132388095Y-53257857D01*
X-132388095Y-53257857D02*
X-132435714Y-53353095D01*
X-132435714Y-53353095D02*
X-132435714Y-53448333D01*
X-132435714Y-53448333D02*
X-132388095Y-53591190D01*
X-132388095Y-53591190D02*
X-131816667Y-54162619D01*
X-131816667Y-54162619D02*
X-132435714Y-54162619D01*
%TO.C,C9*%
X-159933333Y-70617380D02*
X-159885714Y-70665000D01*
X-159885714Y-70665000D02*
X-159742857Y-70712619D01*
X-159742857Y-70712619D02*
X-159647619Y-70712619D01*
X-159647619Y-70712619D02*
X-159504762Y-70665000D01*
X-159504762Y-70665000D02*
X-159409524Y-70569761D01*
X-159409524Y-70569761D02*
X-159361905Y-70474523D01*
X-159361905Y-70474523D02*
X-159314286Y-70284047D01*
X-159314286Y-70284047D02*
X-159314286Y-70141190D01*
X-159314286Y-70141190D02*
X-159361905Y-69950714D01*
X-159361905Y-69950714D02*
X-159409524Y-69855476D01*
X-159409524Y-69855476D02*
X-159504762Y-69760238D01*
X-159504762Y-69760238D02*
X-159647619Y-69712619D01*
X-159647619Y-69712619D02*
X-159742857Y-69712619D01*
X-159742857Y-69712619D02*
X-159885714Y-69760238D01*
X-159885714Y-69760238D02*
X-159933333Y-69807857D01*
X-160409524Y-70712619D02*
X-160600000Y-70712619D01*
X-160600000Y-70712619D02*
X-160695238Y-70665000D01*
X-160695238Y-70665000D02*
X-160742857Y-70617380D01*
X-160742857Y-70617380D02*
X-160838095Y-70474523D01*
X-160838095Y-70474523D02*
X-160885714Y-70284047D01*
X-160885714Y-70284047D02*
X-160885714Y-69903095D01*
X-160885714Y-69903095D02*
X-160838095Y-69807857D01*
X-160838095Y-69807857D02*
X-160790476Y-69760238D01*
X-160790476Y-69760238D02*
X-160695238Y-69712619D01*
X-160695238Y-69712619D02*
X-160504762Y-69712619D01*
X-160504762Y-69712619D02*
X-160409524Y-69760238D01*
X-160409524Y-69760238D02*
X-160361905Y-69807857D01*
X-160361905Y-69807857D02*
X-160314286Y-69903095D01*
X-160314286Y-69903095D02*
X-160314286Y-70141190D01*
X-160314286Y-70141190D02*
X-160361905Y-70236428D01*
X-160361905Y-70236428D02*
X-160409524Y-70284047D01*
X-160409524Y-70284047D02*
X-160504762Y-70331666D01*
X-160504762Y-70331666D02*
X-160695238Y-70331666D01*
X-160695238Y-70331666D02*
X-160790476Y-70284047D01*
X-160790476Y-70284047D02*
X-160838095Y-70236428D01*
X-160838095Y-70236428D02*
X-160885714Y-70141190D01*
%TO.C,C13*%
X-151982619Y-63007142D02*
X-151935000Y-62959523D01*
X-151935000Y-62959523D02*
X-151887380Y-62816666D01*
X-151887380Y-62816666D02*
X-151887380Y-62721428D01*
X-151887380Y-62721428D02*
X-151935000Y-62578571D01*
X-151935000Y-62578571D02*
X-152030238Y-62483333D01*
X-152030238Y-62483333D02*
X-152125476Y-62435714D01*
X-152125476Y-62435714D02*
X-152315952Y-62388095D01*
X-152315952Y-62388095D02*
X-152458809Y-62388095D01*
X-152458809Y-62388095D02*
X-152649285Y-62435714D01*
X-152649285Y-62435714D02*
X-152744523Y-62483333D01*
X-152744523Y-62483333D02*
X-152839761Y-62578571D01*
X-152839761Y-62578571D02*
X-152887380Y-62721428D01*
X-152887380Y-62721428D02*
X-152887380Y-62816666D01*
X-152887380Y-62816666D02*
X-152839761Y-62959523D01*
X-152839761Y-62959523D02*
X-152792142Y-63007142D01*
X-151887380Y-63959523D02*
X-151887380Y-63388095D01*
X-151887380Y-63673809D02*
X-152887380Y-63673809D01*
X-152887380Y-63673809D02*
X-152744523Y-63578571D01*
X-152744523Y-63578571D02*
X-152649285Y-63483333D01*
X-152649285Y-63483333D02*
X-152601666Y-63388095D01*
X-152887380Y-64292857D02*
X-152887380Y-64911904D01*
X-152887380Y-64911904D02*
X-152506428Y-64578571D01*
X-152506428Y-64578571D02*
X-152506428Y-64721428D01*
X-152506428Y-64721428D02*
X-152458809Y-64816666D01*
X-152458809Y-64816666D02*
X-152411190Y-64864285D01*
X-152411190Y-64864285D02*
X-152315952Y-64911904D01*
X-152315952Y-64911904D02*
X-152077857Y-64911904D01*
X-152077857Y-64911904D02*
X-151982619Y-64864285D01*
X-151982619Y-64864285D02*
X-151935000Y-64816666D01*
X-151935000Y-64816666D02*
X-151887380Y-64721428D01*
X-151887380Y-64721428D02*
X-151887380Y-64435714D01*
X-151887380Y-64435714D02*
X-151935000Y-64340476D01*
X-151935000Y-64340476D02*
X-151982619Y-64292857D01*
%TO.C,C5*%
X-167583333Y-102867380D02*
X-167535714Y-102915000D01*
X-167535714Y-102915000D02*
X-167392857Y-102962619D01*
X-167392857Y-102962619D02*
X-167297619Y-102962619D01*
X-167297619Y-102962619D02*
X-167154762Y-102915000D01*
X-167154762Y-102915000D02*
X-167059524Y-102819761D01*
X-167059524Y-102819761D02*
X-167011905Y-102724523D01*
X-167011905Y-102724523D02*
X-166964286Y-102534047D01*
X-166964286Y-102534047D02*
X-166964286Y-102391190D01*
X-166964286Y-102391190D02*
X-167011905Y-102200714D01*
X-167011905Y-102200714D02*
X-167059524Y-102105476D01*
X-167059524Y-102105476D02*
X-167154762Y-102010238D01*
X-167154762Y-102010238D02*
X-167297619Y-101962619D01*
X-167297619Y-101962619D02*
X-167392857Y-101962619D01*
X-167392857Y-101962619D02*
X-167535714Y-102010238D01*
X-167535714Y-102010238D02*
X-167583333Y-102057857D01*
X-168488095Y-101962619D02*
X-168011905Y-101962619D01*
X-168011905Y-101962619D02*
X-167964286Y-102438809D01*
X-167964286Y-102438809D02*
X-168011905Y-102391190D01*
X-168011905Y-102391190D02*
X-168107143Y-102343571D01*
X-168107143Y-102343571D02*
X-168345238Y-102343571D01*
X-168345238Y-102343571D02*
X-168440476Y-102391190D01*
X-168440476Y-102391190D02*
X-168488095Y-102438809D01*
X-168488095Y-102438809D02*
X-168535714Y-102534047D01*
X-168535714Y-102534047D02*
X-168535714Y-102772142D01*
X-168535714Y-102772142D02*
X-168488095Y-102867380D01*
X-168488095Y-102867380D02*
X-168440476Y-102915000D01*
X-168440476Y-102915000D02*
X-168345238Y-102962619D01*
X-168345238Y-102962619D02*
X-168107143Y-102962619D01*
X-168107143Y-102962619D02*
X-168011905Y-102915000D01*
X-168011905Y-102915000D02*
X-167964286Y-102867380D01*
%TO.C,SW2*%
X-168335000Y-80416667D02*
X-168287380Y-80559524D01*
X-168287380Y-80559524D02*
X-168287380Y-80797619D01*
X-168287380Y-80797619D02*
X-168335000Y-80892857D01*
X-168335000Y-80892857D02*
X-168382619Y-80940476D01*
X-168382619Y-80940476D02*
X-168477857Y-80988095D01*
X-168477857Y-80988095D02*
X-168573095Y-80988095D01*
X-168573095Y-80988095D02*
X-168668333Y-80940476D01*
X-168668333Y-80940476D02*
X-168715952Y-80892857D01*
X-168715952Y-80892857D02*
X-168763571Y-80797619D01*
X-168763571Y-80797619D02*
X-168811190Y-80607143D01*
X-168811190Y-80607143D02*
X-168858809Y-80511905D01*
X-168858809Y-80511905D02*
X-168906428Y-80464286D01*
X-168906428Y-80464286D02*
X-169001666Y-80416667D01*
X-169001666Y-80416667D02*
X-169096904Y-80416667D01*
X-169096904Y-80416667D02*
X-169192142Y-80464286D01*
X-169192142Y-80464286D02*
X-169239761Y-80511905D01*
X-169239761Y-80511905D02*
X-169287380Y-80607143D01*
X-169287380Y-80607143D02*
X-169287380Y-80845238D01*
X-169287380Y-80845238D02*
X-169239761Y-80988095D01*
X-169287380Y-81321429D02*
X-168287380Y-81559524D01*
X-168287380Y-81559524D02*
X-169001666Y-81750000D01*
X-169001666Y-81750000D02*
X-168287380Y-81940476D01*
X-168287380Y-81940476D02*
X-169287380Y-82178572D01*
X-169192142Y-82511905D02*
X-169239761Y-82559524D01*
X-169239761Y-82559524D02*
X-169287380Y-82654762D01*
X-169287380Y-82654762D02*
X-169287380Y-82892857D01*
X-169287380Y-82892857D02*
X-169239761Y-82988095D01*
X-169239761Y-82988095D02*
X-169192142Y-83035714D01*
X-169192142Y-83035714D02*
X-169096904Y-83083333D01*
X-169096904Y-83083333D02*
X-169001666Y-83083333D01*
X-169001666Y-83083333D02*
X-168858809Y-83035714D01*
X-168858809Y-83035714D02*
X-168287380Y-82464286D01*
X-168287380Y-82464286D02*
X-168287380Y-83083333D01*
%TO.C,C7*%
X-148533333Y-81617380D02*
X-148485714Y-81665000D01*
X-148485714Y-81665000D02*
X-148342857Y-81712619D01*
X-148342857Y-81712619D02*
X-148247619Y-81712619D01*
X-148247619Y-81712619D02*
X-148104762Y-81665000D01*
X-148104762Y-81665000D02*
X-148009524Y-81569761D01*
X-148009524Y-81569761D02*
X-147961905Y-81474523D01*
X-147961905Y-81474523D02*
X-147914286Y-81284047D01*
X-147914286Y-81284047D02*
X-147914286Y-81141190D01*
X-147914286Y-81141190D02*
X-147961905Y-80950714D01*
X-147961905Y-80950714D02*
X-148009524Y-80855476D01*
X-148009524Y-80855476D02*
X-148104762Y-80760238D01*
X-148104762Y-80760238D02*
X-148247619Y-80712619D01*
X-148247619Y-80712619D02*
X-148342857Y-80712619D01*
X-148342857Y-80712619D02*
X-148485714Y-80760238D01*
X-148485714Y-80760238D02*
X-148533333Y-80807857D01*
X-148866667Y-80712619D02*
X-149533333Y-80712619D01*
X-149533333Y-80712619D02*
X-149104762Y-81712619D01*
%TO.C,JP5*%
X-171937380Y-89441666D02*
X-171223095Y-89441666D01*
X-171223095Y-89441666D02*
X-171080238Y-89394047D01*
X-171080238Y-89394047D02*
X-170985000Y-89298809D01*
X-170985000Y-89298809D02*
X-170937380Y-89155952D01*
X-170937380Y-89155952D02*
X-170937380Y-89060714D01*
X-170937380Y-89917857D02*
X-171937380Y-89917857D01*
X-171937380Y-89917857D02*
X-171937380Y-90298809D01*
X-171937380Y-90298809D02*
X-171889761Y-90394047D01*
X-171889761Y-90394047D02*
X-171842142Y-90441666D01*
X-171842142Y-90441666D02*
X-171746904Y-90489285D01*
X-171746904Y-90489285D02*
X-171604047Y-90489285D01*
X-171604047Y-90489285D02*
X-171508809Y-90441666D01*
X-171508809Y-90441666D02*
X-171461190Y-90394047D01*
X-171461190Y-90394047D02*
X-171413571Y-90298809D01*
X-171413571Y-90298809D02*
X-171413571Y-89917857D01*
X-171937380Y-91394047D02*
X-171937380Y-90917857D01*
X-171937380Y-90917857D02*
X-171461190Y-90870238D01*
X-171461190Y-90870238D02*
X-171508809Y-90917857D01*
X-171508809Y-90917857D02*
X-171556428Y-91013095D01*
X-171556428Y-91013095D02*
X-171556428Y-91251190D01*
X-171556428Y-91251190D02*
X-171508809Y-91346428D01*
X-171508809Y-91346428D02*
X-171461190Y-91394047D01*
X-171461190Y-91394047D02*
X-171365952Y-91441666D01*
X-171365952Y-91441666D02*
X-171127857Y-91441666D01*
X-171127857Y-91441666D02*
X-171032619Y-91394047D01*
X-171032619Y-91394047D02*
X-170985000Y-91346428D01*
X-170985000Y-91346428D02*
X-170937380Y-91251190D01*
X-170937380Y-91251190D02*
X-170937380Y-91013095D01*
X-170937380Y-91013095D02*
X-170985000Y-90917857D01*
X-170985000Y-90917857D02*
X-171032619Y-90870238D01*
%TO.C,C16*%
X-153832619Y-63007142D02*
X-153785000Y-62959523D01*
X-153785000Y-62959523D02*
X-153737380Y-62816666D01*
X-153737380Y-62816666D02*
X-153737380Y-62721428D01*
X-153737380Y-62721428D02*
X-153785000Y-62578571D01*
X-153785000Y-62578571D02*
X-153880238Y-62483333D01*
X-153880238Y-62483333D02*
X-153975476Y-62435714D01*
X-153975476Y-62435714D02*
X-154165952Y-62388095D01*
X-154165952Y-62388095D02*
X-154308809Y-62388095D01*
X-154308809Y-62388095D02*
X-154499285Y-62435714D01*
X-154499285Y-62435714D02*
X-154594523Y-62483333D01*
X-154594523Y-62483333D02*
X-154689761Y-62578571D01*
X-154689761Y-62578571D02*
X-154737380Y-62721428D01*
X-154737380Y-62721428D02*
X-154737380Y-62816666D01*
X-154737380Y-62816666D02*
X-154689761Y-62959523D01*
X-154689761Y-62959523D02*
X-154642142Y-63007142D01*
X-153737380Y-63959523D02*
X-153737380Y-63388095D01*
X-153737380Y-63673809D02*
X-154737380Y-63673809D01*
X-154737380Y-63673809D02*
X-154594523Y-63578571D01*
X-154594523Y-63578571D02*
X-154499285Y-63483333D01*
X-154499285Y-63483333D02*
X-154451666Y-63388095D01*
X-154737380Y-64816666D02*
X-154737380Y-64626190D01*
X-154737380Y-64626190D02*
X-154689761Y-64530952D01*
X-154689761Y-64530952D02*
X-154642142Y-64483333D01*
X-154642142Y-64483333D02*
X-154499285Y-64388095D01*
X-154499285Y-64388095D02*
X-154308809Y-64340476D01*
X-154308809Y-64340476D02*
X-153927857Y-64340476D01*
X-153927857Y-64340476D02*
X-153832619Y-64388095D01*
X-153832619Y-64388095D02*
X-153785000Y-64435714D01*
X-153785000Y-64435714D02*
X-153737380Y-64530952D01*
X-153737380Y-64530952D02*
X-153737380Y-64721428D01*
X-153737380Y-64721428D02*
X-153785000Y-64816666D01*
X-153785000Y-64816666D02*
X-153832619Y-64864285D01*
X-153832619Y-64864285D02*
X-153927857Y-64911904D01*
X-153927857Y-64911904D02*
X-154165952Y-64911904D01*
X-154165952Y-64911904D02*
X-154261190Y-64864285D01*
X-154261190Y-64864285D02*
X-154308809Y-64816666D01*
X-154308809Y-64816666D02*
X-154356428Y-64721428D01*
X-154356428Y-64721428D02*
X-154356428Y-64530952D01*
X-154356428Y-64530952D02*
X-154308809Y-64435714D01*
X-154308809Y-64435714D02*
X-154261190Y-64388095D01*
X-154261190Y-64388095D02*
X-154165952Y-64340476D01*
%TO.C,SW1*%
X-168160000Y-73766667D02*
X-168112380Y-73909524D01*
X-168112380Y-73909524D02*
X-168112380Y-74147619D01*
X-168112380Y-74147619D02*
X-168160000Y-74242857D01*
X-168160000Y-74242857D02*
X-168207619Y-74290476D01*
X-168207619Y-74290476D02*
X-168302857Y-74338095D01*
X-168302857Y-74338095D02*
X-168398095Y-74338095D01*
X-168398095Y-74338095D02*
X-168493333Y-74290476D01*
X-168493333Y-74290476D02*
X-168540952Y-74242857D01*
X-168540952Y-74242857D02*
X-168588571Y-74147619D01*
X-168588571Y-74147619D02*
X-168636190Y-73957143D01*
X-168636190Y-73957143D02*
X-168683809Y-73861905D01*
X-168683809Y-73861905D02*
X-168731428Y-73814286D01*
X-168731428Y-73814286D02*
X-168826666Y-73766667D01*
X-168826666Y-73766667D02*
X-168921904Y-73766667D01*
X-168921904Y-73766667D02*
X-169017142Y-73814286D01*
X-169017142Y-73814286D02*
X-169064761Y-73861905D01*
X-169064761Y-73861905D02*
X-169112380Y-73957143D01*
X-169112380Y-73957143D02*
X-169112380Y-74195238D01*
X-169112380Y-74195238D02*
X-169064761Y-74338095D01*
X-169112380Y-74671429D02*
X-168112380Y-74909524D01*
X-168112380Y-74909524D02*
X-168826666Y-75100000D01*
X-168826666Y-75100000D02*
X-168112380Y-75290476D01*
X-168112380Y-75290476D02*
X-169112380Y-75528572D01*
X-168112380Y-76433333D02*
X-168112380Y-75861905D01*
X-168112380Y-76147619D02*
X-169112380Y-76147619D01*
X-169112380Y-76147619D02*
X-168969523Y-76052381D01*
X-168969523Y-76052381D02*
X-168874285Y-75957143D01*
X-168874285Y-75957143D02*
X-168826666Y-75861905D01*
%TO.C,C3*%
X-165833333Y-77517380D02*
X-165785714Y-77565000D01*
X-165785714Y-77565000D02*
X-165642857Y-77612619D01*
X-165642857Y-77612619D02*
X-165547619Y-77612619D01*
X-165547619Y-77612619D02*
X-165404762Y-77565000D01*
X-165404762Y-77565000D02*
X-165309524Y-77469761D01*
X-165309524Y-77469761D02*
X-165261905Y-77374523D01*
X-165261905Y-77374523D02*
X-165214286Y-77184047D01*
X-165214286Y-77184047D02*
X-165214286Y-77041190D01*
X-165214286Y-77041190D02*
X-165261905Y-76850714D01*
X-165261905Y-76850714D02*
X-165309524Y-76755476D01*
X-165309524Y-76755476D02*
X-165404762Y-76660238D01*
X-165404762Y-76660238D02*
X-165547619Y-76612619D01*
X-165547619Y-76612619D02*
X-165642857Y-76612619D01*
X-165642857Y-76612619D02*
X-165785714Y-76660238D01*
X-165785714Y-76660238D02*
X-165833333Y-76707857D01*
X-166166667Y-76612619D02*
X-166785714Y-76612619D01*
X-166785714Y-76612619D02*
X-166452381Y-76993571D01*
X-166452381Y-76993571D02*
X-166595238Y-76993571D01*
X-166595238Y-76993571D02*
X-166690476Y-77041190D01*
X-166690476Y-77041190D02*
X-166738095Y-77088809D01*
X-166738095Y-77088809D02*
X-166785714Y-77184047D01*
X-166785714Y-77184047D02*
X-166785714Y-77422142D01*
X-166785714Y-77422142D02*
X-166738095Y-77517380D01*
X-166738095Y-77517380D02*
X-166690476Y-77565000D01*
X-166690476Y-77565000D02*
X-166595238Y-77612619D01*
X-166595238Y-77612619D02*
X-166309524Y-77612619D01*
X-166309524Y-77612619D02*
X-166214286Y-77565000D01*
X-166214286Y-77565000D02*
X-166166667Y-77517380D01*
D12*
%TO.C,J4*%
X-145316666Y-57362619D02*
X-145316666Y-58076904D01*
X-145316666Y-58076904D02*
X-145269047Y-58219761D01*
X-145269047Y-58219761D02*
X-145173809Y-58315000D01*
X-145173809Y-58315000D02*
X-145030952Y-58362619D01*
X-145030952Y-58362619D02*
X-144935714Y-58362619D01*
X-146221428Y-57695952D02*
X-146221428Y-58362619D01*
X-145983333Y-57315000D02*
X-145745238Y-58029285D01*
X-145745238Y-58029285D02*
X-146364285Y-58029285D01*
D10*
%TO.C,C8*%
X-158307619Y-70283333D02*
X-158260000Y-70235714D01*
X-158260000Y-70235714D02*
X-158212380Y-70092857D01*
X-158212380Y-70092857D02*
X-158212380Y-69997619D01*
X-158212380Y-69997619D02*
X-158260000Y-69854762D01*
X-158260000Y-69854762D02*
X-158355238Y-69759524D01*
X-158355238Y-69759524D02*
X-158450476Y-69711905D01*
X-158450476Y-69711905D02*
X-158640952Y-69664286D01*
X-158640952Y-69664286D02*
X-158783809Y-69664286D01*
X-158783809Y-69664286D02*
X-158974285Y-69711905D01*
X-158974285Y-69711905D02*
X-159069523Y-69759524D01*
X-159069523Y-69759524D02*
X-159164761Y-69854762D01*
X-159164761Y-69854762D02*
X-159212380Y-69997619D01*
X-159212380Y-69997619D02*
X-159212380Y-70092857D01*
X-159212380Y-70092857D02*
X-159164761Y-70235714D01*
X-159164761Y-70235714D02*
X-159117142Y-70283333D01*
X-158783809Y-70854762D02*
X-158831428Y-70759524D01*
X-158831428Y-70759524D02*
X-158879047Y-70711905D01*
X-158879047Y-70711905D02*
X-158974285Y-70664286D01*
X-158974285Y-70664286D02*
X-159021904Y-70664286D01*
X-159021904Y-70664286D02*
X-159117142Y-70711905D01*
X-159117142Y-70711905D02*
X-159164761Y-70759524D01*
X-159164761Y-70759524D02*
X-159212380Y-70854762D01*
X-159212380Y-70854762D02*
X-159212380Y-71045238D01*
X-159212380Y-71045238D02*
X-159164761Y-71140476D01*
X-159164761Y-71140476D02*
X-159117142Y-71188095D01*
X-159117142Y-71188095D02*
X-159021904Y-71235714D01*
X-159021904Y-71235714D02*
X-158974285Y-71235714D01*
X-158974285Y-71235714D02*
X-158879047Y-71188095D01*
X-158879047Y-71188095D02*
X-158831428Y-71140476D01*
X-158831428Y-71140476D02*
X-158783809Y-71045238D01*
X-158783809Y-71045238D02*
X-158783809Y-70854762D01*
X-158783809Y-70854762D02*
X-158736190Y-70759524D01*
X-158736190Y-70759524D02*
X-158688571Y-70711905D01*
X-158688571Y-70711905D02*
X-158593333Y-70664286D01*
X-158593333Y-70664286D02*
X-158402857Y-70664286D01*
X-158402857Y-70664286D02*
X-158307619Y-70711905D01*
X-158307619Y-70711905D02*
X-158260000Y-70759524D01*
X-158260000Y-70759524D02*
X-158212380Y-70854762D01*
X-158212380Y-70854762D02*
X-158212380Y-71045238D01*
X-158212380Y-71045238D02*
X-158260000Y-71140476D01*
X-158260000Y-71140476D02*
X-158307619Y-71188095D01*
X-158307619Y-71188095D02*
X-158402857Y-71235714D01*
X-158402857Y-71235714D02*
X-158593333Y-71235714D01*
X-158593333Y-71235714D02*
X-158688571Y-71188095D01*
X-158688571Y-71188095D02*
X-158736190Y-71140476D01*
X-158736190Y-71140476D02*
X-158783809Y-71045238D01*
%TO.C,U3*%
X-125488095Y-55762619D02*
X-125488095Y-56572142D01*
X-125488095Y-56572142D02*
X-125535714Y-56667380D01*
X-125535714Y-56667380D02*
X-125583333Y-56715000D01*
X-125583333Y-56715000D02*
X-125678571Y-56762619D01*
X-125678571Y-56762619D02*
X-125869047Y-56762619D01*
X-125869047Y-56762619D02*
X-125964285Y-56715000D01*
X-125964285Y-56715000D02*
X-126011904Y-56667380D01*
X-126011904Y-56667380D02*
X-126059523Y-56572142D01*
X-126059523Y-56572142D02*
X-126059523Y-55762619D01*
X-126440476Y-55762619D02*
X-127059523Y-55762619D01*
X-127059523Y-55762619D02*
X-126726190Y-56143571D01*
X-126726190Y-56143571D02*
X-126869047Y-56143571D01*
X-126869047Y-56143571D02*
X-126964285Y-56191190D01*
X-126964285Y-56191190D02*
X-127011904Y-56238809D01*
X-127011904Y-56238809D02*
X-127059523Y-56334047D01*
X-127059523Y-56334047D02*
X-127059523Y-56572142D01*
X-127059523Y-56572142D02*
X-127011904Y-56667380D01*
X-127011904Y-56667380D02*
X-126964285Y-56715000D01*
X-126964285Y-56715000D02*
X-126869047Y-56762619D01*
X-126869047Y-56762619D02*
X-126583333Y-56762619D01*
X-126583333Y-56762619D02*
X-126488095Y-56715000D01*
X-126488095Y-56715000D02*
X-126440476Y-56667380D01*
%TO.C,U6*%
X-159638095Y-95662619D02*
X-159638095Y-96472142D01*
X-159638095Y-96472142D02*
X-159685714Y-96567380D01*
X-159685714Y-96567380D02*
X-159733333Y-96615000D01*
X-159733333Y-96615000D02*
X-159828571Y-96662619D01*
X-159828571Y-96662619D02*
X-160019047Y-96662619D01*
X-160019047Y-96662619D02*
X-160114285Y-96615000D01*
X-160114285Y-96615000D02*
X-160161904Y-96567380D01*
X-160161904Y-96567380D02*
X-160209523Y-96472142D01*
X-160209523Y-96472142D02*
X-160209523Y-95662619D01*
X-161114285Y-95662619D02*
X-160923809Y-95662619D01*
X-160923809Y-95662619D02*
X-160828571Y-95710238D01*
X-160828571Y-95710238D02*
X-160780952Y-95757857D01*
X-160780952Y-95757857D02*
X-160685714Y-95900714D01*
X-160685714Y-95900714D02*
X-160638095Y-96091190D01*
X-160638095Y-96091190D02*
X-160638095Y-96472142D01*
X-160638095Y-96472142D02*
X-160685714Y-96567380D01*
X-160685714Y-96567380D02*
X-160733333Y-96615000D01*
X-160733333Y-96615000D02*
X-160828571Y-96662619D01*
X-160828571Y-96662619D02*
X-161019047Y-96662619D01*
X-161019047Y-96662619D02*
X-161114285Y-96615000D01*
X-161114285Y-96615000D02*
X-161161904Y-96567380D01*
X-161161904Y-96567380D02*
X-161209523Y-96472142D01*
X-161209523Y-96472142D02*
X-161209523Y-96234047D01*
X-161209523Y-96234047D02*
X-161161904Y-96138809D01*
X-161161904Y-96138809D02*
X-161114285Y-96091190D01*
X-161114285Y-96091190D02*
X-161019047Y-96043571D01*
X-161019047Y-96043571D02*
X-160828571Y-96043571D01*
X-160828571Y-96043571D02*
X-160733333Y-96091190D01*
X-160733333Y-96091190D02*
X-160685714Y-96138809D01*
X-160685714Y-96138809D02*
X-160638095Y-96234047D01*
D13*
%TO.C,JP10*%
X-157372500Y-63982776D02*
X-157372500Y-64492224D01*
X-156327500Y-63982776D02*
X-156327500Y-64492224D01*
%TO.C,U2*%
X-146000000Y-65760000D02*
X-147800000Y-65760000D01*
X-147800000Y-62540000D02*
X-144850000Y-62540000D01*
%TO.C,C10*%
X-147783767Y-67210000D02*
X-147491233Y-67210000D01*
X-147783767Y-66190000D02*
X-147491233Y-66190000D01*
%TO.C,C15*%
X-144060000Y-48190000D02*
X-139540000Y-48190000D01*
X-139540000Y-48190000D02*
X-139540000Y-56250000D01*
X-144060000Y-56250000D02*
X-144060000Y-48190000D01*
%TO.C,JP9*%
X-135352500Y-80332776D02*
X-135352500Y-80842224D01*
X-136397500Y-80332776D02*
X-136397500Y-80842224D01*
%TO.C,J3*%
X-162670000Y-65700000D02*
X-162670000Y-62490000D01*
X-165330000Y-63510000D02*
X-165330000Y-60300000D01*
X-165330000Y-60300000D02*
X-162670000Y-60300000D01*
X-165330000Y-65700000D02*
X-165330000Y-65030000D01*
X-162670000Y-60970000D02*
X-162670000Y-60300000D01*
X-166540000Y-65030000D02*
X-165330000Y-65030000D01*
X-165330000Y-65700000D02*
X-162670000Y-65700000D01*
%TO.C,J2*%
X-162670000Y-59100000D02*
X-162670000Y-55890000D01*
X-165330000Y-56910000D02*
X-165330000Y-53700000D01*
X-165330000Y-53700000D02*
X-162670000Y-53700000D01*
X-165330000Y-59100000D02*
X-165330000Y-58430000D01*
X-162670000Y-54370000D02*
X-162670000Y-53700000D01*
X-166540000Y-58430000D02*
X-165330000Y-58430000D01*
X-165330000Y-59100000D02*
X-162670000Y-59100000D01*
%TO.C,J1*%
X-156185000Y-78730000D02*
X-156185000Y-79300000D01*
X-153525000Y-83360000D02*
X-153525000Y-86920000D01*
X-156185000Y-85900000D02*
X-156185000Y-89010000D01*
X-153525000Y-89010000D02*
X-156185000Y-89010000D01*
X-153525000Y-78730000D02*
X-156185000Y-78730000D01*
X-153525000Y-78730000D02*
X-153525000Y-81840000D01*
X-156185000Y-80820000D02*
X-156185000Y-84380000D01*
X-156185000Y-79300000D02*
X-157705000Y-79300000D01*
X-153525000Y-88440000D02*
X-153525000Y-89010000D01*
%TO.C,JP13*%
X-162615000Y-52530000D02*
X-165275000Y-52530000D01*
X-162615000Y-51960000D02*
X-162615000Y-52530000D01*
X-162615000Y-44790000D02*
X-165275000Y-44790000D01*
X-162615000Y-49420000D02*
X-162615000Y-52530000D01*
X-165275000Y-44790000D02*
X-165275000Y-45360000D01*
X-165275000Y-46880000D02*
X-165275000Y-50440000D01*
X-165275000Y-45360000D02*
X-166795000Y-45360000D01*
X-162615000Y-44790000D02*
X-162615000Y-47900000D01*
%TO.C,J6*%
X-137500000Y-44815000D02*
X-137500000Y-43295000D01*
X-133440000Y-47475000D02*
X-129880000Y-47475000D01*
X-138070000Y-47475000D02*
X-134960000Y-47475000D01*
X-127790000Y-44815000D02*
X-127790000Y-47475000D01*
X-138070000Y-44815000D02*
X-138070000Y-47475000D01*
X-128360000Y-47475000D02*
X-127790000Y-47475000D01*
X-130900000Y-44815000D02*
X-127790000Y-44815000D01*
X-135980000Y-44815000D02*
X-132420000Y-44815000D01*
X-138070000Y-44815000D02*
X-137500000Y-44815000D01*
%TO.C,D2*%
X-156310000Y-95210000D02*
X-156310000Y-90800000D01*
X-154090000Y-95210000D02*
X-156310000Y-95210000D01*
X-154090000Y-90800000D02*
X-154090000Y-95210000D01*
%TO.C,BT2*%
X-136365000Y-105875000D02*
X-136365000Y-104267910D01*
X-146135000Y-105875000D02*
X-146135000Y-104267910D01*
X-146135000Y-84935000D02*
X-146135000Y-86542090D01*
X-138250000Y-105875000D02*
X-136365000Y-105875000D01*
X-144250000Y-105875000D02*
X-146135000Y-105875000D01*
X-136365000Y-84935000D02*
X-136365000Y-86542090D01*
X-144250000Y-84935000D02*
X-146135000Y-84935000D01*
X-138250000Y-84935000D02*
X-136365000Y-84935000D01*
X-146131168Y-86539979D02*
G75*
G03*
X-146135000Y-104267910I4881167J-8865021D01*
G01*
X-136365000Y-104267909D02*
G75*
G03*
X-136365000Y-86542091I-4885000J8862909D01*
G01*
%TO.C,JP8*%
X-139127500Y-71942224D02*
X-139127500Y-71432776D01*
X-140172500Y-71942224D02*
X-140172500Y-71432776D01*
%TO.C,TP2*%
X-134855000Y-68060000D02*
X-134855000Y-65660000D01*
X-134855000Y-65660000D02*
X-137255000Y-65660000D01*
X-137255000Y-65660000D02*
X-137255000Y-68060000D01*
X-137255000Y-68060000D02*
X-134855000Y-68060000D01*
%TO.C,TP1*%
X-134916000Y-71384000D02*
X-134916000Y-68984000D01*
X-134916000Y-68984000D02*
X-137316000Y-68984000D01*
X-137316000Y-68984000D02*
X-137316000Y-71384000D01*
X-137316000Y-71384000D02*
X-134916000Y-71384000D01*
%TO.C,JP1*%
X-149877500Y-63467224D02*
X-149877500Y-62957776D01*
X-150922500Y-63467224D02*
X-150922500Y-62957776D01*
%TO.C,JP7*%
X-166397776Y-97847500D02*
X-166907224Y-97847500D01*
X-166397776Y-96802500D02*
X-166907224Y-96802500D01*
%TO.C,JP3*%
X-141767224Y-47522500D02*
X-141257776Y-47522500D01*
X-141767224Y-46477500D02*
X-141257776Y-46477500D01*
%TO.C,JP2*%
X-133722500Y-55632776D02*
X-133722500Y-56142224D01*
X-132677500Y-55632776D02*
X-132677500Y-56142224D01*
%TO.C,R16*%
X-128882776Y-84772500D02*
X-129392224Y-84772500D01*
X-128882776Y-83727500D02*
X-129392224Y-83727500D01*
%TO.C,R15*%
X-128857776Y-82772500D02*
X-129367224Y-82772500D01*
X-128857776Y-81727500D02*
X-129367224Y-81727500D01*
%TO.C,R14*%
X-140716500Y-71442776D02*
X-140716500Y-71952224D01*
X-141761500Y-71442776D02*
X-141761500Y-71952224D01*
%TO.C,R13*%
X-141743500Y-75032776D02*
X-141743500Y-75542224D01*
X-140698500Y-75032776D02*
X-140698500Y-75542224D01*
%TO.C,R11*%
X-153722500Y-91967224D02*
X-153722500Y-91457776D01*
X-152677500Y-91967224D02*
X-152677500Y-91457776D01*
%TO.C,R9*%
X-167222500Y-93607776D02*
X-167222500Y-94117224D01*
X-166177500Y-93607776D02*
X-166177500Y-94117224D01*
%TO.C,R7*%
X-165477500Y-81457776D02*
X-165477500Y-81967224D01*
X-166522500Y-81457776D02*
X-166522500Y-81967224D01*
%TO.C,R6*%
X-168307776Y-70977500D02*
X-168817224Y-70977500D01*
X-168307776Y-72022500D02*
X-168817224Y-72022500D01*
%TO.C,R5*%
X-159767224Y-73022500D02*
X-159257776Y-73022500D01*
X-159767224Y-71977500D02*
X-159257776Y-71977500D01*
%TO.C,R4*%
X-159767224Y-74622500D02*
X-159257776Y-74622500D01*
X-159767224Y-73577500D02*
X-159257776Y-73577500D01*
%TO.C,R2*%
X-166152500Y-90007776D02*
X-166152500Y-90517224D01*
X-167197500Y-90007776D02*
X-167197500Y-90517224D01*
%TO.C,R1*%
X-167197500Y-86407776D02*
X-167197500Y-86917224D01*
X-166152500Y-86407776D02*
X-166152500Y-86917224D01*
%TO.C,U8*%
X-133716000Y-70484000D02*
X-131816000Y-70484000D01*
X-132116000Y-72284000D02*
X-133716000Y-72284000D01*
D10*
%TO.C,U7*%
X-134591000Y-78259000D02*
X-134291000Y-78259000D01*
X-131241000Y-74909000D02*
X-131541000Y-74909000D01*
X-131241000Y-74909000D02*
X-131241000Y-78259000D01*
X-131241000Y-78259000D02*
X-131541000Y-78259000D01*
X-134366000Y-74909000D02*
X-134366000Y-73684000D01*
X-134591000Y-74909000D02*
X-134591000Y-78259000D01*
X-134591000Y-74909000D02*
X-134366000Y-74909000D01*
D13*
%TO.C,Q3*%
X-167860000Y-68487500D02*
X-167860000Y-69137500D01*
X-164740000Y-68487500D02*
X-164740000Y-69137500D01*
X-167860000Y-68487500D02*
X-167860000Y-66812500D01*
X-164740000Y-68487500D02*
X-164740000Y-67837500D01*
%TO.C,P2*%
X-120815000Y-79580000D02*
X-120815000Y-70420000D01*
X-120815000Y-70420000D02*
X-122520000Y-70420000D01*
X-122520000Y-79580000D02*
X-120815000Y-79580000D01*
X-126450000Y-70420000D02*
X-124530000Y-70420000D01*
X-124530000Y-79580000D02*
X-126450000Y-79580000D01*
%TO.C,F1*%
X-132646267Y-67890000D02*
X-132303733Y-67890000D01*
X-132646267Y-68910000D02*
X-132303733Y-68910000D01*
D12*
%TO.C,D5*%
X-124892500Y-84250000D02*
G75*
G03*
X-124892500Y-84250000I-50000J0D01*
G01*
%TO.C,D4*%
X-124892500Y-82125000D02*
G75*
G03*
X-124892500Y-82125000I-50000J0D01*
G01*
D13*
%TO.C,C19*%
X-136426000Y-73441233D02*
X-136426000Y-73733767D01*
X-135406000Y-73441233D02*
X-135406000Y-73733767D01*
%TO.C,C18*%
X-135406000Y-77192767D02*
X-135406000Y-76900233D01*
X-136426000Y-77192767D02*
X-136426000Y-76900233D01*
%TO.C,C6*%
X-160758767Y-76260000D02*
X-160466233Y-76260000D01*
X-160758767Y-75240000D02*
X-160466233Y-75240000D01*
%TO.C,C14*%
X-160977064Y-78235000D02*
X-160522936Y-78235000D01*
X-160977064Y-76765000D02*
X-160522936Y-76765000D01*
%TO.C,C1*%
X-129245767Y-54914000D02*
X-128953233Y-54914000D01*
X-129245767Y-55934000D02*
X-128953233Y-55934000D01*
%TO.C,U4*%
X-164310000Y-68462500D02*
X-164310000Y-66787500D01*
X-164310000Y-68462500D02*
X-164310000Y-69112500D01*
X-161190000Y-68462500D02*
X-161190000Y-67812500D01*
X-161190000Y-68462500D02*
X-161190000Y-69112500D01*
%TO.C,U5*%
X-163035000Y-98190000D02*
X-162780000Y-98190000D01*
X-152515000Y-98190000D02*
X-152770000Y-98190000D01*
X-163035000Y-102050000D02*
X-163035000Y-98190000D01*
X-163035000Y-102050000D02*
X-163035000Y-105910000D01*
X-152515000Y-102050000D02*
X-152515000Y-98190000D01*
X-152515000Y-102050000D02*
X-152515000Y-105910000D01*
X-163035000Y-105910000D02*
X-162780000Y-105910000D01*
X-152770000Y-105910000D02*
X-152770000Y-107725000D01*
X-152515000Y-105910000D02*
X-152770000Y-105910000D01*
%TO.C,JP6*%
X-170200000Y-85275000D02*
X-170200000Y-88075000D01*
X-168200000Y-85275000D02*
X-170200000Y-85275000D01*
X-170200000Y-88075000D02*
X-168200000Y-88075000D01*
X-168200000Y-88075000D02*
X-168200000Y-85275000D01*
%TO.C,C4*%
X-147510000Y-78716233D02*
X-147510000Y-79008767D01*
X-146490000Y-78716233D02*
X-146490000Y-79008767D01*
%TO.C,U1*%
X-149290000Y-69290000D02*
X-149765000Y-69290000D01*
X-156510000Y-69765000D02*
X-156510000Y-69290000D01*
X-149290000Y-69765000D02*
X-149290000Y-69290000D01*
X-156510000Y-76035000D02*
X-156510000Y-76510000D01*
X-149290000Y-76035000D02*
X-149290000Y-76510000D01*
X-156510000Y-76510000D02*
X-156035000Y-76510000D01*
X-149290000Y-76510000D02*
X-149765000Y-76510000D01*
%TO.C,JP4*%
X-170200000Y-92475000D02*
X-170200000Y-95275000D01*
X-168200000Y-92475000D02*
X-170200000Y-92475000D01*
X-170200000Y-95275000D02*
X-168200000Y-95275000D01*
X-168200000Y-95275000D02*
X-168200000Y-92475000D01*
%TO.C,C12*%
X-166310000Y-99916233D02*
X-166310000Y-100208767D01*
X-165290000Y-99916233D02*
X-165290000Y-100208767D01*
%TO.C,C2*%
X-129283767Y-54260000D02*
X-128991233Y-54260000D01*
X-129283767Y-53240000D02*
X-128991233Y-53240000D01*
%TO.C,C9*%
X-160760000Y-67716233D02*
X-160760000Y-68008767D01*
X-159740000Y-67716233D02*
X-159740000Y-68008767D01*
%TO.C,C13*%
X-152964000Y-66693233D02*
X-152964000Y-66985767D01*
X-151944000Y-66693233D02*
X-151944000Y-66985767D01*
%TO.C,C5*%
X-167910000Y-99916233D02*
X-167910000Y-100208767D01*
X-166890000Y-99916233D02*
X-166890000Y-100208767D01*
%TO.C,SW2*%
X-167110000Y-83896000D02*
X-167110000Y-79756000D01*
X-167410000Y-83896000D02*
X-167110000Y-83896000D01*
X-170250000Y-83896000D02*
X-169950000Y-83896000D01*
X-167110000Y-79756000D02*
X-167410000Y-79756000D01*
X-169950000Y-79756000D02*
X-170250000Y-79756000D01*
X-170250000Y-79756000D02*
X-170250000Y-83896000D01*
%TO.C,C7*%
X-149260000Y-78716233D02*
X-149260000Y-79008767D01*
X-148240000Y-78716233D02*
X-148240000Y-79008767D01*
%TO.C,JP5*%
X-168200000Y-91675000D02*
X-168200000Y-88875000D01*
X-170200000Y-91675000D02*
X-168200000Y-91675000D01*
X-168200000Y-88875000D02*
X-170200000Y-88875000D01*
X-170200000Y-88875000D02*
X-170200000Y-91675000D01*
%TO.C,C16*%
X-154710000Y-66716233D02*
X-154710000Y-67008767D01*
X-153690000Y-66716233D02*
X-153690000Y-67008767D01*
%TO.C,SW1*%
X-170245000Y-73030000D02*
X-170245000Y-77170000D01*
X-169945000Y-73030000D02*
X-170245000Y-73030000D01*
X-167105000Y-73030000D02*
X-167405000Y-73030000D01*
X-170245000Y-77170000D02*
X-169945000Y-77170000D01*
X-167405000Y-77170000D02*
X-167105000Y-77170000D01*
X-167105000Y-77170000D02*
X-167105000Y-73030000D01*
%TO.C,C3*%
X-166535000Y-74541233D02*
X-166535000Y-74833767D01*
X-165515000Y-74541233D02*
X-165515000Y-74833767D01*
D12*
%TO.C,J4*%
X-145253000Y-57092000D02*
X-145253000Y-26612000D01*
X-160493000Y-57092000D02*
X-145253000Y-57092000D01*
X-145253000Y-35883000D02*
X-160493000Y-35883000D01*
X-145253000Y-26612000D02*
X-145253000Y-35883000D01*
X-145253000Y-26612000D02*
X-160493000Y-26612000D01*
X-160493000Y-26612000D02*
X-160493000Y-57092000D01*
D13*
%TO.C,C8*%
X-159110000Y-67716233D02*
X-159110000Y-68008767D01*
X-158090000Y-67716233D02*
X-158090000Y-68008767D01*
D12*
%TO.C,U3*%
X-122425000Y-53575000D02*
X-122425000Y-53325000D01*
X-122425000Y-56125000D02*
X-122425000Y-55975000D01*
X-122425000Y-56135000D02*
X-122575000Y-56135000D01*
X-124975000Y-53425000D02*
X-125125000Y-53425000D01*
X-125125000Y-53425000D02*
X-125125000Y-53575000D01*
X-125125000Y-56125000D02*
X-124975000Y-56125000D01*
X-125125000Y-56125000D02*
X-125125000Y-55975000D01*
D13*
%TO.C,U6*%
X-160400000Y-95360000D02*
X-163850000Y-95360000D01*
X-160400000Y-95360000D02*
X-158450000Y-95360000D01*
X-160400000Y-90240000D02*
X-162350000Y-90240000D01*
X-160400000Y-90240000D02*
X-158450000Y-90240000D01*
%TD*%
M02*
