M48
; DRILL file {KiCad 7.0.2} date Mon Jun 10 16:57:42 2024
; FORMAT={-:-/ absolute / inch / decimal}
; #@! TF.CreationDate,2024-06-10T16:57:42+03:00
; #@! TF.GenerationSoftware,Kicad,Pcbnew,7.0.2
; #@! TF.FileFunction,Plated,1,2,PTH
FMAT,2
INCH
; #@! TA.AperFunction,Plated,PTH,ViaDrill
T1C0.0157
; #@! TA.AperFunction,Plated,PTH,ComponentDrill
T2C0.0236
; #@! TA.AperFunction,Plated,PTH,ViaDrill
T3C0.1181
%
G90
G05
T1
X-6.7362Y-2.6476
X-6.7303Y-2.1575
X-6.7264Y-3.8228
X-6.7244Y-4.0236
X-6.6929Y-1.6437
X-6.6614Y-3.3858
X-6.6614Y-3.5276
X-6.6594Y-3.6693
X-6.6417Y-3.2165
X-6.6358Y-2.9547
X-6.5748Y-1.7126
X-6.5748Y-2.6594
X-6.5354Y-2.8543
X-6.5177Y-4.2697
X-6.5138Y-1.4626
X-6.4882Y-3.0551
X-6.4705Y-3.4291
X-6.4685Y-3.5138
X-6.437Y-2.8445
X-6.4331Y-3.2323
X-6.3878Y-2.8445
X-6.3425Y-2.7323
X-6.3346Y-3.6299
X-6.2992Y-3.1201
X-6.2992Y-3.3071
X-6.2913Y-2.9823
X-6.2894Y-3.0413
X-6.2697Y-1.8701
X-6.2697Y-1.9587
X-6.2598Y-3.2972
X-6.25Y-3.1201
X-6.2362Y-3.9626
X-6.2343Y-3.8346
X-6.2224Y-2.4055
X-6.2185Y-2.1417
X-6.2106Y-3.2087
X-6.1909Y-3.1004
X-6.185Y-1.9724
X-6.1772Y-4.0886
X-6.1713Y-1.4567
X-6.1358Y-1.6516
X-6.1358Y-1.8366
X-6.1319Y-2.6673
X-6.124Y-3.4547
X-6.122Y-3.2776
X-6.1102Y-3.7126
X-6.1083Y-2.7835
X-6.0335Y-3.9173
X-6.0335Y-3.9961
X-6.0197Y-2.8701
X-6.0079Y-3.3327
X-5.9921Y-3.9852
X-5.9528Y-2.8543
X-5.9508Y-2.9409
X-5.9449Y-3.3307
X-5.9213Y-2.4508
X-5.9193Y-3.5079
X-5.9114Y-3.0512
X-5.9055Y-3.1398
X-5.8996Y-4.2736
X-5.8858Y-2.626
X-5.8563Y-3.3996
X-5.8445Y-2.3622
X-5.8346Y-2.4331
X-5.8268Y-2.9803
X-5.7776Y-2.8845
X-5.7774Y-2.8452
X-5.7771Y-2.8056
X-5.7764Y-2.7571
X-5.7697Y-3.3307
X-5.7579Y-1.8898
X-5.7461Y-2.437
X-5.7205Y-2.0295
X-5.7126Y-2.6299
X-5.686Y-3.061
X-5.686Y-3.1023
X-5.5993Y-2.8642
X-5.5925Y-3.0571
X-5.5354Y-2.065
X-5.4744Y-1.7717
X-5.4685Y-1.6142
X-5.4646Y-3.0807
X-5.4567Y-1.4567
X-5.435Y-1.9724
X-5.4311Y-2.2972
X-5.3976Y-3.3189
X-5.3504Y-2.9311
X-5.3346Y-1.8799
X-5.3307Y-4.2717
X-5.311Y-2.4409
X-5.3051Y-1.565
X-5.2717Y-1.0
X-5.2441Y-3.0315
X-5.1969Y-2.0669
X-5.1772Y-3.937
X-5.1673Y-1.8858
X-5.1437Y-1.2461
X-5.1417Y-1.4016
X-5.1358Y-2.4606
X-5.1299Y-3.122
X-5.124Y-3.5256
X-5.0787Y-1.5256
X-5.0551Y-1.0
X-5.0098Y-1.6831
X-4.9862Y-2.1693
X-4.9803Y-2.1161
X-4.9705Y-3.435
X-4.9547Y-3.7185
X-4.9429Y-3.0276
X-4.876Y-3.9823
X-4.872Y-1.7382
X-4.872Y-2.8681
X-4.8642Y-2.3583
X-4.8583Y-2.1555
X-4.8583Y-2.5886
X-4.8406Y-1.2047
X-4.8366Y-1.9488
T3
X-6.6535Y-1.0787
X-6.6535Y-4.2283
X-4.9291Y-1.0787
X-4.9291Y-4.2283
T2
G00X-5.0069Y-2.7827
M15
G01X-5.0502Y-2.7827
M16
G05
G00X-5.0069Y-3.1228
M15
G01X-5.0502Y-3.1228
M16
G05
G00X-4.8474Y-2.7827
M15
G01X-4.8789Y-2.7827
M16
G05
G00X-4.8474Y-3.1228
M15
G01X-4.8789Y-3.1228
M16
G05
T0
M30
