%TF.GenerationSoftware,KiCad,Pcbnew,7.0.2*%
%TF.CreationDate,2024-06-10T16:57:37+03:00*%
%TF.ProjectId,STM32_NRF24L01_Sleep_mode,53544d33-325f-44e5-9246-32344c30315f,rev?*%
%TF.SameCoordinates,Original*%
%TF.FileFunction,Copper,L1,Top*%
%TF.FilePolarity,Positive*%
%FSLAX46Y46*%
G04 Gerber Fmt 4.6, Leading zero omitted, Abs format (unit mm)*
G04 Created by KiCad (PCBNEW 7.0.2) date 2024-06-10 16:57:37*
%MOMM*%
%LPD*%
G01*
G04 APERTURE LIST*
G04 Aperture macros list*
%AMRoundRect*
0 Rectangle with rounded corners*
0 $1 Rounding radius*
0 $2 $3 $4 $5 $6 $7 $8 $9 X,Y pos of 4 corners*
0 Add a 4 corners polygon primitive as box body*
4,1,4,$2,$3,$4,$5,$6,$7,$8,$9,$2,$3,0*
0 Add four circle primitives for the rounded corners*
1,1,$1+$1,$2,$3*
1,1,$1+$1,$4,$5*
1,1,$1+$1,$6,$7*
1,1,$1+$1,$8,$9*
0 Add four rect primitives between the rounded corners*
20,1,$1+$1,$2,$3,$4,$5,0*
20,1,$1+$1,$4,$5,$6,$7,0*
20,1,$1+$1,$6,$7,$8,$9,0*
20,1,$1+$1,$8,$9,$2,$3,0*%
G04 Aperture macros list end*
%TA.AperFunction,EtchedComponent*%
%ADD10C,1.000000*%
%TD*%
%TA.AperFunction,SMDPad,CuDef*%
%ADD11RoundRect,1.500000X-1.500000X-1.500000X1.500000X-1.500000X1.500000X1.500000X-1.500000X1.500000X0*%
%TD*%
%TA.AperFunction,SMDPad,CuDef*%
%ADD12RoundRect,0.375000X-0.875000X-0.375000X0.875000X-0.375000X0.875000X0.375000X-0.875000X0.375000X0*%
%TD*%
%TA.AperFunction,SMDPad,CuDef*%
%ADD13RoundRect,0.237500X0.250000X0.237500X-0.250000X0.237500X-0.250000X-0.237500X0.250000X-0.237500X0*%
%TD*%
%TA.AperFunction,SMDPad,CuDef*%
%ADD14RoundRect,0.237500X-0.250000X-0.237500X0.250000X-0.237500X0.250000X0.237500X-0.250000X0.237500X0*%
%TD*%
%TA.AperFunction,ComponentPad*%
%ADD15O,1.800000X1.000000*%
%TD*%
%TA.AperFunction,ComponentPad*%
%ADD16O,2.100000X1.000000*%
%TD*%
%TA.AperFunction,SMDPad,CuDef*%
%ADD17RoundRect,0.237500X-0.237500X0.300000X-0.237500X-0.300000X0.237500X-0.300000X0.237500X0.300000X0*%
%TD*%
%TA.AperFunction,SMDPad,CuDef*%
%ADD18RoundRect,0.200000X-0.800000X0.200000X-0.800000X-0.200000X0.800000X-0.200000X0.800000X0.200000X0*%
%TD*%
%TA.AperFunction,SMDPad,CuDef*%
%ADD19RoundRect,0.160000X0.160000X-0.222500X0.160000X0.222500X-0.160000X0.222500X-0.160000X-0.222500X0*%
%TD*%
%TA.AperFunction,ViaPad*%
%ADD20C,0.800000*%
%TD*%
%TA.AperFunction,ViaPad*%
%ADD21C,4.500000*%
%TD*%
%TA.AperFunction,Conductor*%
%ADD22C,0.250000*%
%TD*%
G04 APERTURE END LIST*
D10*
%TO.C,BT4*%
X-147066000Y-104414000D02*
X-132066000Y-43414000D01*
X-162066000Y-104414000D02*
X-147066000Y-43414000D01*
%TD*%
D11*
%TO.P,BT4,2,-*%
%TO.N,GND*%
X-131566000Y-104414000D03*
%TO.P,BT4,1,+*%
%TO.N,Net-(BT4-+)*%
X-162066000Y-43414000D03*
%TO.P,BT4,0*%
%TO.N,N/C*%
X-132066000Y-43414000D03*
X-147066000Y-104414000D03*
X-147066000Y-43414000D03*
X-162066000Y-104414000D03*
%TD*%
D12*
%TO.P,SW4,8*%
%TO.N,+3.3V*%
X-133217000Y-29453500D03*
%TO.P,SW4,7*%
X-133217000Y-31993500D03*
%TO.P,SW4,6*%
X-133217000Y-34533500D03*
%TO.P,SW4,5*%
X-133217000Y-37073500D03*
%TO.P,SW4,4*%
%TO.N,8*%
X-141980000Y-37073500D03*
%TO.P,SW4,3*%
%TO.N,4*%
X-141980000Y-34533500D03*
%TO.P,SW4,2*%
%TO.N,2*%
X-141980000Y-31993500D03*
%TO.P,SW4,1*%
%TO.N,1*%
X-141980000Y-29453500D03*
%TD*%
D13*
%TO.P,R10,1*%
%TO.N,Net-(D3-K)*%
X-123375000Y-34600000D03*
%TO.P,R10,2*%
%TO.N,GND*%
X-125200000Y-34600000D03*
%TD*%
D14*
%TO.P,R8,1*%
%TO.N,+3.3V*%
X-128975000Y-37300000D03*
%TO.P,R8,2*%
%TO.N,ACTION*%
X-127150000Y-37300000D03*
%TD*%
%TO.P,R3,1*%
%TO.N,Net-(D1-K)*%
X-128712500Y-34600000D03*
%TO.P,R3,2*%
%TO.N,GND*%
X-126887500Y-34600000D03*
%TD*%
D15*
%TO.P,P2,S1,SHIELD*%
%TO.N,unconnected-(P2-SHIELD-PadS1)*%
X-123525000Y-70680000D03*
D16*
X-127725000Y-70680000D03*
X-127725000Y-79320000D03*
D15*
X-123525000Y-79320000D03*
%TD*%
D17*
%TO.P,C17,1*%
%TO.N,ACTION*%
X-127125000Y-39125000D03*
%TO.P,C17,2*%
%TO.N,GND*%
X-127125000Y-40850000D03*
%TD*%
D18*
%TO.P,SW3,1,1*%
%TO.N,ACTION*%
X-124575000Y-38150000D03*
%TO.P,SW3,2,2*%
%TO.N,GND*%
X-124575000Y-42350000D03*
%TD*%
D19*
%TO.P,D1,2,A*%
%TO.N,LED_Green*%
X-127650000Y-31855000D03*
%TO.P,D1,1,K*%
%TO.N,Net-(D1-K)*%
X-127650000Y-33000000D03*
%TD*%
%TO.P,D3,1,K*%
%TO.N,Net-(D3-K)*%
X-124300000Y-32975000D03*
%TO.P,D3,2,A*%
%TO.N,LED_Red*%
X-124300000Y-31830000D03*
%TD*%
D20*
%TO.N,GND*%
X-145950000Y-61900000D03*
X-145100000Y-66800000D03*
X-155150000Y-70700000D03*
X-152900000Y-72900000D03*
X-151150000Y-74700000D03*
X-151200000Y-72500000D03*
X-123750000Y-72850000D03*
X-134900000Y-62000000D03*
X-125550000Y-76900000D03*
X-137100000Y-84300000D03*
%TO.N,RTC_VBAT*%
X-151000000Y-84600000D03*
X-148200000Y-61800000D03*
%TO.N,GND*%
X-138600000Y-37000000D03*
X-156750000Y-37000000D03*
X-165450000Y-37150000D03*
X-138800000Y-78250000D03*
%TO.N,+3.3V*%
X-149500000Y-66700000D03*
%TO.N,GND*%
X-159800000Y-75750000D03*
X-159750000Y-77250000D03*
X-149850000Y-108550000D03*
X-164300000Y-89250000D03*
X-161100000Y-69400000D03*
X-167000000Y-67550000D03*
X-157950000Y-54400000D03*
%TO.N,Net-(J4-Pin_1)*%
X-148450000Y-60000000D03*
%TO.N,GND*%
X-122850000Y-49500000D03*
X-131250000Y-47900000D03*
X-137950000Y-58350000D03*
X-142050000Y-77650000D03*
X-135900000Y-74450000D03*
%TO.N,RTC_VBAT*%
X-152600000Y-84650000D03*
X-155200000Y-94300000D03*
%TO.N,GND*%
X-155550000Y-87750000D03*
X-158350000Y-97400000D03*
X-165550000Y-108450000D03*
X-170800000Y-102200000D03*
X-170850000Y-97100000D03*
X-169150000Y-93200000D03*
X-169200000Y-86000000D03*
X-169200000Y-89600000D03*
X-160900000Y-92200000D03*
X-164350000Y-87100000D03*
X-168700000Y-81700000D03*
X-163400000Y-82100000D03*
X-164800000Y-77600000D03*
X-168550000Y-75050000D03*
X-171100000Y-67250000D03*
X-158050000Y-61100000D03*
X-170950000Y-54800000D03*
X-170000000Y-41750000D03*
X-155850000Y-46650000D03*
X-155850000Y-41950000D03*
X-139050000Y-45000000D03*
X-133900000Y-25400000D03*
X-128400000Y-25400000D03*
X-122950000Y-30600000D03*
X-130600000Y-35600000D03*
X-130650000Y-31650000D03*
X-123750000Y-44150000D03*
X-138900000Y-41000000D03*
X-138050000Y-50100000D03*
X-123400000Y-54750000D03*
X-126650000Y-55100000D03*
X-130450000Y-62500000D03*
X-123400000Y-65750000D03*
X-123550000Y-59900000D03*
X-148000000Y-75700000D03*
X-145300000Y-51550000D03*
X-157100000Y-50100000D03*
X-140600000Y-52450000D03*
%TO.N,ACTION*%
X-133200000Y-77000000D03*
%TO.N,GND*%
X-130300000Y-79300000D03*
X-125850000Y-94450000D03*
X-130150000Y-89550000D03*
X-123850000Y-101150000D03*
X-135400000Y-108500000D03*
X-158400000Y-100650000D03*
X-156900000Y-103850000D03*
X-148750000Y-86350000D03*
X-150350000Y-89100000D03*
X-146550000Y-84600000D03*
X-127250000Y-42750000D03*
%TO.N,+3.3V*%
X-129000000Y-38750000D03*
%TO.N,GND*%
X-131500000Y-100000000D03*
%TO.N,EXTERNAL_WOKE_UP*%
X-152200000Y-101224500D03*
X-150400000Y-62250000D03*
%TO.N,SCL*%
X-153250000Y-99500000D03*
X-153250000Y-101500000D03*
%TO.N,SDA*%
X-134750000Y-39750000D03*
%TO.N,SCL*%
X-135500000Y-47750000D03*
X-158750000Y-79250000D03*
X-160000000Y-84000000D03*
%TO.N,SDA*%
X-159000000Y-83750000D03*
X-160000000Y-79250000D03*
%TO.N,PA14*%
X-157750000Y-81500000D03*
X-157250000Y-78750000D03*
%TO.N,Net-(JP13-A)*%
X-159250000Y-47500000D03*
X-159250000Y-49750000D03*
%TO.N,+3.3V*%
X-155500000Y-83250000D03*
X-150150000Y-77500000D03*
%TO.N,LED_Green*%
X-163500000Y-72250000D03*
%TO.N,LED_Red*%
X-162250000Y-72250000D03*
%TO.N,ACTION*%
X-126250000Y-87250000D03*
%TO.N,ADC*%
X-146750060Y-73267058D03*
X-142221000Y-72750000D03*
%TO.N,8*%
X-144425500Y-78799550D03*
%TO.N,4*%
X-146746565Y-72267562D03*
%TO.N,2*%
X-146737701Y-71262299D03*
%TO.N,1*%
X-146719502Y-70030498D03*
%TO.N,Net-(J4-Pin_1)*%
X-146250000Y-48000000D03*
%TO.N,NRST*%
X-166000000Y-72500000D03*
X-155750000Y-67750000D03*
%TO.N,nrf_MISO*%
X-144425500Y-77750000D03*
X-150000000Y-79750000D03*
%TO.N,SCL*%
X-132000000Y-52500000D03*
X-126500000Y-53750000D03*
%TO.N,Net-(BT4-+)*%
X-167000000Y-43500000D03*
D21*
%TO.N,+3.3V*%
X-125200000Y-27400000D03*
%TO.N,*%
X-169000000Y-27400000D03*
X-169000000Y-107400000D03*
X-125200000Y-107400000D03*
%TD*%
D22*
%TO.N,RTC_VBAT*%
X-147699695Y-74000305D02*
X-147699695Y-62300305D01*
X-146050000Y-75650000D02*
X-147699695Y-74000305D01*
X-146050000Y-78000000D02*
X-146050000Y-75650000D01*
X-147699695Y-62300305D02*
X-148200000Y-61800000D01*
X-150275305Y-79000000D02*
X-147050000Y-79000000D01*
X-151000000Y-79724695D02*
X-150275305Y-79000000D01*
X-151000000Y-84600000D02*
X-151000000Y-79724695D01*
X-147050000Y-79000000D02*
X-146050000Y-78000000D01*
%TO.N,LED_Red*%
X-163675000Y-73675000D02*
X-162250000Y-72250000D01*
X-167450000Y-72975000D02*
X-166750000Y-73675000D01*
X-167450000Y-71613604D02*
X-167450000Y-72975000D01*
X-162386396Y-66550000D02*
X-167450000Y-71613604D01*
X-156686396Y-66550000D02*
X-162386396Y-66550000D01*
X-156000000Y-65863604D02*
X-156686396Y-66550000D01*
X-156000000Y-57400000D02*
X-156000000Y-65863604D01*
X-153100000Y-40690812D02*
X-153100000Y-54500000D01*
X-150559188Y-38150000D02*
X-153100000Y-40690812D01*
X-153100000Y-54500000D02*
X-156000000Y-57400000D01*
X-148150000Y-38150000D02*
X-150559188Y-38150000D01*
X-147100000Y-37100000D02*
X-148150000Y-38150000D01*
X-147100000Y-28940812D02*
X-147100000Y-37100000D01*
X-131488604Y-26875000D02*
X-145034188Y-26875000D01*
X-129750000Y-29750000D02*
X-129750000Y-28613604D01*
X-129750000Y-28613604D02*
X-131488604Y-26875000D01*
X-127250000Y-30500000D02*
X-129000000Y-30500000D01*
X-125920000Y-31830000D02*
X-127250000Y-30500000D01*
X-129000000Y-30500000D02*
X-129750000Y-29750000D01*
X-124300000Y-31830000D02*
X-125920000Y-31830000D01*
X-145034188Y-26875000D02*
X-147100000Y-28940812D01*
X-166750000Y-73675000D02*
X-163675000Y-73675000D01*
%TO.N,LED_Green*%
X-164475000Y-73225000D02*
X-163500000Y-72250000D01*
X-166500000Y-73225000D02*
X-164475000Y-73225000D01*
X-167000000Y-72725000D02*
X-166500000Y-73225000D01*
X-167000000Y-71800000D02*
X-167000000Y-72725000D01*
X-162200000Y-67000000D02*
X-167000000Y-71800000D01*
X-155500000Y-66000000D02*
X-156500000Y-67000000D01*
X-155500000Y-57613604D02*
X-155500000Y-66000000D01*
X-152650000Y-54763604D02*
X-155500000Y-57613604D01*
X-152650000Y-40877208D02*
X-152650000Y-54763604D01*
X-150372792Y-38600000D02*
X-152650000Y-40877208D01*
X-147963604Y-38600000D02*
X-150372792Y-38600000D01*
X-146650000Y-37286396D02*
X-147963604Y-38600000D01*
X-146650000Y-29127208D02*
X-146650000Y-37286396D01*
X-131675000Y-27325000D02*
X-144847792Y-27325000D01*
X-130250000Y-30000000D02*
X-130250000Y-28750000D01*
X-129250000Y-31000000D02*
X-130250000Y-30000000D01*
X-127650000Y-31100000D02*
X-127750000Y-31000000D01*
X-156500000Y-67000000D02*
X-162200000Y-67000000D01*
X-130250000Y-28750000D02*
X-131675000Y-27325000D01*
X-144847792Y-27325000D02*
X-146650000Y-29127208D01*
X-127650000Y-31855000D02*
X-127650000Y-31100000D01*
X-127750000Y-31000000D02*
X-129250000Y-31000000D01*
%TO.N,unconnected-(P2-SHIELD-PadS1)*%
X-123520000Y-79320000D02*
X-123525000Y-79320000D01*
X-122350000Y-72000000D02*
X-122350000Y-78150000D01*
X-122350000Y-78150000D02*
X-123520000Y-79320000D01*
X-123525000Y-70680000D02*
X-123525000Y-70825000D01*
X-123525000Y-70825000D02*
X-122350000Y-72000000D01*
%TO.N,EXTERNAL_WOKE_UP*%
X-151800000Y-100824500D02*
X-152200000Y-101224500D01*
X-151800000Y-78950000D02*
X-151800000Y-100824500D01*
X-151100000Y-78250000D02*
X-151800000Y-78950000D01*
X-149775000Y-78250000D02*
X-151100000Y-78250000D01*
X-148300000Y-63600000D02*
X-148300000Y-66850000D01*
X-148300000Y-66850000D02*
X-149025000Y-67575000D01*
X-149025000Y-77500000D02*
X-149775000Y-78250000D01*
X-149650000Y-62250000D02*
X-148300000Y-63600000D01*
X-150400000Y-62250000D02*
X-149650000Y-62250000D01*
X-149025000Y-67575000D02*
X-149025000Y-77500000D01*
%TO.N,+3.3V*%
X-154250000Y-83250000D02*
X-155500000Y-83250000D01*
X-152250000Y-81250000D02*
X-154250000Y-83250000D01*
X-150150000Y-77500000D02*
X-151000000Y-77500000D01*
X-151000000Y-77500000D02*
X-152250000Y-78750000D01*
X-149750000Y-77100000D02*
X-149750000Y-66950000D01*
X-152250000Y-78750000D02*
X-152250000Y-81250000D01*
X-150150000Y-77500000D02*
X-149750000Y-77100000D01*
X-149750000Y-66950000D02*
X-149500000Y-66700000D01*
%TO.N,SCL*%
X-135500000Y-30600000D02*
X-135500000Y-47750000D01*
X-137875000Y-28225000D02*
X-135500000Y-30600000D01*
X-145750000Y-29500000D02*
X-144475000Y-28225000D01*
X-145750000Y-37686396D02*
X-145750000Y-29500000D01*
X-147563604Y-39500000D02*
X-145750000Y-37686396D01*
X-150000000Y-39500000D02*
X-147563604Y-39500000D01*
X-151750000Y-41250000D02*
X-150000000Y-39500000D01*
X-154500000Y-58000000D02*
X-151750000Y-55250000D01*
X-154500000Y-68161701D02*
X-154500000Y-58000000D01*
X-156750000Y-70411700D02*
X-154500000Y-68161701D01*
X-151750000Y-55250000D02*
X-151750000Y-41250000D01*
X-144475000Y-28225000D02*
X-137875000Y-28225000D01*
X-156750000Y-77250000D02*
X-156750000Y-70411700D01*
X-158750000Y-79224695D02*
X-156775305Y-77250000D01*
X-156775305Y-77250000D02*
X-156750000Y-77250000D01*
X-158750000Y-79250000D02*
X-158750000Y-79224695D01*
%TO.N,SDA*%
X-134792000Y-39708000D02*
X-134750000Y-39750000D01*
X-134792000Y-29858000D02*
X-134792000Y-39708000D01*
X-136875000Y-27775000D02*
X-134792000Y-29858000D01*
X-146200000Y-29313604D02*
X-144661396Y-27775000D01*
X-146200000Y-37500000D02*
X-146200000Y-29313604D01*
X-147750000Y-39050000D02*
X-146200000Y-37500000D01*
X-150186396Y-39050000D02*
X-147750000Y-39050000D01*
X-155000000Y-61250000D02*
X-155000000Y-57750000D01*
X-144661396Y-27775000D02*
X-136875000Y-27775000D01*
X-154987347Y-61262653D02*
X-155000000Y-61250000D01*
X-154987347Y-68012653D02*
X-154987347Y-61262653D01*
X-157250000Y-70275306D02*
X-154987347Y-68012653D01*
X-152200000Y-54950000D02*
X-152200000Y-41063604D01*
X-157250000Y-76500000D02*
X-157250000Y-70275306D01*
X-160000000Y-79250000D02*
X-157250000Y-76500000D01*
X-152200000Y-41063604D02*
X-150186396Y-39050000D01*
X-155000000Y-57750000D02*
X-152200000Y-54950000D01*
%TO.N,8*%
X-143500000Y-38593500D02*
X-141980000Y-37073500D01*
X-143500000Y-39463604D02*
X-143500000Y-38593500D01*
X-142391000Y-68809000D02*
X-142391000Y-40572604D01*
X-142391000Y-40572604D02*
X-143500000Y-39463604D01*
X-143250000Y-76200000D02*
X-140725873Y-73675873D01*
X-143250000Y-78449550D02*
X-143250000Y-76200000D01*
X-140725873Y-70474127D02*
X-142391000Y-68809000D01*
X-143600000Y-78799550D02*
X-143250000Y-78449550D01*
X-144425500Y-78799550D02*
X-143600000Y-78799550D01*
X-140725873Y-73675873D02*
X-140725873Y-70474127D01*
%TO.N,ADC*%
X-146000000Y-72750000D02*
X-142221000Y-72750000D01*
X-146517058Y-73267058D02*
X-146000000Y-72750000D01*
X-146750060Y-73267058D02*
X-146517058Y-73267058D01*
%TO.N,Net-(J4-Pin_1)*%
X-148450000Y-60000000D02*
X-147250000Y-60000000D01*
%TO.N,RTC_VBAT*%
X-152600000Y-91700000D02*
X-152600000Y-84650000D01*
X-155200000Y-94300000D02*
X-152600000Y-91700000D01*
%TO.N,ACTION*%
X-133516127Y-76683873D02*
X-133516127Y-52766127D01*
X-133200000Y-77000000D02*
X-133516127Y-76683873D01*
X-133516127Y-77316127D02*
X-133200000Y-77000000D01*
%TO.N,GND*%
X-127250000Y-40975000D02*
X-127125000Y-40850000D01*
X-127250000Y-42750000D02*
X-127250000Y-40975000D01*
%TO.N,Net-(J4-Pin_1)*%
X-146500000Y-59250000D02*
X-146500000Y-48250000D01*
X-147250000Y-60000000D02*
X-146500000Y-59250000D01*
X-146500000Y-48250000D02*
X-146250000Y-48000000D01*
%TO.N,+3.3V*%
X-128975000Y-38725000D02*
X-129000000Y-38750000D01*
X-128975000Y-37300000D02*
X-128975000Y-38725000D01*
%TO.N,GND*%
X-131500000Y-104348000D02*
X-131500000Y-100000000D01*
X-131566000Y-104414000D02*
X-131500000Y-104348000D01*
%TO.N,SCL*%
X-153250000Y-101500000D02*
X-153250000Y-99500000D01*
X-158750000Y-81525305D02*
X-158750000Y-79250000D01*
X-158050305Y-82225000D02*
X-158750000Y-81525305D01*
X-158050305Y-83825610D02*
X-158050305Y-82225000D01*
X-159525000Y-84475000D02*
X-158699695Y-84475000D01*
X-158699695Y-84475000D02*
X-158050305Y-83825610D01*
X-160000000Y-84000000D02*
X-159525000Y-84475000D01*
%TO.N,SDA*%
X-160000000Y-82750000D02*
X-159000000Y-83750000D01*
X-160000000Y-79250000D02*
X-160000000Y-82750000D01*
%TO.N,PA14*%
X-157250000Y-81000000D02*
X-157750000Y-81500000D01*
X-157250000Y-78750000D02*
X-157250000Y-81000000D01*
%TO.N,Net-(JP13-A)*%
X-159250000Y-49750000D02*
X-159250000Y-47500000D01*
%TO.N,4*%
X-144100000Y-34850000D02*
X-143783500Y-34533500D01*
X-143783500Y-34533500D02*
X-141980000Y-34533500D01*
X-144100000Y-39500000D02*
X-144100000Y-34850000D01*
X-142841000Y-40759000D02*
X-144100000Y-39500000D01*
X-142841000Y-68616306D02*
X-142841000Y-40759000D01*
X-146746565Y-72267562D02*
X-146492256Y-72267562D01*
X-146492256Y-72267562D02*
X-142841000Y-68616306D01*
%TO.N,2*%
X-144550000Y-39700000D02*
X-144550000Y-32750000D01*
X-143291000Y-67977299D02*
X-143291000Y-40959000D01*
X-143291000Y-40959000D02*
X-144550000Y-39700000D01*
X-144550000Y-32750000D02*
X-143793500Y-31993500D01*
X-146576000Y-71262299D02*
X-143291000Y-67977299D01*
X-146737701Y-71262299D02*
X-146576000Y-71262299D01*
X-143793500Y-31993500D02*
X-141980000Y-31993500D01*
%TO.N,1*%
X-143953500Y-29453500D02*
X-141980000Y-29453500D01*
X-145000000Y-39899060D02*
X-145000000Y-30500000D01*
X-143741000Y-41158060D02*
X-145000000Y-39899060D01*
X-146719502Y-70030498D02*
X-146369504Y-70030498D01*
X-145000000Y-30500000D02*
X-143953500Y-29453500D01*
X-143741000Y-67401994D02*
X-143741000Y-41158060D01*
X-146369504Y-70030498D02*
X-143741000Y-67401994D01*
%TO.N,ACTION*%
X-130750000Y-49250000D02*
X-132000000Y-50500000D01*
X-132000000Y-51250000D02*
X-132000000Y-50500000D01*
X-130750000Y-49250000D02*
X-125500000Y-49250000D01*
X-122850000Y-38150000D02*
X-124575000Y-38150000D01*
X-122500000Y-38500000D02*
X-122850000Y-38150000D01*
X-125500000Y-49250000D02*
X-122500000Y-46250000D01*
X-122500000Y-46250000D02*
X-122500000Y-38500000D01*
X-133516127Y-79983873D02*
X-133516127Y-77316127D01*
X-133516127Y-52766127D02*
X-132000000Y-51250000D01*
X-126250000Y-87250000D02*
X-133516127Y-79983873D01*
%TO.N,nrf_MISO*%
X-146425500Y-79750000D02*
X-144425500Y-77750000D01*
X-150000000Y-79750000D02*
X-146425500Y-79750000D01*
%TO.N,unconnected-(P2-SHIELD-PadS1)*%
X-127725000Y-79320000D02*
X-123525000Y-79320000D01*
X-127725000Y-70680000D02*
X-123525000Y-70680000D01*
%TO.N,NRST*%
X-161250000Y-67750000D02*
X-166000000Y-72500000D01*
X-155750000Y-67750000D02*
X-161250000Y-67750000D01*
%TO.N,Net-(D3-K)*%
X-124300000Y-32975000D02*
X-124300000Y-33675000D01*
X-124300000Y-33675000D02*
X-123375000Y-34600000D01*
%TO.N,GND*%
X-125200000Y-34600000D02*
X-126887500Y-34600000D01*
%TO.N,Net-(D1-K)*%
X-127650000Y-33537500D02*
X-128712500Y-34600000D01*
X-127650000Y-33000000D02*
X-127650000Y-33537500D01*
%TO.N,+3.3V*%
X-133217000Y-31993500D02*
X-133217000Y-29453500D01*
X-133217000Y-34533500D02*
X-133217000Y-31993500D01*
X-133217000Y-37073500D02*
X-133217000Y-34533500D01*
X-132990500Y-37300000D02*
X-133217000Y-37073500D01*
X-128975000Y-37300000D02*
X-132990500Y-37300000D01*
%TO.N,ACTION*%
X-127150000Y-39100000D02*
X-127125000Y-39125000D01*
X-127150000Y-37300000D02*
X-127150000Y-39100000D01*
X-126300000Y-38150000D02*
X-127150000Y-37300000D01*
X-124575000Y-38150000D02*
X-126300000Y-38150000D01*
%TO.N,GND*%
X-125625000Y-42350000D02*
X-127125000Y-40850000D01*
X-124575000Y-42350000D02*
X-125625000Y-42350000D01*
%TO.N,SCL*%
X-130750000Y-53750000D02*
X-132000000Y-52500000D01*
X-126500000Y-53750000D02*
X-130750000Y-53750000D01*
%TO.N,Net-(BT4-+)*%
X-162152000Y-43500000D02*
X-162066000Y-43414000D01*
X-167000000Y-43500000D02*
X-162152000Y-43500000D01*
%TD*%
%TA.AperFunction,Conductor*%
%TO.N,GND*%
G36*
X-121657461Y-23820185D02*
G01*
X-121611706Y-23872989D01*
X-121600500Y-23924500D01*
X-121600500Y-50675500D01*
X-121620185Y-50742539D01*
X-121672989Y-50788294D01*
X-121724500Y-50799500D01*
X-129375240Y-50799500D01*
X-129375446Y-50799459D01*
X-129400001Y-50799459D01*
X-129400100Y-50799500D01*
X-129400381Y-50799615D01*
X-129400384Y-50799618D01*
X-129400462Y-50799808D01*
X-129400541Y-50800000D01*
X-129400539Y-50800002D01*
X-129400524Y-50824616D01*
X-129400528Y-50824616D01*
X-129400500Y-50824759D01*
X-129400500Y-52175467D01*
X-129400583Y-52175889D01*
X-129400540Y-52199997D01*
X-129400541Y-52200000D01*
X-129400500Y-52200099D01*
X-129400383Y-52200383D01*
X-129400000Y-52200541D01*
X-129399997Y-52200539D01*
X-129375384Y-52200524D01*
X-129375383Y-52200528D01*
X-129375240Y-52200500D01*
X-121724500Y-52200500D01*
X-121657461Y-52220185D01*
X-121611706Y-52272989D01*
X-121600500Y-52324500D01*
X-121600500Y-57075500D01*
X-121620185Y-57142539D01*
X-121672989Y-57188294D01*
X-121724500Y-57199500D01*
X-129375240Y-57199500D01*
X-129375446Y-57199459D01*
X-129400001Y-57199459D01*
X-129400100Y-57199500D01*
X-129400381Y-57199615D01*
X-129400384Y-57199618D01*
X-129400462Y-57199808D01*
X-129400541Y-57200000D01*
X-129400539Y-57200002D01*
X-129400524Y-57224616D01*
X-129400528Y-57224616D01*
X-129400500Y-57224759D01*
X-129400500Y-58575467D01*
X-129400583Y-58575889D01*
X-129400540Y-58599997D01*
X-129400541Y-58600000D01*
X-129400500Y-58600099D01*
X-129400383Y-58600383D01*
X-129400000Y-58600541D01*
X-129399997Y-58600539D01*
X-129375384Y-58600524D01*
X-129375383Y-58600528D01*
X-129375240Y-58600500D01*
X-121724500Y-58600500D01*
X-121657461Y-58620185D01*
X-121611706Y-58672989D01*
X-121600500Y-58724500D01*
X-121600500Y-71585286D01*
X-121620185Y-71652325D01*
X-121672989Y-71698080D01*
X-121742147Y-71708024D01*
X-121805703Y-71678999D01*
X-121831231Y-71648410D01*
X-121836477Y-71639540D01*
X-121851830Y-71613580D01*
X-121851833Y-71613576D01*
X-121865996Y-71599413D01*
X-121878626Y-71584624D01*
X-121890404Y-71568413D01*
X-121924058Y-71540572D01*
X-121932697Y-71532711D01*
X-122202903Y-71262505D01*
X-122236388Y-71201182D01*
X-122231404Y-71131490D01*
X-122226550Y-71120215D01*
X-122181940Y-71029272D01*
X-122149314Y-70903262D01*
X-122130937Y-70832285D01*
X-122125797Y-70730936D01*
X-122120630Y-70629062D01*
X-122151443Y-70427928D01*
X-122222113Y-70237113D01*
X-122329745Y-70064431D01*
X-122434369Y-69954369D01*
X-122469941Y-69916947D01*
X-122546163Y-69863895D01*
X-122636950Y-69800705D01*
X-122823941Y-69720460D01*
X-122890381Y-69706806D01*
X-123023259Y-69679500D01*
X-123975742Y-69679500D01*
X-123978853Y-69679816D01*
X-123978865Y-69679817D01*
X-124127440Y-69694926D01*
X-124208821Y-69720460D01*
X-124321588Y-69755841D01*
X-124470564Y-69838529D01*
X-124499502Y-69854591D01*
X-124588310Y-69930831D01*
X-124653895Y-69987134D01*
X-124659564Y-69994458D01*
X-124668810Y-70006402D01*
X-124725412Y-70047366D01*
X-124766866Y-70054500D01*
X-126335974Y-70054500D01*
X-126403013Y-70034815D01*
X-126425843Y-70015936D01*
X-126519941Y-69916947D01*
X-126596163Y-69863895D01*
X-126686950Y-69800705D01*
X-126873941Y-69720460D01*
X-126940381Y-69706806D01*
X-127073259Y-69679500D01*
X-128325742Y-69679500D01*
X-128328853Y-69679816D01*
X-128328865Y-69679817D01*
X-128477440Y-69694926D01*
X-128558821Y-69720460D01*
X-128671588Y-69755841D01*
X-128782551Y-69817430D01*
X-128849499Y-69854589D01*
X-128849500Y-69854589D01*
X-128849502Y-69854591D01*
X-129003895Y-69987134D01*
X-129128448Y-70148042D01*
X-129218060Y-70330729D01*
X-129269063Y-70527715D01*
X-129279369Y-70730936D01*
X-129248556Y-70932071D01*
X-129177886Y-71122887D01*
X-129128393Y-71202291D01*
X-129072062Y-71292668D01*
X-129070252Y-71295571D01*
X-128930059Y-71443053D01*
X-128763049Y-71559295D01*
X-128576058Y-71639540D01*
X-128376741Y-71680500D01*
X-127835591Y-71680500D01*
X-127768552Y-71700185D01*
X-127722797Y-71752989D01*
X-127712853Y-71822147D01*
X-127721030Y-71851953D01*
X-127765687Y-71959764D01*
X-127785466Y-72110000D01*
X-127765687Y-72260236D01*
X-127707698Y-72400233D01*
X-127615451Y-72520451D01*
X-127495233Y-72612698D01*
X-127355236Y-72670687D01*
X-127242720Y-72685500D01*
X-127238667Y-72685500D01*
X-127171333Y-72685500D01*
X-127167280Y-72685500D01*
X-127054764Y-72670687D01*
X-126914767Y-72612698D01*
X-126794549Y-72520451D01*
X-126702302Y-72400233D01*
X-126694632Y-72381716D01*
X-126644312Y-72260235D01*
X-126624533Y-72110000D01*
X-126644312Y-71959764D01*
X-126702302Y-71819766D01*
X-126753505Y-71753037D01*
X-126778699Y-71687868D01*
X-126764660Y-71619423D01*
X-126715846Y-71569433D01*
X-126715487Y-71569232D01*
X-126600498Y-71505409D01*
X-126446105Y-71372866D01*
X-126431190Y-71353598D01*
X-126374588Y-71312634D01*
X-126333134Y-71305500D01*
X-124764026Y-71305500D01*
X-124696987Y-71325185D01*
X-124674156Y-71344063D01*
X-124580059Y-71443053D01*
X-124413049Y-71559295D01*
X-124226058Y-71639540D01*
X-124026741Y-71680500D01*
X-123605452Y-71680500D01*
X-123538413Y-71700185D01*
X-123517771Y-71716819D01*
X-123011817Y-72222772D01*
X-122978334Y-72284093D01*
X-122975500Y-72310451D01*
X-122975500Y-77839547D01*
X-122995185Y-77906586D01*
X-123011819Y-77927228D01*
X-123367772Y-78283181D01*
X-123429095Y-78316666D01*
X-123455453Y-78319500D01*
X-123975742Y-78319500D01*
X-123978853Y-78319816D01*
X-123978865Y-78319817D01*
X-124127440Y-78334926D01*
X-124244537Y-78371666D01*
X-124321588Y-78395841D01*
X-124463330Y-78474514D01*
X-124499502Y-78494591D01*
X-124651925Y-78625443D01*
X-124653895Y-78627134D01*
X-124660592Y-78635786D01*
X-124668810Y-78646402D01*
X-124725412Y-78687366D01*
X-124766866Y-78694500D01*
X-126335974Y-78694500D01*
X-126403013Y-78674815D01*
X-126425843Y-78655936D01*
X-126519941Y-78556947D01*
X-126585417Y-78511374D01*
X-126686953Y-78440703D01*
X-126702285Y-78434124D01*
X-126756128Y-78389597D01*
X-126777351Y-78323029D01*
X-126759215Y-78255554D01*
X-126751760Y-78244687D01*
X-126739737Y-78229019D01*
X-126702302Y-78180233D01*
X-126688970Y-78148047D01*
X-126644312Y-78040235D01*
X-126624533Y-77890000D01*
X-126644312Y-77739764D01*
X-126702301Y-77599768D01*
X-126794549Y-77479549D01*
X-126914768Y-77387301D01*
X-127054764Y-77329313D01*
X-127163260Y-77315029D01*
X-127163263Y-77315028D01*
X-127167280Y-77314500D01*
X-127242720Y-77314500D01*
X-127246737Y-77315028D01*
X-127246739Y-77315029D01*
X-127296356Y-77321561D01*
X-127355236Y-77329313D01*
X-127408727Y-77351470D01*
X-127481747Y-77381716D01*
X-127495233Y-77387302D01*
X-127615451Y-77479549D01*
X-127707698Y-77599767D01*
X-127737986Y-77672888D01*
X-127765687Y-77739764D01*
X-127782909Y-77870581D01*
X-127785466Y-77890000D01*
X-127770878Y-78000802D01*
X-127765687Y-78040235D01*
X-127721030Y-78148047D01*
X-127713561Y-78217517D01*
X-127744836Y-78279996D01*
X-127804925Y-78315648D01*
X-127835591Y-78319500D01*
X-128325742Y-78319500D01*
X-128328853Y-78319816D01*
X-128328865Y-78319817D01*
X-128477440Y-78334926D01*
X-128594537Y-78371666D01*
X-128671588Y-78395841D01*
X-128758958Y-78444335D01*
X-128849499Y-78494589D01*
X-128849500Y-78494589D01*
X-128849502Y-78494591D01*
X-129003895Y-78627134D01*
X-129128448Y-78788042D01*
X-129218060Y-78970729D01*
X-129269063Y-79167715D01*
X-129278967Y-79363003D01*
X-129279369Y-79370937D01*
X-129271507Y-79422258D01*
X-129248556Y-79572071D01*
X-129177886Y-79762887D01*
X-129070252Y-79935571D01*
X-128930059Y-80083053D01*
X-128763049Y-80199295D01*
X-128576058Y-80279540D01*
X-128376741Y-80320500D01*
X-128376739Y-80320500D01*
X-127127400Y-80320500D01*
X-127124258Y-80320500D01*
X-126972562Y-80305074D01*
X-126778412Y-80244159D01*
X-126600498Y-80145409D01*
X-126446105Y-80012866D01*
X-126431190Y-79993598D01*
X-126374588Y-79952634D01*
X-126333134Y-79945500D01*
X-124764026Y-79945500D01*
X-124696987Y-79965185D01*
X-124674156Y-79984063D01*
X-124580059Y-80083053D01*
X-124413049Y-80199295D01*
X-124226058Y-80279540D01*
X-124026741Y-80320500D01*
X-124026739Y-80320500D01*
X-123077400Y-80320500D01*
X-123074258Y-80320500D01*
X-122922562Y-80305074D01*
X-122728412Y-80244159D01*
X-122550498Y-80145409D01*
X-122396105Y-80012866D01*
X-122271552Y-79851958D01*
X-122271551Y-79851957D01*
X-122181940Y-79669272D01*
X-122159785Y-79583702D01*
X-122130937Y-79472285D01*
X-122128545Y-79425111D01*
X-122120630Y-79269062D01*
X-122151443Y-79067931D01*
X-122186510Y-78973246D01*
X-122191333Y-78903543D01*
X-122157909Y-78842500D01*
X-121966211Y-78650802D01*
X-121950113Y-78637906D01*
X-121902098Y-78586775D01*
X-121899387Y-78583978D01*
X-121882636Y-78567227D01*
X-121879880Y-78564471D01*
X-121877412Y-78561290D01*
X-121869837Y-78552422D01*
X-121839938Y-78520582D01*
X-121838468Y-78517909D01*
X-121833163Y-78508258D01*
X-121783618Y-78458993D01*
X-121715303Y-78444335D01*
X-121649909Y-78468937D01*
X-121608196Y-78524989D01*
X-121600500Y-78567993D01*
X-121600500Y-110875500D01*
X-121620185Y-110942539D01*
X-121672989Y-110988294D01*
X-121724500Y-110999500D01*
X-172475500Y-110999500D01*
X-172542539Y-110979815D01*
X-172588294Y-110927011D01*
X-172599500Y-110875500D01*
X-172599500Y-107400000D01*
X-171755527Y-107400000D01*
X-171735436Y-107732142D01*
X-171675456Y-108059441D01*
X-171576463Y-108377123D01*
X-171439898Y-108680557D01*
X-171267754Y-108965318D01*
X-171062542Y-109227252D01*
X-170827252Y-109462542D01*
X-170565318Y-109667754D01*
X-170280557Y-109839898D01*
X-169977123Y-109976463D01*
X-169659441Y-110075456D01*
X-169332142Y-110135436D01*
X-169000000Y-110155527D01*
X-168667858Y-110135436D01*
X-168340559Y-110075456D01*
X-168022877Y-109976463D01*
X-167719443Y-109839898D01*
X-167434682Y-109667754D01*
X-167172748Y-109462542D01*
X-166937458Y-109227252D01*
X-166732246Y-108965318D01*
X-166560102Y-108680557D01*
X-166423537Y-108377123D01*
X-166324544Y-108059441D01*
X-166323871Y-108055770D01*
X-166323869Y-108055761D01*
X-166265239Y-107735826D01*
X-166265238Y-107735824D01*
X-166264564Y-107732142D01*
X-166264338Y-107728416D01*
X-166264337Y-107728403D01*
X-166244699Y-107403736D01*
X-166244473Y-107400000D01*
X-166244699Y-107396263D01*
X-166264337Y-107071596D01*
X-166264338Y-107071581D01*
X-166264564Y-107067858D01*
X-166277308Y-106998315D01*
X-166323869Y-106744238D01*
X-166323872Y-106744225D01*
X-166324544Y-106740559D01*
X-166325655Y-106736991D01*
X-166325658Y-106736982D01*
X-166422422Y-106426454D01*
X-166422424Y-106426448D01*
X-166423537Y-106422877D01*
X-166524104Y-106199428D01*
X-166558565Y-106122858D01*
X-166558565Y-106122857D01*
X-166560102Y-106119443D01*
X-166562031Y-106116250D01*
X-166562039Y-106116237D01*
X-166730309Y-105837886D01*
X-166730309Y-105837884D01*
X-166732246Y-105834682D01*
X-166734550Y-105831740D01*
X-166734555Y-105831734D01*
X-166935146Y-105575699D01*
X-166935146Y-105575698D01*
X-166937458Y-105572748D01*
X-166940103Y-105570102D01*
X-166940111Y-105570094D01*
X-167170094Y-105340111D01*
X-167170102Y-105340103D01*
X-167172748Y-105337458D01*
X-167175699Y-105335146D01*
X-167431734Y-105134555D01*
X-167431740Y-105134550D01*
X-167434682Y-105132246D01*
X-167437886Y-105130309D01*
X-167716237Y-104962039D01*
X-167716250Y-104962031D01*
X-167719443Y-104960102D01*
X-168022877Y-104823537D01*
X-168026448Y-104822424D01*
X-168026454Y-104822422D01*
X-168336982Y-104725658D01*
X-168336991Y-104725655D01*
X-168340559Y-104724544D01*
X-168344225Y-104723872D01*
X-168344238Y-104723869D01*
X-168664173Y-104665239D01*
X-168664177Y-104665238D01*
X-168667858Y-104664564D01*
X-168671581Y-104664338D01*
X-168671596Y-104664337D01*
X-168996264Y-104644699D01*
X-169000000Y-104644473D01*
X-169003736Y-104644699D01*
X-169328403Y-104664337D01*
X-169328416Y-104664338D01*
X-169332142Y-104664564D01*
X-169335824Y-104665238D01*
X-169335826Y-104665239D01*
X-169655761Y-104723869D01*
X-169655770Y-104723871D01*
X-169659441Y-104724544D01*
X-169663012Y-104725656D01*
X-169663017Y-104725658D01*
X-169797463Y-104767553D01*
X-169977123Y-104823537D01*
X-170280557Y-104960102D01*
X-170283755Y-104962035D01*
X-170283762Y-104962039D01*
X-170422937Y-105046173D01*
X-170565318Y-105132246D01*
X-170827252Y-105337458D01*
X-171062542Y-105572748D01*
X-171267754Y-105834682D01*
X-171439898Y-106119443D01*
X-171576463Y-106422877D01*
X-171675456Y-106740559D01*
X-171735436Y-107067858D01*
X-171755527Y-107400000D01*
X-172599500Y-107400000D01*
X-172599500Y-43500000D01*
X-167905460Y-43500000D01*
X-167885674Y-43688256D01*
X-167827179Y-43868284D01*
X-167732533Y-44032216D01*
X-167611598Y-44166528D01*
X-167605870Y-44172889D01*
X-167500423Y-44249500D01*
X-167452730Y-44284151D01*
X-167279803Y-44361144D01*
X-167218084Y-44374262D01*
X-167094648Y-44400500D01*
X-167094646Y-44400500D01*
X-166905352Y-44400500D01*
X-166720197Y-44361144D01*
X-166547272Y-44284152D01*
X-166547271Y-44284151D01*
X-166547270Y-44284151D01*
X-166394129Y-44172888D01*
X-166388401Y-44166527D01*
X-166328916Y-44129879D01*
X-166296253Y-44125500D01*
X-165690500Y-44125500D01*
X-165623461Y-44145185D01*
X-165577706Y-44197989D01*
X-165566500Y-44249499D01*
X-165566500Y-44985448D01*
X-165551196Y-45199428D01*
X-165490369Y-45479046D01*
X-165390367Y-45747161D01*
X-165253226Y-45998315D01*
X-165081739Y-46227395D01*
X-164879395Y-46429739D01*
X-164650315Y-46601226D01*
X-164399161Y-46738367D01*
X-164131046Y-46838369D01*
X-163851428Y-46899196D01*
X-163637448Y-46914500D01*
X-163635233Y-46914500D01*
X-160496767Y-46914500D01*
X-160494552Y-46914500D01*
X-160280572Y-46899196D01*
X-160168333Y-46874780D01*
X-160098641Y-46879764D01*
X-160042708Y-46921636D01*
X-160018291Y-46987100D01*
X-160033143Y-47055373D01*
X-160034588Y-47057946D01*
X-160077179Y-47131715D01*
X-160079499Y-47138856D01*
X-160135674Y-47311744D01*
X-160155460Y-47500000D01*
X-160135674Y-47688256D01*
X-160077179Y-47868284D01*
X-159982533Y-48032216D01*
X-159907350Y-48115714D01*
X-159877120Y-48178706D01*
X-159875500Y-48198687D01*
X-159875500Y-49051312D01*
X-159895185Y-49118351D01*
X-159907350Y-49134284D01*
X-159982533Y-49217783D01*
X-160077179Y-49381715D01*
X-160077179Y-49381716D01*
X-160135674Y-49561744D01*
X-160155460Y-49750000D01*
X-160135674Y-49938256D01*
X-160105055Y-50032490D01*
X-160077179Y-50118284D01*
X-159982533Y-50282216D01*
X-159855870Y-50422889D01*
X-159776993Y-50480196D01*
X-159702730Y-50534151D01*
X-159529803Y-50611144D01*
X-159468084Y-50624262D01*
X-159344648Y-50650500D01*
X-159344646Y-50650500D01*
X-159155352Y-50650500D01*
X-158970197Y-50611144D01*
X-158797269Y-50534151D01*
X-158644129Y-50422889D01*
X-158517466Y-50282216D01*
X-158422820Y-50118284D01*
X-158364326Y-49938257D01*
X-158344540Y-49750000D01*
X-158364326Y-49561742D01*
X-158422820Y-49381715D01*
X-158517466Y-49217783D01*
X-158592650Y-49134284D01*
X-158622880Y-49071293D01*
X-158624500Y-49051312D01*
X-158624500Y-48198687D01*
X-158604815Y-48131648D01*
X-158592650Y-48115714D01*
X-158517464Y-48032213D01*
X-158422820Y-47868284D01*
X-158364326Y-47688257D01*
X-158344540Y-47500000D01*
X-158364326Y-47311742D01*
X-158422820Y-47131715D01*
X-158517466Y-46967783D01*
X-158644129Y-46827110D01*
X-158797269Y-46715848D01*
X-158970197Y-46638855D01*
X-159152171Y-46600176D01*
X-159213653Y-46566984D01*
X-159247429Y-46505821D01*
X-159242777Y-46436106D01*
X-159214071Y-46391205D01*
X-159050263Y-46227397D01*
X-159050261Y-46227395D01*
X-158900417Y-46027227D01*
X-158878772Y-45998313D01*
X-158741634Y-45747163D01*
X-158641629Y-45479041D01*
X-158580804Y-45199429D01*
X-158565658Y-44987658D01*
X-158565657Y-44987656D01*
X-158565500Y-44985448D01*
X-158565500Y-41842552D01*
X-158574614Y-41715124D01*
X-158580804Y-41628570D01*
X-158641629Y-41348958D01*
X-158741634Y-41080836D01*
X-158878772Y-40829686D01*
X-159050263Y-40600602D01*
X-159252602Y-40398263D01*
X-159481686Y-40226772D01*
X-159732836Y-40089634D01*
X-160000958Y-39989629D01*
X-160280570Y-39928804D01*
X-160492341Y-39913658D01*
X-160492344Y-39913657D01*
X-160494552Y-39913500D01*
X-163637448Y-39913500D01*
X-163639656Y-39913657D01*
X-163639658Y-39913658D01*
X-163851429Y-39928804D01*
X-164131041Y-39989629D01*
X-164131046Y-39989631D01*
X-164399161Y-40089633D01*
X-164399162Y-40089633D01*
X-164399163Y-40089634D01*
X-164650313Y-40226772D01*
X-164726935Y-40284131D01*
X-164879395Y-40398261D01*
X-165081739Y-40600605D01*
X-165253226Y-40829685D01*
X-165390367Y-41080839D01*
X-165490369Y-41348954D01*
X-165551196Y-41628572D01*
X-165566500Y-41842552D01*
X-165566500Y-41844766D01*
X-165566500Y-41844767D01*
X-165566500Y-42750500D01*
X-165586185Y-42817539D01*
X-165638989Y-42863294D01*
X-165690500Y-42874500D01*
X-166296253Y-42874500D01*
X-166363292Y-42854815D01*
X-166388400Y-42833473D01*
X-166394129Y-42827112D01*
X-166445175Y-42790024D01*
X-166547272Y-42715847D01*
X-166720197Y-42638855D01*
X-166905352Y-42599500D01*
X-166905354Y-42599500D01*
X-167094646Y-42599500D01*
X-167094648Y-42599500D01*
X-167279802Y-42638855D01*
X-167452730Y-42715848D01*
X-167605870Y-42827110D01*
X-167732533Y-42967783D01*
X-167827179Y-43131715D01*
X-167827179Y-43131716D01*
X-167885674Y-43311744D01*
X-167905460Y-43500000D01*
X-172599500Y-43500000D01*
X-172599500Y-36024000D01*
X-172579815Y-35956961D01*
X-172527011Y-35911206D01*
X-172475500Y-35900000D01*
X-147849500Y-35900000D01*
X-147782461Y-35919685D01*
X-147736706Y-35972489D01*
X-147725500Y-36024000D01*
X-147725500Y-36789546D01*
X-147745185Y-36856585D01*
X-147761819Y-36877227D01*
X-148372772Y-37488181D01*
X-148434095Y-37521666D01*
X-148460453Y-37524500D01*
X-150476444Y-37524500D01*
X-150496950Y-37522235D01*
X-150567061Y-37524439D01*
X-150570956Y-37524500D01*
X-150598538Y-37524500D01*
X-150602407Y-37524988D01*
X-150602413Y-37524989D01*
X-150602531Y-37525004D01*
X-150614155Y-37525918D01*
X-150657814Y-37527290D01*
X-150673328Y-37531798D01*
X-150677050Y-37532879D01*
X-150696104Y-37536825D01*
X-150715980Y-37539335D01*
X-150756592Y-37555414D01*
X-150767639Y-37559197D01*
X-150809579Y-37571382D01*
X-150826823Y-37581580D01*
X-150844288Y-37590136D01*
X-150862920Y-37597514D01*
X-150862921Y-37597515D01*
X-150898247Y-37623180D01*
X-150908010Y-37629593D01*
X-150945604Y-37651826D01*
X-150945607Y-37651829D01*
X-150945608Y-37651830D01*
X-150959773Y-37665995D01*
X-150974563Y-37678627D01*
X-150990775Y-37690406D01*
X-151018614Y-37724058D01*
X-151026477Y-37732699D01*
X-153483787Y-40190008D01*
X-153499888Y-40202908D01*
X-153547900Y-40254035D01*
X-153550611Y-40256832D01*
X-153570120Y-40276341D01*
X-153572587Y-40279521D01*
X-153580155Y-40288383D01*
X-153610062Y-40320230D01*
X-153619712Y-40337784D01*
X-153630396Y-40354048D01*
X-153638238Y-40364158D01*
X-153642673Y-40369876D01*
X-153644978Y-40375203D01*
X-153660021Y-40409964D01*
X-153665154Y-40420443D01*
X-153686197Y-40458720D01*
X-153686197Y-40458721D01*
X-153691176Y-40478115D01*
X-153697477Y-40496520D01*
X-153705438Y-40514916D01*
X-153712273Y-40558073D01*
X-153714634Y-40569476D01*
X-153722627Y-40600605D01*
X-153725500Y-40611794D01*
X-153725500Y-40631828D01*
X-153727027Y-40651226D01*
X-153730160Y-40671008D01*
X-153726050Y-40714485D01*
X-153725500Y-40726155D01*
X-153725500Y-54189546D01*
X-153745185Y-54256585D01*
X-153761819Y-54277227D01*
X-156383787Y-56899196D01*
X-156399888Y-56912096D01*
X-156447900Y-56963223D01*
X-156450611Y-56966020D01*
X-156470120Y-56985529D01*
X-156472587Y-56988709D01*
X-156480155Y-56997571D01*
X-156510061Y-57029417D01*
X-156519712Y-57046972D01*
X-156530396Y-57063236D01*
X-156539499Y-57074972D01*
X-156542673Y-57079064D01*
X-156553424Y-57103909D01*
X-156560021Y-57119152D01*
X-156565154Y-57129631D01*
X-156586197Y-57167908D01*
X-156586197Y-57167909D01*
X-156591176Y-57187303D01*
X-156597477Y-57205708D01*
X-156605438Y-57224104D01*
X-156612273Y-57267261D01*
X-156614634Y-57278664D01*
X-156625500Y-57320981D01*
X-156625500Y-57320982D01*
X-156625500Y-57341016D01*
X-156627027Y-57360414D01*
X-156630160Y-57380196D01*
X-156626050Y-57423673D01*
X-156625500Y-57435343D01*
X-156625500Y-65553151D01*
X-156645185Y-65620190D01*
X-156661819Y-65640832D01*
X-156909168Y-65888181D01*
X-156970491Y-65921666D01*
X-156996849Y-65924500D01*
X-162303656Y-65924500D01*
X-162324159Y-65922236D01*
X-162394252Y-65924439D01*
X-162398146Y-65924500D01*
X-162425746Y-65924500D01*
X-162429605Y-65924987D01*
X-162429618Y-65924988D01*
X-162429752Y-65925005D01*
X-162441368Y-65925918D01*
X-162485024Y-65927290D01*
X-162504259Y-65932879D01*
X-162523314Y-65936825D01*
X-162543188Y-65939335D01*
X-162583803Y-65955415D01*
X-162594849Y-65959197D01*
X-162636786Y-65971382D01*
X-162654027Y-65981578D01*
X-162671497Y-65990137D01*
X-162690126Y-65997513D01*
X-162690128Y-65997514D01*
X-162699494Y-66004319D01*
X-162725464Y-66023187D01*
X-162735229Y-66029600D01*
X-162772813Y-66051827D01*
X-162772814Y-66051828D01*
X-162772817Y-66051830D01*
X-162786985Y-66065998D01*
X-162801776Y-66078630D01*
X-162817981Y-66090404D01*
X-162845818Y-66124053D01*
X-162853681Y-66132694D01*
X-167833787Y-71112800D01*
X-167849888Y-71125700D01*
X-167897900Y-71176827D01*
X-167900611Y-71179624D01*
X-167920120Y-71199133D01*
X-167922587Y-71202313D01*
X-167930155Y-71211175D01*
X-167960061Y-71243021D01*
X-167969712Y-71260576D01*
X-167980396Y-71276840D01*
X-167989499Y-71288576D01*
X-167992673Y-71292668D01*
X-167993929Y-71295571D01*
X-168010021Y-71332756D01*
X-168015154Y-71343235D01*
X-168036197Y-71381512D01*
X-168036197Y-71381513D01*
X-168041176Y-71400907D01*
X-168047477Y-71419312D01*
X-168055438Y-71437708D01*
X-168062273Y-71480865D01*
X-168064634Y-71492268D01*
X-168075019Y-71532711D01*
X-168075500Y-71534586D01*
X-168075500Y-71554620D01*
X-168077027Y-71574018D01*
X-168080160Y-71593800D01*
X-168076224Y-71635436D01*
X-168076050Y-71637277D01*
X-168075500Y-71648947D01*
X-168075500Y-72892256D01*
X-168077764Y-72912766D01*
X-168075561Y-72982872D01*
X-168075500Y-72986767D01*
X-168075500Y-73014350D01*
X-168074999Y-73018313D01*
X-168074080Y-73029962D01*
X-168072709Y-73073627D01*
X-168067120Y-73092859D01*
X-168063174Y-73111918D01*
X-168060664Y-73131792D01*
X-168044582Y-73172407D01*
X-168040803Y-73183444D01*
X-168028618Y-73225390D01*
X-168018422Y-73242629D01*
X-168009862Y-73260101D01*
X-168002486Y-73278732D01*
X-167976817Y-73314061D01*
X-167970399Y-73323830D01*
X-167948170Y-73361420D01*
X-167934004Y-73375585D01*
X-167921373Y-73390373D01*
X-167909594Y-73406587D01*
X-167875926Y-73434438D01*
X-167867309Y-73442279D01*
X-167250801Y-74058788D01*
X-167237906Y-74074885D01*
X-167235787Y-74076873D01*
X-167235786Y-74076877D01*
X-167186723Y-74122949D01*
X-167184055Y-74125534D01*
X-167164471Y-74145120D01*
X-167161292Y-74147585D01*
X-167152418Y-74155164D01*
X-167120582Y-74185062D01*
X-167103018Y-74194717D01*
X-167086764Y-74205394D01*
X-167070936Y-74217673D01*
X-167032960Y-74234105D01*
X-167030852Y-74235018D01*
X-167020363Y-74240156D01*
X-166982092Y-74261197D01*
X-166962684Y-74266179D01*
X-166944280Y-74272481D01*
X-166925896Y-74280437D01*
X-166882752Y-74287269D01*
X-166871338Y-74289633D01*
X-166829019Y-74300500D01*
X-166808983Y-74300500D01*
X-166789585Y-74302026D01*
X-166769804Y-74305160D01*
X-166729538Y-74301353D01*
X-166726328Y-74301050D01*
X-166714658Y-74300500D01*
X-163757744Y-74300500D01*
X-163737237Y-74302764D01*
X-163734333Y-74302672D01*
X-163734333Y-74302673D01*
X-163667127Y-74300561D01*
X-163663232Y-74300500D01*
X-163639541Y-74300500D01*
X-163635650Y-74300500D01*
X-163631678Y-74299998D01*
X-163620021Y-74299080D01*
X-163576373Y-74297709D01*
X-163557140Y-74292120D01*
X-163538082Y-74288174D01*
X-163518206Y-74285664D01*
X-163477604Y-74269588D01*
X-163466553Y-74265804D01*
X-163446168Y-74259881D01*
X-163424610Y-74253618D01*
X-163407355Y-74243414D01*
X-163389895Y-74234861D01*
X-163371268Y-74227486D01*
X-163335925Y-74201808D01*
X-163326171Y-74195401D01*
X-163288580Y-74173170D01*
X-163274416Y-74159006D01*
X-163259617Y-74146367D01*
X-163243413Y-74134595D01*
X-163215573Y-74100941D01*
X-163207709Y-74092299D01*
X-162302228Y-73186819D01*
X-162240905Y-73153334D01*
X-162214547Y-73150500D01*
X-162155352Y-73150500D01*
X-161970197Y-73111144D01*
X-161797269Y-73034151D01*
X-161644129Y-72922889D01*
X-161517466Y-72782216D01*
X-161422820Y-72618284D01*
X-161364326Y-72438257D01*
X-161354432Y-72344128D01*
X-161344540Y-72250000D01*
X-161347926Y-72217784D01*
X-161364326Y-72061742D01*
X-161422820Y-71881715D01*
X-161517466Y-71717783D01*
X-161644129Y-71577110D01*
X-161797269Y-71465848D01*
X-161970197Y-71388855D01*
X-162155352Y-71349500D01*
X-162155354Y-71349500D01*
X-162344646Y-71349500D01*
X-162344648Y-71349500D01*
X-162529802Y-71388855D01*
X-162702730Y-71465848D01*
X-162802115Y-71538055D01*
X-162867921Y-71561535D01*
X-162935975Y-71545709D01*
X-162947885Y-71538055D01*
X-163047269Y-71465848D01*
X-163220197Y-71388855D01*
X-163405352Y-71349500D01*
X-163405354Y-71349500D01*
X-163594646Y-71349500D01*
X-163594649Y-71349500D01*
X-163655388Y-71362410D01*
X-163725055Y-71357094D01*
X-163780788Y-71314956D01*
X-163804893Y-71249376D01*
X-163789716Y-71181175D01*
X-163768849Y-71153439D01*
X-163043338Y-70427929D01*
X-161027228Y-68411819D01*
X-160965905Y-68378334D01*
X-160939547Y-68375500D01*
X-156534147Y-68375500D01*
X-156467108Y-68395185D01*
X-156421353Y-68447989D01*
X-156411409Y-68517147D01*
X-156440434Y-68580703D01*
X-156446466Y-68587181D01*
X-157633787Y-69774502D01*
X-157649888Y-69787402D01*
X-157651876Y-69789519D01*
X-157651877Y-69789520D01*
X-157697900Y-69838529D01*
X-157700611Y-69841326D01*
X-157720120Y-69860835D01*
X-157722587Y-69864015D01*
X-157730155Y-69872877D01*
X-157760061Y-69904723D01*
X-157769712Y-69922278D01*
X-157780396Y-69938542D01*
X-157789499Y-69950278D01*
X-157792673Y-69954370D01*
X-157803424Y-69979215D01*
X-157810021Y-69994458D01*
X-157815154Y-70004937D01*
X-157836197Y-70043214D01*
X-157836197Y-70043215D01*
X-157841176Y-70062609D01*
X-157847477Y-70081014D01*
X-157855438Y-70099410D01*
X-157862273Y-70142567D01*
X-157864634Y-70153970D01*
X-157873635Y-70189024D01*
X-157875500Y-70196288D01*
X-157875500Y-70216322D01*
X-157877027Y-70235720D01*
X-157880160Y-70255502D01*
X-157876050Y-70298979D01*
X-157875500Y-70310649D01*
X-157875500Y-76189547D01*
X-157895185Y-76256586D01*
X-157911819Y-76277228D01*
X-159947772Y-78313181D01*
X-160009095Y-78346666D01*
X-160035453Y-78349500D01*
X-160094648Y-78349500D01*
X-160279802Y-78388855D01*
X-160452730Y-78465848D01*
X-160605870Y-78577110D01*
X-160732533Y-78717783D01*
X-160827179Y-78881715D01*
X-160849481Y-78950354D01*
X-160885674Y-79061744D01*
X-160905460Y-79250000D01*
X-160885674Y-79438256D01*
X-160838416Y-79583701D01*
X-160827179Y-79618284D01*
X-160744725Y-79761100D01*
X-160732533Y-79782216D01*
X-160669737Y-79851957D01*
X-160657350Y-79865714D01*
X-160627120Y-79928706D01*
X-160625500Y-79948687D01*
X-160625500Y-82667256D01*
X-160627764Y-82687766D01*
X-160625561Y-82757872D01*
X-160625500Y-82761767D01*
X-160625500Y-82789350D01*
X-160624999Y-82793313D01*
X-160624080Y-82804962D01*
X-160622709Y-82848627D01*
X-160617120Y-82867859D01*
X-160613174Y-82886918D01*
X-160610664Y-82906792D01*
X-160594582Y-82947407D01*
X-160590803Y-82958444D01*
X-160578618Y-83000390D01*
X-160568422Y-83017629D01*
X-160559862Y-83035101D01*
X-160552486Y-83053732D01*
X-160526817Y-83089061D01*
X-160520402Y-83098827D01*
X-160509093Y-83117949D01*
X-160491909Y-83185672D01*
X-160514068Y-83251935D01*
X-160542939Y-83281389D01*
X-160605870Y-83327111D01*
X-160732533Y-83467783D01*
X-160827179Y-83631715D01*
X-160827179Y-83631716D01*
X-160885674Y-83811744D01*
X-160905460Y-84000000D01*
X-160885674Y-84188256D01*
X-160827179Y-84368284D01*
X-160732533Y-84532216D01*
X-160605871Y-84672888D01*
X-160452730Y-84784151D01*
X-160279803Y-84861144D01*
X-160218083Y-84874262D01*
X-160094648Y-84900500D01*
X-160094646Y-84900500D01*
X-160035453Y-84900500D01*
X-159968414Y-84920185D01*
X-159947772Y-84936819D01*
X-159939471Y-84945120D01*
X-159936292Y-84947585D01*
X-159927418Y-84955164D01*
X-159895582Y-84985062D01*
X-159878018Y-84994717D01*
X-159861764Y-85005394D01*
X-159845936Y-85017673D01*
X-159807960Y-85034105D01*
X-159805852Y-85035018D01*
X-159795363Y-85040156D01*
X-159757092Y-85061197D01*
X-159737684Y-85066179D01*
X-159719280Y-85072481D01*
X-159700896Y-85080437D01*
X-159657752Y-85087269D01*
X-159646338Y-85089633D01*
X-159604019Y-85100500D01*
X-159583984Y-85100500D01*
X-159564584Y-85102027D01*
X-159544804Y-85105160D01*
X-159501325Y-85101050D01*
X-159489656Y-85100500D01*
X-158782439Y-85100500D01*
X-158761932Y-85102764D01*
X-158759028Y-85102672D01*
X-158759028Y-85102673D01*
X-158691822Y-85100561D01*
X-158687927Y-85100500D01*
X-158664236Y-85100500D01*
X-158660345Y-85100500D01*
X-158656373Y-85099998D01*
X-158644716Y-85099080D01*
X-158601068Y-85097709D01*
X-158581835Y-85092120D01*
X-158562777Y-85088174D01*
X-158527358Y-85083701D01*
X-158527197Y-85084974D01*
X-158475794Y-85080262D01*
X-158413812Y-85112513D01*
X-158379106Y-85173153D01*
X-158379306Y-85231541D01*
X-162207938Y-100801312D01*
X-162212315Y-100819110D01*
X-162247438Y-100879509D01*
X-162309641Y-100911332D01*
X-162332728Y-100913500D01*
X-163637448Y-100913500D01*
X-163639656Y-100913657D01*
X-163639658Y-100913658D01*
X-163851429Y-100928804D01*
X-164131041Y-100989629D01*
X-164131046Y-100989631D01*
X-164399161Y-101089633D01*
X-164399162Y-101089633D01*
X-164399163Y-101089634D01*
X-164650313Y-101226772D01*
X-164763819Y-101311742D01*
X-164879395Y-101398261D01*
X-165081739Y-101600605D01*
X-165147354Y-101688257D01*
X-165253227Y-101829686D01*
X-165329535Y-101969435D01*
X-165390367Y-102080839D01*
X-165490369Y-102348954D01*
X-165551196Y-102628572D01*
X-165566500Y-102842552D01*
X-165566500Y-105985448D01*
X-165551196Y-106199428D01*
X-165490369Y-106479046D01*
X-165390367Y-106747161D01*
X-165253226Y-106998315D01*
X-165081739Y-107227395D01*
X-164879395Y-107429739D01*
X-164650315Y-107601226D01*
X-164399161Y-107738367D01*
X-164131046Y-107838369D01*
X-163851428Y-107899196D01*
X-163637448Y-107914500D01*
X-163635233Y-107914500D01*
X-160496767Y-107914500D01*
X-160494552Y-107914500D01*
X-160280572Y-107899196D01*
X-160053217Y-107849738D01*
X-160000958Y-107838370D01*
X-160000957Y-107838369D01*
X-160000954Y-107838369D01*
X-159732839Y-107738367D01*
X-159621435Y-107677535D01*
X-159481686Y-107601227D01*
X-159338603Y-107494116D01*
X-159252605Y-107429739D01*
X-159050261Y-107227395D01*
X-158930833Y-107067858D01*
X-158878772Y-106998313D01*
X-158741634Y-106747163D01*
X-158737836Y-106736982D01*
X-158641631Y-106479046D01*
X-158641629Y-106479041D01*
X-158580804Y-106199429D01*
X-158565658Y-105987658D01*
X-158565657Y-105987656D01*
X-158565500Y-105985448D01*
X-158565500Y-102842552D01*
X-158580804Y-102628572D01*
X-158580804Y-102628570D01*
X-158641629Y-102348958D01*
X-158741634Y-102080836D01*
X-158878772Y-101829686D01*
X-159050263Y-101600602D01*
X-159252602Y-101398263D01*
X-159481686Y-101226772D01*
X-159732836Y-101089634D01*
X-160000956Y-100989630D01*
X-160059382Y-100976920D01*
X-160120705Y-100943434D01*
X-160154189Y-100882110D01*
X-160153435Y-100826144D01*
X-156816748Y-87256952D01*
X-156052600Y-84149420D01*
X-156017478Y-84089022D01*
X-155955275Y-84057199D01*
X-155885743Y-84064058D01*
X-155881811Y-84065726D01*
X-155779803Y-84111144D01*
X-155779801Y-84111144D01*
X-155779800Y-84111145D01*
X-155594648Y-84150500D01*
X-155594646Y-84150500D01*
X-155405352Y-84150500D01*
X-155220197Y-84111144D01*
X-155047272Y-84034152D01*
X-155047271Y-84034151D01*
X-155047270Y-84034151D01*
X-154894129Y-83922888D01*
X-154888401Y-83916527D01*
X-154828916Y-83879879D01*
X-154796253Y-83875500D01*
X-154332744Y-83875500D01*
X-154312237Y-83877764D01*
X-154309333Y-83877672D01*
X-154309333Y-83877673D01*
X-154242127Y-83875561D01*
X-154238232Y-83875500D01*
X-154214541Y-83875500D01*
X-154210650Y-83875500D01*
X-154206678Y-83874998D01*
X-154195021Y-83874080D01*
X-154151373Y-83872709D01*
X-154132140Y-83867120D01*
X-154113082Y-83863174D01*
X-154093206Y-83860664D01*
X-154052604Y-83844588D01*
X-154041553Y-83840804D01*
X-154021168Y-83834881D01*
X-153999610Y-83828618D01*
X-153982355Y-83818414D01*
X-153964895Y-83809861D01*
X-153946268Y-83802486D01*
X-153910925Y-83776808D01*
X-153901171Y-83770401D01*
X-153894529Y-83766473D01*
X-153863580Y-83748170D01*
X-153849416Y-83734006D01*
X-153834617Y-83721367D01*
X-153818413Y-83709595D01*
X-153790573Y-83675941D01*
X-153782709Y-83667299D01*
X-152637181Y-82521771D01*
X-152575858Y-82488286D01*
X-152506166Y-82493270D01*
X-152450233Y-82535142D01*
X-152425816Y-82600606D01*
X-152425500Y-82609452D01*
X-152425500Y-83625500D01*
X-152445185Y-83692539D01*
X-152497989Y-83738294D01*
X-152549500Y-83749500D01*
X-152694648Y-83749500D01*
X-152879802Y-83788855D01*
X-153052730Y-83865848D01*
X-153205870Y-83977110D01*
X-153332533Y-84117783D01*
X-153427179Y-84281715D01*
X-153427179Y-84281716D01*
X-153485674Y-84461744D01*
X-153505460Y-84650000D01*
X-153485674Y-84838256D01*
X-153434839Y-84994710D01*
X-153427179Y-85018284D01*
X-153361401Y-85132216D01*
X-153332533Y-85182216D01*
X-153288119Y-85231542D01*
X-153257350Y-85265714D01*
X-153227120Y-85328706D01*
X-153225500Y-85348687D01*
X-153225500Y-91389547D01*
X-153245185Y-91456586D01*
X-153261819Y-91477228D01*
X-155147772Y-93363181D01*
X-155209095Y-93396666D01*
X-155235453Y-93399500D01*
X-155294648Y-93399500D01*
X-155479802Y-93438855D01*
X-155652730Y-93515848D01*
X-155805870Y-93627110D01*
X-155932533Y-93767783D01*
X-156027179Y-93931715D01*
X-156027179Y-93931716D01*
X-156085674Y-94111744D01*
X-156105460Y-94300000D01*
X-156085674Y-94488256D01*
X-156027179Y-94668284D01*
X-155932533Y-94832216D01*
X-155805871Y-94972888D01*
X-155652730Y-95084151D01*
X-155479803Y-95161144D01*
X-155418083Y-95174262D01*
X-155294648Y-95200500D01*
X-155294646Y-95200500D01*
X-155105352Y-95200500D01*
X-154920197Y-95161144D01*
X-154747269Y-95084151D01*
X-154594129Y-94972889D01*
X-154467466Y-94832216D01*
X-154372820Y-94668284D01*
X-154314326Y-94488257D01*
X-154296678Y-94320348D01*
X-154270093Y-94255733D01*
X-154261038Y-94245629D01*
X-153454264Y-93438855D01*
X-152637180Y-92621770D01*
X-152575858Y-92588286D01*
X-152506166Y-92593270D01*
X-152450233Y-92635142D01*
X-152425816Y-92700606D01*
X-152425500Y-92709452D01*
X-152425500Y-98746892D01*
X-152445185Y-98813931D01*
X-152497989Y-98859686D01*
X-152567147Y-98869630D01*
X-152630703Y-98840605D01*
X-152641647Y-98829867D01*
X-152644127Y-98827112D01*
X-152797269Y-98715848D01*
X-152970197Y-98638855D01*
X-153155352Y-98599500D01*
X-153155354Y-98599500D01*
X-153344646Y-98599500D01*
X-153344648Y-98599500D01*
X-153529802Y-98638855D01*
X-153702730Y-98715848D01*
X-153855870Y-98827110D01*
X-153982533Y-98967783D01*
X-154077179Y-99131715D01*
X-154077179Y-99131716D01*
X-154135674Y-99311744D01*
X-154155460Y-99500000D01*
X-154135674Y-99688256D01*
X-154077179Y-99868284D01*
X-153982533Y-100032216D01*
X-153907350Y-100115714D01*
X-153877120Y-100178706D01*
X-153875500Y-100198687D01*
X-153875500Y-100801312D01*
X-153895185Y-100868351D01*
X-153907350Y-100884284D01*
X-153982533Y-100967783D01*
X-154077179Y-101131715D01*
X-154089285Y-101168974D01*
X-154135674Y-101311744D01*
X-154155460Y-101500000D01*
X-154135674Y-101688256D01*
X-154077179Y-101868284D01*
X-153982533Y-102032216D01*
X-153855871Y-102172888D01*
X-153702730Y-102284151D01*
X-153529803Y-102361144D01*
X-153468083Y-102374262D01*
X-153344648Y-102400500D01*
X-153344646Y-102400500D01*
X-153155352Y-102400500D01*
X-152970197Y-102361144D01*
X-152797269Y-102284151D01*
X-152644128Y-102172888D01*
X-152599697Y-102123543D01*
X-152540210Y-102086895D01*
X-152481767Y-102085226D01*
X-152479805Y-102085642D01*
X-152479803Y-102085644D01*
X-152347325Y-102113802D01*
X-152294647Y-102125000D01*
X-152294646Y-102125000D01*
X-152105352Y-102125000D01*
X-151920197Y-102085644D01*
X-151747269Y-102008651D01*
X-151594129Y-101897389D01*
X-151467466Y-101756716D01*
X-151372820Y-101592784D01*
X-151314326Y-101412757D01*
X-151294452Y-101223666D01*
X-151269111Y-101160629D01*
X-151257328Y-101145438D01*
X-151239979Y-101105348D01*
X-151234840Y-101094859D01*
X-151213802Y-101056591D01*
X-151208818Y-101037181D01*
X-151202518Y-101018781D01*
X-151194562Y-101000396D01*
X-151187731Y-100957266D01*
X-151185363Y-100945831D01*
X-151174500Y-100903519D01*
X-151174500Y-100883483D01*
X-151172973Y-100864084D01*
X-151169840Y-100844304D01*
X-151173950Y-100800824D01*
X-151174500Y-100789155D01*
X-151174500Y-85624500D01*
X-151154815Y-85557461D01*
X-151102011Y-85511706D01*
X-151050500Y-85500500D01*
X-150905352Y-85500500D01*
X-150720197Y-85461144D01*
X-150547269Y-85384151D01*
X-150394129Y-85272889D01*
X-150267466Y-85132216D01*
X-150172820Y-84968284D01*
X-150114326Y-84788257D01*
X-150094540Y-84600000D01*
X-150114326Y-84411742D01*
X-150172820Y-84231715D01*
X-150267466Y-84067783D01*
X-150342650Y-83984284D01*
X-150372880Y-83921293D01*
X-150374500Y-83901312D01*
X-150374500Y-80744143D01*
X-150354815Y-80677104D01*
X-150302011Y-80631349D01*
X-150232853Y-80621405D01*
X-150224719Y-80622853D01*
X-150094648Y-80650500D01*
X-150094646Y-80650500D01*
X-149905352Y-80650500D01*
X-149720197Y-80611144D01*
X-149547272Y-80534152D01*
X-149547271Y-80534151D01*
X-149547270Y-80534151D01*
X-149394129Y-80422888D01*
X-149388401Y-80416527D01*
X-149328916Y-80379879D01*
X-149296253Y-80375500D01*
X-146508244Y-80375500D01*
X-146487737Y-80377764D01*
X-146484833Y-80377672D01*
X-146484833Y-80377673D01*
X-146417627Y-80375561D01*
X-146413732Y-80375500D01*
X-146390041Y-80375500D01*
X-146386150Y-80375500D01*
X-146382178Y-80374998D01*
X-146370521Y-80374080D01*
X-146326873Y-80372709D01*
X-146307640Y-80367120D01*
X-146288582Y-80363174D01*
X-146268706Y-80360664D01*
X-146228104Y-80344588D01*
X-146217053Y-80340804D01*
X-146189171Y-80332703D01*
X-146175110Y-80328618D01*
X-146157855Y-80318414D01*
X-146140395Y-80309861D01*
X-146121768Y-80302486D01*
X-146086425Y-80276808D01*
X-146076671Y-80270401D01*
X-146044706Y-80251497D01*
X-146039080Y-80248170D01*
X-146024915Y-80234006D01*
X-146010117Y-80221367D01*
X-145993913Y-80209595D01*
X-145966073Y-80175941D01*
X-145958209Y-80167299D01*
X-145552010Y-79761100D01*
X-145233675Y-79442765D01*
X-145172354Y-79409282D01*
X-145102662Y-79414266D01*
X-145053846Y-79447476D01*
X-145031371Y-79472438D01*
X-144878230Y-79583701D01*
X-144705303Y-79660694D01*
X-144664951Y-79669271D01*
X-144520148Y-79700050D01*
X-144520146Y-79700050D01*
X-144330852Y-79700050D01*
X-144145697Y-79660694D01*
X-143972772Y-79583702D01*
X-143972771Y-79583701D01*
X-143972770Y-79583701D01*
X-143819629Y-79472438D01*
X-143813901Y-79466077D01*
X-143754416Y-79429429D01*
X-143721753Y-79425050D01*
X-143682744Y-79425050D01*
X-143662237Y-79427314D01*
X-143659333Y-79427222D01*
X-143659333Y-79427223D01*
X-143592127Y-79425111D01*
X-143588232Y-79425050D01*
X-143564541Y-79425050D01*
X-143560650Y-79425050D01*
X-143556678Y-79424548D01*
X-143545021Y-79423630D01*
X-143501373Y-79422259D01*
X-143482140Y-79416670D01*
X-143463082Y-79412724D01*
X-143443206Y-79410214D01*
X-143402604Y-79394138D01*
X-143391553Y-79390354D01*
X-143371168Y-79384431D01*
X-143349610Y-79378168D01*
X-143332355Y-79367964D01*
X-143314895Y-79359411D01*
X-143296268Y-79352036D01*
X-143260925Y-79326358D01*
X-143251171Y-79319951D01*
X-143213580Y-79297720D01*
X-143199416Y-79283556D01*
X-143184617Y-79270917D01*
X-143168413Y-79259145D01*
X-143140573Y-79225491D01*
X-143132709Y-79216849D01*
X-142866214Y-78950354D01*
X-142850112Y-78937454D01*
X-142802083Y-78886309D01*
X-142799372Y-78883512D01*
X-142782636Y-78866776D01*
X-142779880Y-78864020D01*
X-142777423Y-78860853D01*
X-142769836Y-78851970D01*
X-142739937Y-78820131D01*
X-142730286Y-78802577D01*
X-142719605Y-78786316D01*
X-142714312Y-78779492D01*
X-142707326Y-78770486D01*
X-142689980Y-78730401D01*
X-142684840Y-78719908D01*
X-142663801Y-78681639D01*
X-142658819Y-78662236D01*
X-142652519Y-78643834D01*
X-142644561Y-78625443D01*
X-142637729Y-78582308D01*
X-142635361Y-78570871D01*
X-142624500Y-78528568D01*
X-142624500Y-78508533D01*
X-142622973Y-78489134D01*
X-142619840Y-78469354D01*
X-142623950Y-78425874D01*
X-142624500Y-78414205D01*
X-142624500Y-76510451D01*
X-142604815Y-76443412D01*
X-142588185Y-76422775D01*
X-141079054Y-74913644D01*
X-141017731Y-74880159D01*
X-140948039Y-74885143D01*
X-140892106Y-74927015D01*
X-140867689Y-74992479D01*
X-140870959Y-75030931D01*
X-147212315Y-100819110D01*
X-147247438Y-100879509D01*
X-147309641Y-100911332D01*
X-147332728Y-100913500D01*
X-148637448Y-100913500D01*
X-148639656Y-100913657D01*
X-148639658Y-100913658D01*
X-148851429Y-100928804D01*
X-149131041Y-100989629D01*
X-149131046Y-100989631D01*
X-149399161Y-101089633D01*
X-149399162Y-101089633D01*
X-149399163Y-101089634D01*
X-149650313Y-101226772D01*
X-149763819Y-101311742D01*
X-149879395Y-101398261D01*
X-150081739Y-101600605D01*
X-150147354Y-101688257D01*
X-150253227Y-101829686D01*
X-150329535Y-101969435D01*
X-150390367Y-102080839D01*
X-150490369Y-102348954D01*
X-150551196Y-102628572D01*
X-150566500Y-102842552D01*
X-150566500Y-105985448D01*
X-150551196Y-106199428D01*
X-150490369Y-106479046D01*
X-150390367Y-106747161D01*
X-150253226Y-106998315D01*
X-150081739Y-107227395D01*
X-149879395Y-107429739D01*
X-149650315Y-107601226D01*
X-149399161Y-107738367D01*
X-149131046Y-107838369D01*
X-148851428Y-107899196D01*
X-148637448Y-107914500D01*
X-148635233Y-107914500D01*
X-145496767Y-107914500D01*
X-145494552Y-107914500D01*
X-145280572Y-107899196D01*
X-145053217Y-107849738D01*
X-145000958Y-107838370D01*
X-145000957Y-107838369D01*
X-145000954Y-107838369D01*
X-144732839Y-107738367D01*
X-144621435Y-107677535D01*
X-144481686Y-107601227D01*
X-144338603Y-107494116D01*
X-144338602Y-107494115D01*
X-134292563Y-107494115D01*
X-134150041Y-107600806D01*
X-133898952Y-107737911D01*
X-133630902Y-107837888D01*
X-133351357Y-107898699D01*
X-133139644Y-107913841D01*
X-133135219Y-107914000D01*
X-129996781Y-107914000D01*
X-129992355Y-107913841D01*
X-129780642Y-107898699D01*
X-129501097Y-107837888D01*
X-129233047Y-107737911D01*
X-128981954Y-107600804D01*
X-128839436Y-107494116D01*
X-128839435Y-107494115D01*
X-128933550Y-107400000D01*
X-127955527Y-107400000D01*
X-127935436Y-107732142D01*
X-127875456Y-108059441D01*
X-127776463Y-108377123D01*
X-127639898Y-108680557D01*
X-127467754Y-108965318D01*
X-127262542Y-109227252D01*
X-127027252Y-109462542D01*
X-126765318Y-109667754D01*
X-126480557Y-109839898D01*
X-126177123Y-109976463D01*
X-125859441Y-110075456D01*
X-125532142Y-110135436D01*
X-125200000Y-110155527D01*
X-124867858Y-110135436D01*
X-124540559Y-110075456D01*
X-124222877Y-109976463D01*
X-123919443Y-109839898D01*
X-123634682Y-109667754D01*
X-123372748Y-109462542D01*
X-123137458Y-109227252D01*
X-122932246Y-108965318D01*
X-122760102Y-108680557D01*
X-122623537Y-108377123D01*
X-122524544Y-108059441D01*
X-122523871Y-108055770D01*
X-122523869Y-108055761D01*
X-122465239Y-107735826D01*
X-122465238Y-107735824D01*
X-122464564Y-107732142D01*
X-122464338Y-107728416D01*
X-122464337Y-107728403D01*
X-122444699Y-107403736D01*
X-122444473Y-107400000D01*
X-122444699Y-107396263D01*
X-122464337Y-107071596D01*
X-122464338Y-107071581D01*
X-122464564Y-107067858D01*
X-122477308Y-106998315D01*
X-122523869Y-106744238D01*
X-122523872Y-106744225D01*
X-122524544Y-106740559D01*
X-122525655Y-106736991D01*
X-122525658Y-106736982D01*
X-122622422Y-106426454D01*
X-122622424Y-106426448D01*
X-122623537Y-106422877D01*
X-122724104Y-106199428D01*
X-122758565Y-106122858D01*
X-122758565Y-106122857D01*
X-122760102Y-106119443D01*
X-122762031Y-106116250D01*
X-122762039Y-106116237D01*
X-122930309Y-105837886D01*
X-122930309Y-105837884D01*
X-122932246Y-105834682D01*
X-122934550Y-105831740D01*
X-122934555Y-105831734D01*
X-123135146Y-105575699D01*
X-123135146Y-105575698D01*
X-123137458Y-105572748D01*
X-123140103Y-105570102D01*
X-123140111Y-105570094D01*
X-123370094Y-105340111D01*
X-123370102Y-105340103D01*
X-123372748Y-105337458D01*
X-123375699Y-105335146D01*
X-123631734Y-105134555D01*
X-123631740Y-105134550D01*
X-123634682Y-105132246D01*
X-123637886Y-105130309D01*
X-123916237Y-104962039D01*
X-123916250Y-104962031D01*
X-123919443Y-104960102D01*
X-124222877Y-104823537D01*
X-124226448Y-104822424D01*
X-124226454Y-104822422D01*
X-124536982Y-104725658D01*
X-124536991Y-104725655D01*
X-124540559Y-104724544D01*
X-124544225Y-104723872D01*
X-124544238Y-104723869D01*
X-124864173Y-104665239D01*
X-124864177Y-104665238D01*
X-124867858Y-104664564D01*
X-124871581Y-104664338D01*
X-124871596Y-104664337D01*
X-125196264Y-104644699D01*
X-125200000Y-104644473D01*
X-125203736Y-104644699D01*
X-125528403Y-104664337D01*
X-125528416Y-104664338D01*
X-125532142Y-104664564D01*
X-125535824Y-104665238D01*
X-125535826Y-104665239D01*
X-125855761Y-104723869D01*
X-125855770Y-104723871D01*
X-125859441Y-104724544D01*
X-125863012Y-104725656D01*
X-125863017Y-104725658D01*
X-125997463Y-104767553D01*
X-126177123Y-104823537D01*
X-126480557Y-104960102D01*
X-126483755Y-104962035D01*
X-126483762Y-104962039D01*
X-126622937Y-105046173D01*
X-126765318Y-105132246D01*
X-127027252Y-105337458D01*
X-127262542Y-105572748D01*
X-127467754Y-105834682D01*
X-127639898Y-106119443D01*
X-127776463Y-106422877D01*
X-127875456Y-106740559D01*
X-127935436Y-107067858D01*
X-127955527Y-107400000D01*
X-128933550Y-107400000D01*
X-131566000Y-104767553D01*
X-134292563Y-107494115D01*
X-144338602Y-107494115D01*
X-144252605Y-107429739D01*
X-144050261Y-107227395D01*
X-143930833Y-107067858D01*
X-143878772Y-106998313D01*
X-143741634Y-106747163D01*
X-143737836Y-106736982D01*
X-143641631Y-106479046D01*
X-143641629Y-106479041D01*
X-143580804Y-106199429D01*
X-143565658Y-105987658D01*
X-143565657Y-105987656D01*
X-143565500Y-105985448D01*
X-143565500Y-105983218D01*
X-135066000Y-105983218D01*
X-135065841Y-105987644D01*
X-135050699Y-106199357D01*
X-134989888Y-106478902D01*
X-134889911Y-106746952D01*
X-134752806Y-106998041D01*
X-134646115Y-107140563D01*
X-131919553Y-104414001D01*
X-131919553Y-104414000D01*
X-131212446Y-104414000D01*
X-128485882Y-107140563D01*
X-128485882Y-107140562D01*
X-128379195Y-106998045D01*
X-128242088Y-106746952D01*
X-128142111Y-106478902D01*
X-128081300Y-106199357D01*
X-128066158Y-105987644D01*
X-128066000Y-105983218D01*
X-128066000Y-102844781D01*
X-128066158Y-102840355D01*
X-128081300Y-102628642D01*
X-128142111Y-102349097D01*
X-128242088Y-102081047D01*
X-128379193Y-101829959D01*
X-128485883Y-101687436D01*
X-131212446Y-104413999D01*
X-131212446Y-104414000D01*
X-131919553Y-104414000D01*
X-131919553Y-104413999D01*
X-134646115Y-101687435D01*
X-134646116Y-101687436D01*
X-134752804Y-101829954D01*
X-134889911Y-102081047D01*
X-134989888Y-102349097D01*
X-135050699Y-102628642D01*
X-135065841Y-102840355D01*
X-135066000Y-102844781D01*
X-135066000Y-105983218D01*
X-143565500Y-105983218D01*
X-143565500Y-102842552D01*
X-143580804Y-102628572D01*
X-143580804Y-102628570D01*
X-143641629Y-102348958D01*
X-143741634Y-102080836D01*
X-143878772Y-101829686D01*
X-144050263Y-101600602D01*
X-144252602Y-101398263D01*
X-144338603Y-101333883D01*
X-134292563Y-101333883D01*
X-131565999Y-104060447D01*
X-128839436Y-101333883D01*
X-128981959Y-101227193D01*
X-129233047Y-101090088D01*
X-129501097Y-100990111D01*
X-129780642Y-100929300D01*
X-129992355Y-100914158D01*
X-129996781Y-100914000D01*
X-133135219Y-100914000D01*
X-133139644Y-100914158D01*
X-133351357Y-100929300D01*
X-133630902Y-100990111D01*
X-133898952Y-101090088D01*
X-134150045Y-101227195D01*
X-134292562Y-101333882D01*
X-134292563Y-101333883D01*
X-144338603Y-101333883D01*
X-144481686Y-101226772D01*
X-144732836Y-101089634D01*
X-145000956Y-100989630D01*
X-145059382Y-100976920D01*
X-145120705Y-100943434D01*
X-145154189Y-100882110D01*
X-145153435Y-100826144D01*
X-135860322Y-63034151D01*
X-134386039Y-57038735D01*
X-134350917Y-56978337D01*
X-134288714Y-56946514D01*
X-134219182Y-56953373D01*
X-134164396Y-56996734D01*
X-134141750Y-57062832D01*
X-134141627Y-57068346D01*
X-134141627Y-76601129D01*
X-134143891Y-76621639D01*
X-134143799Y-76624539D01*
X-134143800Y-76624540D01*
X-134143574Y-76631716D01*
X-134141688Y-76691745D01*
X-134141627Y-76695640D01*
X-134141627Y-76723223D01*
X-134141126Y-76727186D01*
X-134140207Y-76738835D01*
X-134138836Y-76782500D01*
X-134133247Y-76801732D01*
X-134129301Y-76820791D01*
X-134128095Y-76830333D01*
X-134126791Y-76840665D01*
X-134112289Y-76877291D01*
X-134110712Y-76881274D01*
X-134106928Y-76892326D01*
X-134104327Y-76901278D01*
X-134100082Y-76948836D01*
X-134105460Y-77000000D01*
X-134101213Y-77040406D01*
X-134100614Y-77046105D01*
X-134103830Y-77089902D01*
X-134107304Y-77103433D01*
X-134113608Y-77121846D01*
X-134121565Y-77140231D01*
X-134128400Y-77183388D01*
X-134130761Y-77194791D01*
X-134136665Y-77217784D01*
X-134141627Y-77237109D01*
X-134141627Y-77257143D01*
X-134143154Y-77276541D01*
X-134146287Y-77296323D01*
X-134143168Y-77329313D01*
X-134142177Y-77339800D01*
X-134141627Y-77351470D01*
X-134141627Y-79901129D01*
X-134143891Y-79921639D01*
X-134141688Y-79991745D01*
X-134141627Y-79995640D01*
X-134141627Y-80023223D01*
X-134141126Y-80027186D01*
X-134140207Y-80038835D01*
X-134138836Y-80082500D01*
X-134133247Y-80101732D01*
X-134129301Y-80120791D01*
X-134126791Y-80140665D01*
X-134110709Y-80181280D01*
X-134106930Y-80192317D01*
X-134094745Y-80234263D01*
X-134084549Y-80251502D01*
X-134075989Y-80268974D01*
X-134068613Y-80287605D01*
X-134042944Y-80322934D01*
X-134036526Y-80332703D01*
X-134014297Y-80370293D01*
X-134000131Y-80384458D01*
X-133987500Y-80399246D01*
X-133975721Y-80415460D01*
X-133942053Y-80443311D01*
X-133933436Y-80451152D01*
X-127188958Y-87195631D01*
X-127155475Y-87256952D01*
X-127153323Y-87270325D01*
X-127135674Y-87438256D01*
X-127077179Y-87618284D01*
X-126982533Y-87782216D01*
X-126855871Y-87922888D01*
X-126702730Y-88034151D01*
X-126529803Y-88111144D01*
X-126468084Y-88124262D01*
X-126344648Y-88150500D01*
X-126344646Y-88150500D01*
X-126155352Y-88150500D01*
X-125970197Y-88111144D01*
X-125797269Y-88034151D01*
X-125644129Y-87922889D01*
X-125517466Y-87782216D01*
X-125422820Y-87618284D01*
X-125364326Y-87438257D01*
X-125344540Y-87250000D01*
X-125364326Y-87061742D01*
X-125422820Y-86881715D01*
X-125517466Y-86717783D01*
X-125644129Y-86577110D01*
X-125797269Y-86465848D01*
X-125970197Y-86388855D01*
X-126155352Y-86349500D01*
X-126155354Y-86349500D01*
X-126214547Y-86349500D01*
X-126281586Y-86329815D01*
X-126302228Y-86313181D01*
X-132854307Y-79761100D01*
X-132887792Y-79699777D01*
X-132890626Y-79673419D01*
X-132890626Y-77928504D01*
X-132870941Y-77861465D01*
X-132818137Y-77815710D01*
X-132817061Y-77815224D01*
X-132747267Y-77784150D01*
X-132594129Y-77672889D01*
X-132467466Y-77532216D01*
X-132372820Y-77368284D01*
X-132314326Y-77188257D01*
X-132294540Y-76999999D01*
X-132314326Y-76811742D01*
X-132372820Y-76631715D01*
X-132467466Y-76467783D01*
X-132594129Y-76327111D01*
X-132747268Y-76215850D01*
X-132817064Y-76184774D01*
X-132870300Y-76139523D01*
X-132890621Y-76072674D01*
X-132890627Y-76071495D01*
X-132890627Y-53179666D01*
X-132870942Y-53112627D01*
X-132818138Y-53066872D01*
X-132748980Y-53056928D01*
X-132685424Y-53085953D01*
X-132674477Y-53096694D01*
X-132653383Y-53120121D01*
X-132605871Y-53172888D01*
X-132452730Y-53284151D01*
X-132279803Y-53361144D01*
X-132218083Y-53374262D01*
X-132094648Y-53400500D01*
X-132094646Y-53400500D01*
X-132035452Y-53400500D01*
X-131968413Y-53420185D01*
X-131947771Y-53436819D01*
X-131250800Y-54133789D01*
X-131237906Y-54149885D01*
X-131235787Y-54151873D01*
X-131235786Y-54151877D01*
X-131186723Y-54197949D01*
X-131184055Y-54200534D01*
X-131164471Y-54220120D01*
X-131161292Y-54222585D01*
X-131152418Y-54230164D01*
X-131120582Y-54260062D01*
X-131103029Y-54269711D01*
X-131086759Y-54280398D01*
X-131070936Y-54292673D01*
X-131030832Y-54310026D01*
X-131020369Y-54315153D01*
X-130982092Y-54336197D01*
X-130962699Y-54341175D01*
X-130944280Y-54347481D01*
X-130925896Y-54355438D01*
X-130882745Y-54362272D01*
X-130871331Y-54364635D01*
X-130829019Y-54375500D01*
X-130808984Y-54375500D01*
X-130789586Y-54377026D01*
X-130769804Y-54380160D01*
X-130726325Y-54376050D01*
X-130714656Y-54375500D01*
X-127203747Y-54375500D01*
X-127136708Y-54395185D01*
X-127111599Y-54416526D01*
X-127105871Y-54422888D01*
X-126952730Y-54534151D01*
X-126779803Y-54611144D01*
X-126718084Y-54624262D01*
X-126594648Y-54650500D01*
X-126594646Y-54650500D01*
X-126405352Y-54650500D01*
X-126220197Y-54611144D01*
X-126047269Y-54534151D01*
X-125894129Y-54422889D01*
X-125767466Y-54282216D01*
X-125672820Y-54118284D01*
X-125614326Y-53938257D01*
X-125594540Y-53749999D01*
X-125614326Y-53561742D01*
X-125672820Y-53381715D01*
X-125767466Y-53217783D01*
X-125894129Y-53077110D01*
X-126047269Y-52965848D01*
X-126220197Y-52888855D01*
X-126405352Y-52849500D01*
X-126405354Y-52849500D01*
X-126594646Y-52849500D01*
X-126594648Y-52849500D01*
X-126779802Y-52888855D01*
X-126952727Y-52965847D01*
X-126952729Y-52965848D01*
X-126952730Y-52965849D01*
X-127105871Y-53077112D01*
X-127111598Y-53083472D01*
X-127171084Y-53120121D01*
X-127203747Y-53124500D01*
X-130439548Y-53124500D01*
X-130506587Y-53104815D01*
X-130527229Y-53088181D01*
X-130649561Y-52965849D01*
X-131061038Y-52554369D01*
X-131094524Y-52493046D01*
X-131096679Y-52479650D01*
X-131114326Y-52311742D01*
X-131172820Y-52131715D01*
X-131267466Y-51967783D01*
X-131394127Y-51827112D01*
X-131455284Y-51782680D01*
X-131497949Y-51727350D01*
X-131503928Y-51657736D01*
X-131491063Y-51622629D01*
X-131487639Y-51616401D01*
X-131480285Y-51603024D01*
X-131469604Y-51586764D01*
X-131457327Y-51570937D01*
X-131439979Y-51530848D01*
X-131434840Y-51520359D01*
X-131413802Y-51482091D01*
X-131408818Y-51462681D01*
X-131402518Y-51444281D01*
X-131394562Y-51425896D01*
X-131387731Y-51382766D01*
X-131385363Y-51371331D01*
X-131374500Y-51329019D01*
X-131374500Y-51308983D01*
X-131372973Y-51289584D01*
X-131369839Y-51269803D01*
X-131373949Y-51226322D01*
X-131374499Y-51214655D01*
X-131374500Y-50810452D01*
X-131354816Y-50743413D01*
X-131338181Y-50722771D01*
X-130527228Y-49911819D01*
X-130465905Y-49878334D01*
X-130439547Y-49875500D01*
X-125582744Y-49875500D01*
X-125562237Y-49877764D01*
X-125559333Y-49877672D01*
X-125559333Y-49877673D01*
X-125492127Y-49875561D01*
X-125488232Y-49875500D01*
X-125464541Y-49875500D01*
X-125460650Y-49875500D01*
X-125456678Y-49874998D01*
X-125445021Y-49874080D01*
X-125401373Y-49872709D01*
X-125382140Y-49867120D01*
X-125363082Y-49863174D01*
X-125343206Y-49860664D01*
X-125302604Y-49844588D01*
X-125291553Y-49840804D01*
X-125271168Y-49834881D01*
X-125249610Y-49828618D01*
X-125232355Y-49818414D01*
X-125214895Y-49809861D01*
X-125196268Y-49802486D01*
X-125160925Y-49776808D01*
X-125151171Y-49770401D01*
X-125113580Y-49748170D01*
X-125099416Y-49734006D01*
X-125084617Y-49721367D01*
X-125068413Y-49709595D01*
X-125040573Y-49675941D01*
X-125032709Y-49667299D01*
X-122116214Y-46750804D01*
X-122100112Y-46737904D01*
X-122052083Y-46686759D01*
X-122049372Y-46683962D01*
X-122032636Y-46667226D01*
X-122029880Y-46664470D01*
X-122027423Y-46661303D01*
X-122019836Y-46652420D01*
X-122007097Y-46638855D01*
X-121989938Y-46620582D01*
X-121989937Y-46620581D01*
X-121980286Y-46603027D01*
X-121969605Y-46586766D01*
X-121965797Y-46581857D01*
X-121957326Y-46570936D01*
X-121939980Y-46530851D01*
X-121934840Y-46520358D01*
X-121913801Y-46482089D01*
X-121908819Y-46462686D01*
X-121902519Y-46444284D01*
X-121894561Y-46425893D01*
X-121887729Y-46382758D01*
X-121885361Y-46371321D01*
X-121874500Y-46329018D01*
X-121874500Y-46308983D01*
X-121872973Y-46289584D01*
X-121869840Y-46269804D01*
X-121873950Y-46226324D01*
X-121874500Y-46214655D01*
X-121874500Y-38582743D01*
X-121872235Y-38562239D01*
X-121874439Y-38492112D01*
X-121874500Y-38488218D01*
X-121874500Y-38464540D01*
X-121874500Y-38460650D01*
X-121875003Y-38456662D01*
X-121875917Y-38445043D01*
X-121877289Y-38401372D01*
X-121882880Y-38382128D01*
X-121886824Y-38363084D01*
X-121889335Y-38343208D01*
X-121905413Y-38302600D01*
X-121909196Y-38291552D01*
X-121921383Y-38249607D01*
X-121931579Y-38232365D01*
X-121940133Y-38214904D01*
X-121947512Y-38196267D01*
X-121973185Y-38160931D01*
X-121979595Y-38151174D01*
X-122001828Y-38113581D01*
X-122010299Y-38105110D01*
X-122015998Y-38099410D01*
X-122028624Y-38084628D01*
X-122038365Y-38071222D01*
X-122040407Y-38068411D01*
X-122074063Y-38040567D01*
X-122082699Y-38032708D01*
X-122349196Y-37766212D01*
X-122362094Y-37750112D01*
X-122413225Y-37702097D01*
X-122416019Y-37699389D01*
X-122432773Y-37682635D01*
X-122432781Y-37682627D01*
X-122435529Y-37679880D01*
X-122438598Y-37677498D01*
X-122438607Y-37677491D01*
X-122438711Y-37677411D01*
X-122447572Y-37669842D01*
X-122479420Y-37639935D01*
X-122496974Y-37630285D01*
X-122513228Y-37619609D01*
X-122529063Y-37607326D01*
X-122569158Y-37589975D01*
X-122579644Y-37584838D01*
X-122617907Y-37563802D01*
X-122637309Y-37558821D01*
X-122655711Y-37552520D01*
X-122674102Y-37544561D01*
X-122717242Y-37537728D01*
X-122728674Y-37535360D01*
X-122770978Y-37524500D01*
X-122770981Y-37524500D01*
X-122791016Y-37524500D01*
X-122810413Y-37522973D01*
X-122815074Y-37522235D01*
X-122830194Y-37519840D01*
X-122830195Y-37519840D01*
X-122830196Y-37519840D01*
X-122863339Y-37522973D01*
X-122873675Y-37523950D01*
X-122885344Y-37524500D01*
X-123158480Y-37524500D01*
X-123225519Y-37504815D01*
X-123246161Y-37488181D01*
X-123339813Y-37394528D01*
X-123485392Y-37306523D01*
X-123485392Y-37306522D01*
X-123485394Y-37306522D01*
X-123566599Y-37281217D01*
X-123647806Y-37255913D01*
X-123715575Y-37249755D01*
X-123715580Y-37249754D01*
X-123718384Y-37249500D01*
X-125431616Y-37249500D01*
X-125434420Y-37249754D01*
X-125434424Y-37249755D01*
X-125502193Y-37255913D01*
X-125502196Y-37255914D01*
X-125664606Y-37306522D01*
X-125722180Y-37341326D01*
X-125810186Y-37394528D01*
X-125902852Y-37487194D01*
X-125964175Y-37520679D01*
X-126033867Y-37515695D01*
X-126078214Y-37487194D01*
X-126125681Y-37439727D01*
X-126159166Y-37378404D01*
X-126162000Y-37352046D01*
X-126162000Y-37016473D01*
X-126162000Y-37016453D01*
X-126162001Y-37013324D01*
X-126162321Y-37010190D01*
X-126172325Y-36912247D01*
X-126226591Y-36748484D01*
X-126317161Y-36601647D01*
X-126439147Y-36479661D01*
X-126585984Y-36389091D01*
X-126749746Y-36334825D01*
X-126847690Y-36324819D01*
X-126847710Y-36324817D01*
X-126850823Y-36324500D01*
X-126853970Y-36324500D01*
X-126853971Y-36324500D01*
X-127446026Y-36324500D01*
X-127446045Y-36324500D01*
X-127449176Y-36324501D01*
X-127452308Y-36324820D01*
X-127452309Y-36324821D01*
X-127550252Y-36334825D01*
X-127714015Y-36389091D01*
X-127860852Y-36479661D01*
X-127974819Y-36593628D01*
X-128036142Y-36627113D01*
X-128105834Y-36622129D01*
X-128150181Y-36593628D01*
X-128264147Y-36479661D01*
X-128410984Y-36389091D01*
X-128574746Y-36334825D01*
X-128672690Y-36324819D01*
X-128672710Y-36324817D01*
X-128675823Y-36324500D01*
X-128678970Y-36324500D01*
X-128678971Y-36324500D01*
X-129271026Y-36324500D01*
X-129271045Y-36324500D01*
X-129274176Y-36324501D01*
X-129277308Y-36324820D01*
X-129277309Y-36324821D01*
X-129375252Y-36334825D01*
X-129539015Y-36389091D01*
X-129685852Y-36479661D01*
X-129807838Y-36601647D01*
X-129816441Y-36615595D01*
X-129868389Y-36662321D01*
X-129921981Y-36674500D01*
X-131348863Y-36674500D01*
X-131415902Y-36654815D01*
X-131461657Y-36602011D01*
X-131469198Y-36580426D01*
X-131469400Y-36579613D01*
X-131469400Y-36579611D01*
X-131515359Y-36394807D01*
X-131515359Y-36394805D01*
X-131599971Y-36224202D01*
X-131719278Y-36075778D01*
X-131867702Y-35956471D01*
X-131867704Y-35956470D01*
X-131952152Y-35914587D01*
X-132003464Y-35867167D01*
X-132020993Y-35799532D01*
X-131999174Y-35733157D01*
X-131952152Y-35692412D01*
X-131867704Y-35650530D01*
X-131719278Y-35531222D01*
X-131599970Y-35382796D01*
X-131515359Y-35212193D01*
X-131500269Y-35151515D01*
X-131469399Y-35027387D01*
X-131466641Y-34986716D01*
X-131466640Y-34986688D01*
X-131466500Y-34984623D01*
X-131466500Y-34850000D01*
X-131466500Y-34084478D01*
X-131466500Y-34084448D01*
X-131466501Y-34082378D01*
X-131466643Y-34080280D01*
X-131469399Y-34039613D01*
X-131515359Y-33854805D01*
X-131599971Y-33684202D01*
X-131719278Y-33535778D01*
X-131867701Y-33416471D01*
X-131952153Y-33374587D01*
X-132003465Y-33327165D01*
X-132020993Y-33259530D01*
X-131999173Y-33193155D01*
X-131952155Y-33152413D01*
X-131867704Y-33110530D01*
X-131719278Y-32991222D01*
X-131599970Y-32842796D01*
X-131515359Y-32672193D01*
X-131505504Y-32632567D01*
X-131469399Y-32487387D01*
X-131466641Y-32446716D01*
X-131466640Y-32446688D01*
X-131466500Y-32444623D01*
X-131466500Y-32010738D01*
X-131466500Y-31544478D01*
X-131466500Y-31544448D01*
X-131466501Y-31542378D01*
X-131467313Y-31530397D01*
X-131469399Y-31499613D01*
X-131515359Y-31314805D01*
X-131599971Y-31144202D01*
X-131719278Y-30995778D01*
X-131867702Y-30876471D01*
X-131952152Y-30834588D01*
X-132003464Y-30787167D01*
X-132020993Y-30719532D01*
X-131999174Y-30653157D01*
X-131952152Y-30612412D01*
X-131867704Y-30570530D01*
X-131719278Y-30451222D01*
X-131599970Y-30302796D01*
X-131515359Y-30132193D01*
X-131496155Y-30054972D01*
X-131469399Y-29947387D01*
X-131466641Y-29906716D01*
X-131466640Y-29906688D01*
X-131466500Y-29904623D01*
X-131466500Y-29459888D01*
X-131466500Y-29004478D01*
X-131466500Y-29004448D01*
X-131466501Y-29002378D01*
X-131466643Y-29000280D01*
X-131469399Y-28959613D01*
X-131515360Y-28774803D01*
X-131578362Y-28647771D01*
X-131590514Y-28578966D01*
X-131563537Y-28514514D01*
X-131505998Y-28474879D01*
X-131436164Y-28472643D01*
X-131379595Y-28504994D01*
X-130911817Y-28972772D01*
X-130878334Y-29034093D01*
X-130875500Y-29060451D01*
X-130875500Y-29917256D01*
X-130877764Y-29937766D01*
X-130875561Y-30007872D01*
X-130875500Y-30011767D01*
X-130875500Y-30039350D01*
X-130874999Y-30043313D01*
X-130874080Y-30054962D01*
X-130872709Y-30098627D01*
X-130867120Y-30117859D01*
X-130863174Y-30136918D01*
X-130860664Y-30156792D01*
X-130844582Y-30197407D01*
X-130840803Y-30208444D01*
X-130828618Y-30250390D01*
X-130818422Y-30267629D01*
X-130809862Y-30285101D01*
X-130802486Y-30303732D01*
X-130776817Y-30339061D01*
X-130770399Y-30348830D01*
X-130748170Y-30386420D01*
X-130734004Y-30400585D01*
X-130721373Y-30415373D01*
X-130709594Y-30431587D01*
X-130675926Y-30459438D01*
X-130667309Y-30467279D01*
X-129750802Y-31383786D01*
X-129737905Y-31399886D01*
X-129735787Y-31401874D01*
X-129735786Y-31401877D01*
X-129686707Y-31447964D01*
X-129684039Y-31450549D01*
X-129664470Y-31470120D01*
X-129661316Y-31472565D01*
X-129652429Y-31480154D01*
X-129620582Y-31510062D01*
X-129603026Y-31519713D01*
X-129586767Y-31530393D01*
X-129570936Y-31542674D01*
X-129530853Y-31560018D01*
X-129520357Y-31565159D01*
X-129482092Y-31586197D01*
X-129463698Y-31590919D01*
X-129462688Y-31591179D01*
X-129444283Y-31597480D01*
X-129425895Y-31605438D01*
X-129382748Y-31612270D01*
X-129371316Y-31614639D01*
X-129329020Y-31625500D01*
X-129329019Y-31625500D01*
X-129308984Y-31625500D01*
X-129289586Y-31627026D01*
X-129269804Y-31630160D01*
X-129226325Y-31626050D01*
X-129214656Y-31625500D01*
X-128594500Y-31625500D01*
X-128527461Y-31645185D01*
X-128481706Y-31697989D01*
X-128470500Y-31749500D01*
X-128470499Y-32130880D01*
X-128470243Y-32133695D01*
X-128464452Y-32197433D01*
X-128417001Y-32349711D01*
X-128416733Y-32350569D01*
X-128409008Y-32363347D01*
X-128391170Y-32430898D01*
X-128409006Y-32491648D01*
X-128416733Y-32504430D01*
X-128416733Y-32504431D01*
X-128464452Y-32657567D01*
X-128470500Y-32724119D01*
X-128470499Y-33275880D01*
X-128464452Y-33342433D01*
X-128457071Y-33366115D01*
X-128455920Y-33435973D01*
X-128487776Y-33490686D01*
X-128585271Y-33588181D01*
X-128646594Y-33621666D01*
X-128672952Y-33624500D01*
X-129008526Y-33624500D01*
X-129008545Y-33624500D01*
X-129011676Y-33624501D01*
X-129014808Y-33624820D01*
X-129014809Y-33624821D01*
X-129112752Y-33634825D01*
X-129276515Y-33689091D01*
X-129423352Y-33779661D01*
X-129545338Y-33901647D01*
X-129545339Y-33901649D01*
X-129545340Y-33901650D01*
X-129635908Y-34048484D01*
X-129690174Y-34212247D01*
X-129700500Y-34313323D01*
X-129700499Y-34886676D01*
X-129690174Y-34987753D01*
X-129635908Y-35151516D01*
X-129545340Y-35298350D01*
X-129423350Y-35420340D01*
X-129276516Y-35510908D01*
X-129112753Y-35565174D01*
X-129011677Y-35575500D01*
X-128413324Y-35575499D01*
X-128312247Y-35565174D01*
X-128148484Y-35510908D01*
X-128001650Y-35420340D01*
X-128001649Y-35420339D01*
X-128001647Y-35420338D01*
X-127887327Y-35306018D01*
X-127826004Y-35272533D01*
X-127756312Y-35277517D01*
X-127711964Y-35306018D01*
X-127598037Y-35419944D01*
X-127451301Y-35510453D01*
X-127287651Y-35564681D01*
X-127189796Y-35574678D01*
X-127183479Y-35574999D01*
X-127137500Y-35574999D01*
X-127137500Y-34850000D01*
X-126637500Y-34850000D01*
X-126637500Y-35574999D01*
X-126591503Y-35574999D01*
X-126585220Y-35574678D01*
X-126487349Y-35564681D01*
X-126323698Y-35510453D01*
X-126176959Y-35419943D01*
X-126131432Y-35374415D01*
X-126070109Y-35340929D01*
X-126000417Y-35345913D01*
X-125956068Y-35374415D01*
X-125910540Y-35419943D01*
X-125763801Y-35510453D01*
X-125600151Y-35564681D01*
X-125502296Y-35574678D01*
X-125495979Y-35574999D01*
X-125450000Y-35574999D01*
X-125450000Y-34850000D01*
X-126637500Y-34850000D01*
X-127137500Y-34850000D01*
X-127137500Y-34474000D01*
X-127117815Y-34406961D01*
X-127065011Y-34361206D01*
X-127013500Y-34350000D01*
X-125450000Y-34350000D01*
X-125450000Y-33625000D01*
X-125495996Y-33625000D01*
X-125502280Y-33625321D01*
X-125600150Y-33635318D01*
X-125763801Y-33689546D01*
X-125910540Y-33780056D01*
X-125956069Y-33825585D01*
X-126017392Y-33859070D01*
X-126087084Y-33854086D01*
X-126131431Y-33825585D01*
X-126176959Y-33780056D01*
X-126323698Y-33689546D01*
X-126487348Y-33635318D01*
X-126585222Y-33625319D01*
X-126591500Y-33625000D01*
X-126755079Y-33625000D01*
X-126822118Y-33605315D01*
X-126867873Y-33552511D01*
X-126877817Y-33483353D01*
X-126873464Y-33464110D01*
X-126835548Y-33342434D01*
X-126829755Y-33278687D01*
X-126829500Y-33275881D01*
X-126829500Y-33009090D01*
X-126829500Y-32726940D01*
X-126829500Y-32726918D01*
X-126829501Y-32724120D01*
X-126829756Y-32721312D01*
X-126829756Y-32721304D01*
X-126835547Y-32657568D01*
X-126883267Y-32504429D01*
X-126890995Y-32491646D01*
X-126908829Y-32424091D01*
X-126890994Y-32363352D01*
X-126883266Y-32350568D01*
X-126835548Y-32197434D01*
X-126829755Y-32133687D01*
X-126829500Y-32130881D01*
X-126829500Y-32104450D01*
X-126809815Y-32037412D01*
X-126757011Y-31991657D01*
X-126687853Y-31981713D01*
X-126624297Y-32010738D01*
X-126617833Y-32016756D01*
X-126420800Y-32213789D01*
X-126407906Y-32229885D01*
X-126405787Y-32231873D01*
X-126405786Y-32231877D01*
X-126356723Y-32277949D01*
X-126354055Y-32280534D01*
X-126334471Y-32300120D01*
X-126331292Y-32302585D01*
X-126322418Y-32310164D01*
X-126290582Y-32340062D01*
X-126273029Y-32349711D01*
X-126256759Y-32360398D01*
X-126240936Y-32372673D01*
X-126200832Y-32390026D01*
X-126190369Y-32395153D01*
X-126152092Y-32416197D01*
X-126132699Y-32421175D01*
X-126114280Y-32427481D01*
X-126095896Y-32435438D01*
X-126052745Y-32442272D01*
X-126041331Y-32444635D01*
X-125999019Y-32455500D01*
X-125978984Y-32455500D01*
X-125959586Y-32457026D01*
X-125939804Y-32460160D01*
X-125896325Y-32456050D01*
X-125884656Y-32455500D01*
X-125227796Y-32455500D01*
X-125160757Y-32475185D01*
X-125115002Y-32527989D01*
X-125105058Y-32597147D01*
X-125109410Y-32616386D01*
X-125114452Y-32632567D01*
X-125120500Y-32699119D01*
X-125120499Y-33250880D01*
X-125114452Y-33317433D01*
X-125066733Y-33470569D01*
X-124985276Y-33605315D01*
X-124975963Y-33620721D01*
X-124977405Y-33621593D01*
X-124952835Y-33666584D01*
X-124950000Y-33692950D01*
X-124950000Y-34350000D01*
X-124949999Y-35574998D01*
X-124949998Y-35574999D01*
X-124904003Y-35574999D01*
X-124897720Y-35574678D01*
X-124799849Y-35564681D01*
X-124636198Y-35510453D01*
X-124489459Y-35419943D01*
X-124375534Y-35306018D01*
X-124314211Y-35272533D01*
X-124244519Y-35277517D01*
X-124200173Y-35306016D01*
X-124085850Y-35420340D01*
X-123939016Y-35510908D01*
X-123775253Y-35565174D01*
X-123674177Y-35575500D01*
X-123075824Y-35575499D01*
X-122974747Y-35565174D01*
X-122810984Y-35510908D01*
X-122664150Y-35420340D01*
X-122664149Y-35420339D01*
X-122664147Y-35420338D01*
X-122542161Y-35298352D01*
X-122451591Y-35151515D01*
X-122397325Y-34987753D01*
X-122387319Y-34889809D01*
X-122387318Y-34889790D01*
X-122387000Y-34886677D01*
X-122387000Y-34850000D01*
X-122387000Y-34316473D01*
X-122387000Y-34316453D01*
X-122387001Y-34313324D01*
X-122387321Y-34310190D01*
X-122397325Y-34212247D01*
X-122451591Y-34048484D01*
X-122542161Y-33901647D01*
X-122664147Y-33779661D01*
X-122810984Y-33689091D01*
X-122974746Y-33634825D01*
X-123072690Y-33624819D01*
X-123072710Y-33624817D01*
X-123075823Y-33624500D01*
X-123078972Y-33624500D01*
X-123412713Y-33624500D01*
X-123479752Y-33604815D01*
X-123525507Y-33552011D01*
X-123535451Y-33482853D01*
X-123531098Y-33463610D01*
X-123485548Y-33317434D01*
X-123479755Y-33253687D01*
X-123479500Y-33250881D01*
X-123479500Y-32991221D01*
X-123479500Y-32701940D01*
X-123479500Y-32701918D01*
X-123479501Y-32699120D01*
X-123479756Y-32696312D01*
X-123479756Y-32696304D01*
X-123485547Y-32632568D01*
X-123533267Y-32479429D01*
X-123540995Y-32466646D01*
X-123558829Y-32399091D01*
X-123540994Y-32338352D01*
X-123533266Y-32325568D01*
X-123485548Y-32172434D01*
X-123479755Y-32108687D01*
X-123479500Y-32105881D01*
X-123479500Y-31981713D01*
X-123479500Y-31556940D01*
X-123479500Y-31556918D01*
X-123479501Y-31554120D01*
X-123479755Y-31551322D01*
X-123479756Y-31551304D01*
X-123485547Y-31487567D01*
X-123533266Y-31334432D01*
X-123616248Y-31197162D01*
X-123729662Y-31083748D01*
X-123866933Y-31000765D01*
X-124020065Y-30953048D01*
X-124083812Y-30947255D01*
X-124083813Y-30947254D01*
X-124086619Y-30947000D01*
X-124089436Y-30947000D01*
X-124089437Y-30947000D01*
X-124510559Y-30947000D01*
X-124510580Y-30947000D01*
X-124513380Y-30947001D01*
X-124516178Y-30947255D01*
X-124516195Y-30947256D01*
X-124579932Y-30953047D01*
X-124733067Y-31000766D01*
X-124870334Y-31083746D01*
X-124870335Y-31083747D01*
X-124954770Y-31168182D01*
X-125016091Y-31201666D01*
X-125042450Y-31204500D01*
X-125609548Y-31204500D01*
X-125676587Y-31184815D01*
X-125697229Y-31168181D01*
X-126749199Y-30116208D01*
X-126762096Y-30100110D01*
X-126813225Y-30052096D01*
X-126816016Y-30049392D01*
X-126832780Y-30032628D01*
X-126832787Y-30032621D01*
X-126835529Y-30029880D01*
X-126838597Y-30027499D01*
X-126838608Y-30027490D01*
X-126838711Y-30027411D01*
X-126847572Y-30019842D01*
X-126879420Y-29989935D01*
X-126896974Y-29980285D01*
X-126913228Y-29969609D01*
X-126929063Y-29957326D01*
X-126969158Y-29939975D01*
X-126979644Y-29934838D01*
X-127017907Y-29913802D01*
X-127037309Y-29908821D01*
X-127055711Y-29902520D01*
X-127074102Y-29894561D01*
X-127117242Y-29887728D01*
X-127128674Y-29885360D01*
X-127170978Y-29874500D01*
X-127170981Y-29874500D01*
X-127191016Y-29874500D01*
X-127210413Y-29872973D01*
X-127214983Y-29872249D01*
X-127230194Y-29869840D01*
X-127230195Y-29869840D01*
X-127230196Y-29869840D01*
X-127263339Y-29872973D01*
X-127273675Y-29873950D01*
X-127285344Y-29874500D01*
X-128689547Y-29874500D01*
X-128756586Y-29854815D01*
X-128777228Y-29838181D01*
X-129088181Y-29527227D01*
X-129121666Y-29465904D01*
X-129124500Y-29439546D01*
X-129124500Y-28696343D01*
X-129122236Y-28675842D01*
X-129124439Y-28605747D01*
X-129124500Y-28601853D01*
X-129124500Y-28578149D01*
X-129124500Y-28574254D01*
X-129124987Y-28570393D01*
X-129124988Y-28570382D01*
X-129125005Y-28570249D01*
X-129125918Y-28558633D01*
X-129127290Y-28514972D01*
X-129132880Y-28495733D01*
X-129136825Y-28476684D01*
X-129139335Y-28456812D01*
X-129155415Y-28416197D01*
X-129159196Y-28405153D01*
X-129171382Y-28363215D01*
X-129181581Y-28345968D01*
X-129190136Y-28328504D01*
X-129197514Y-28309871D01*
X-129223189Y-28274530D01*
X-129229599Y-28264772D01*
X-129251829Y-28227183D01*
X-129265998Y-28213014D01*
X-129278628Y-28198226D01*
X-129290405Y-28182017D01*
X-129324058Y-28154176D01*
X-129332696Y-28146315D01*
X-130079011Y-27400000D01*
X-127955527Y-27400000D01*
X-127935436Y-27732142D01*
X-127875456Y-28059441D01*
X-127776463Y-28377123D01*
X-127639898Y-28680557D01*
X-127467754Y-28965318D01*
X-127262542Y-29227252D01*
X-127027252Y-29462542D01*
X-126765318Y-29667754D01*
X-126480557Y-29839898D01*
X-126177123Y-29976463D01*
X-125859441Y-30075456D01*
X-125532142Y-30135436D01*
X-125200000Y-30155527D01*
X-124867858Y-30135436D01*
X-124540559Y-30075456D01*
X-124222877Y-29976463D01*
X-123919443Y-29839898D01*
X-123634682Y-29667754D01*
X-123372748Y-29462542D01*
X-123137458Y-29227252D01*
X-122932246Y-28965318D01*
X-122783685Y-28719568D01*
X-122762039Y-28683762D01*
X-122762035Y-28683755D01*
X-122760102Y-28680557D01*
X-122623537Y-28377123D01*
X-122602581Y-28309872D01*
X-122525658Y-28063017D01*
X-122525656Y-28063012D01*
X-122524544Y-28059441D01*
X-122523871Y-28055770D01*
X-122523869Y-28055761D01*
X-122465239Y-27735826D01*
X-122465238Y-27735824D01*
X-122464564Y-27732142D01*
X-122464338Y-27728416D01*
X-122464337Y-27728403D01*
X-122444699Y-27403736D01*
X-122444473Y-27400000D01*
X-122444699Y-27396263D01*
X-122464337Y-27071596D01*
X-122464338Y-27071581D01*
X-122464564Y-27067858D01*
X-122465239Y-27064173D01*
X-122523869Y-26744238D01*
X-122523872Y-26744225D01*
X-122524544Y-26740559D01*
X-122525655Y-26736991D01*
X-122525658Y-26736982D01*
X-122622422Y-26426454D01*
X-122622424Y-26426448D01*
X-122623537Y-26422877D01*
X-122634780Y-26397897D01*
X-122758565Y-26122858D01*
X-122758565Y-26122857D01*
X-122760102Y-26119443D01*
X-122762031Y-26116250D01*
X-122762039Y-26116237D01*
X-122930309Y-25837886D01*
X-122930309Y-25837884D01*
X-122932246Y-25834682D01*
X-122934550Y-25831740D01*
X-122934555Y-25831734D01*
X-123135146Y-25575699D01*
X-123135146Y-25575698D01*
X-123137458Y-25572748D01*
X-123140103Y-25570102D01*
X-123140111Y-25570094D01*
X-123370094Y-25340111D01*
X-123370102Y-25340103D01*
X-123372748Y-25337458D01*
X-123375699Y-25335146D01*
X-123631734Y-25134555D01*
X-123631740Y-25134550D01*
X-123634682Y-25132246D01*
X-123637886Y-25130309D01*
X-123916237Y-24962039D01*
X-123916250Y-24962031D01*
X-123919443Y-24960102D01*
X-124222877Y-24823537D01*
X-124226448Y-24822424D01*
X-124226454Y-24822422D01*
X-124536982Y-24725658D01*
X-124536991Y-24725655D01*
X-124540559Y-24724544D01*
X-124544225Y-24723872D01*
X-124544238Y-24723869D01*
X-124864173Y-24665239D01*
X-124864177Y-24665238D01*
X-124867858Y-24664564D01*
X-124871581Y-24664338D01*
X-124871596Y-24664337D01*
X-125196264Y-24644699D01*
X-125200000Y-24644473D01*
X-125203736Y-24644699D01*
X-125528403Y-24664337D01*
X-125528416Y-24664338D01*
X-125532142Y-24664564D01*
X-125535824Y-24665238D01*
X-125535826Y-24665239D01*
X-125855761Y-24723869D01*
X-125855770Y-24723871D01*
X-125859441Y-24724544D01*
X-125863012Y-24725656D01*
X-125863017Y-24725658D01*
X-126173545Y-24822422D01*
X-126177123Y-24823537D01*
X-126480557Y-24960102D01*
X-126483755Y-24962035D01*
X-126483762Y-24962039D01*
X-126622937Y-25046174D01*
X-126765318Y-25132246D01*
X-127027252Y-25337458D01*
X-127262542Y-25572748D01*
X-127467754Y-25834682D01*
X-127639898Y-26119443D01*
X-127776463Y-26422877D01*
X-127875456Y-26740559D01*
X-127935436Y-27067858D01*
X-127955527Y-27400000D01*
X-130079011Y-27400000D01*
X-130987803Y-26491208D01*
X-131000700Y-26475110D01*
X-131051829Y-26427096D01*
X-131054620Y-26424392D01*
X-131071384Y-26407628D01*
X-131071391Y-26407621D01*
X-131074133Y-26404880D01*
X-131077201Y-26402499D01*
X-131077212Y-26402490D01*
X-131077315Y-26402411D01*
X-131086176Y-26394842D01*
X-131118024Y-26364935D01*
X-131135578Y-26355285D01*
X-131151832Y-26344609D01*
X-131167667Y-26332326D01*
X-131207762Y-26314975D01*
X-131218248Y-26309838D01*
X-131256511Y-26288802D01*
X-131275913Y-26283821D01*
X-131294315Y-26277520D01*
X-131312706Y-26269561D01*
X-131355846Y-26262728D01*
X-131367278Y-26260360D01*
X-131409582Y-26249500D01*
X-131409585Y-26249500D01*
X-131429620Y-26249500D01*
X-131449017Y-26247973D01*
X-131453587Y-26247249D01*
X-131468798Y-26244840D01*
X-131468799Y-26244840D01*
X-131468800Y-26244840D01*
X-131501943Y-26247973D01*
X-131512279Y-26248950D01*
X-131523948Y-26249500D01*
X-141206776Y-26249500D01*
X-141273815Y-26229815D01*
X-141319570Y-26177011D01*
X-141330772Y-26126525D01*
X-141348963Y-23925525D01*
X-141329833Y-23858325D01*
X-141277409Y-23812135D01*
X-141224967Y-23800500D01*
X-121724500Y-23800500D01*
X-121657461Y-23820185D01*
G37*
%TD.AperFunction*%
%TA.AperFunction,Conductor*%
G36*
X-149785085Y-63005917D02*
G01*
X-149758383Y-63026205D01*
X-148961817Y-63822772D01*
X-148928334Y-63884093D01*
X-148925500Y-63910451D01*
X-148925500Y-65779120D01*
X-148945185Y-65846159D01*
X-148997989Y-65891914D01*
X-149067147Y-65901858D01*
X-149099935Y-65892400D01*
X-149220199Y-65838854D01*
X-149405352Y-65799500D01*
X-149405354Y-65799500D01*
X-149594646Y-65799500D01*
X-149594648Y-65799500D01*
X-149779802Y-65838855D01*
X-149952730Y-65915848D01*
X-150105870Y-66027110D01*
X-150232533Y-66167783D01*
X-150327179Y-66331715D01*
X-150327179Y-66331716D01*
X-150385674Y-66511744D01*
X-150405460Y-66700000D01*
X-150385674Y-66888256D01*
X-150385673Y-66888258D01*
X-150384311Y-66901219D01*
X-150385425Y-66901336D01*
X-150384361Y-66914858D01*
X-150381634Y-66914601D01*
X-150376050Y-66973674D01*
X-150375500Y-66985343D01*
X-150375500Y-76534152D01*
X-150395185Y-76601191D01*
X-150447989Y-76646946D01*
X-150449064Y-76647431D01*
X-150602727Y-76715847D01*
X-150602729Y-76715848D01*
X-150602730Y-76715849D01*
X-150755871Y-76827112D01*
X-150761598Y-76833472D01*
X-150821084Y-76870121D01*
X-150853747Y-76874500D01*
X-150917256Y-76874500D01*
X-150937762Y-76872235D01*
X-151007873Y-76874439D01*
X-151011768Y-76874500D01*
X-151039350Y-76874500D01*
X-151043219Y-76874988D01*
X-151043225Y-76874989D01*
X-151043343Y-76875004D01*
X-151054967Y-76875918D01*
X-151098626Y-76877290D01*
X-151114140Y-76881798D01*
X-151117862Y-76882879D01*
X-151136916Y-76886825D01*
X-151156792Y-76889335D01*
X-151197404Y-76905414D01*
X-151208451Y-76909197D01*
X-151250391Y-76921382D01*
X-151267635Y-76931580D01*
X-151285100Y-76940136D01*
X-151303732Y-76947514D01*
X-151303733Y-76947515D01*
X-151339059Y-76973180D01*
X-151348822Y-76979593D01*
X-151386416Y-77001826D01*
X-151386419Y-77001829D01*
X-151386420Y-77001830D01*
X-151400585Y-77015995D01*
X-151415375Y-77028627D01*
X-151431587Y-77040406D01*
X-151459426Y-77074058D01*
X-151467289Y-77082699D01*
X-152633787Y-78249196D01*
X-152649888Y-78262096D01*
X-152697900Y-78313223D01*
X-152700611Y-78316020D01*
X-152720120Y-78335529D01*
X-152722587Y-78338709D01*
X-152730155Y-78347571D01*
X-152731967Y-78349500D01*
X-152760061Y-78379417D01*
X-152769712Y-78396972D01*
X-152780396Y-78413236D01*
X-152789499Y-78424972D01*
X-152792673Y-78429064D01*
X-152799281Y-78444335D01*
X-152810021Y-78469152D01*
X-152815154Y-78479631D01*
X-152836197Y-78517908D01*
X-152838933Y-78528568D01*
X-152841176Y-78537303D01*
X-152847477Y-78555708D01*
X-152855438Y-78574104D01*
X-152862273Y-78617261D01*
X-152864634Y-78628664D01*
X-152875500Y-78670981D01*
X-152875500Y-78670982D01*
X-152875500Y-78691016D01*
X-152877027Y-78710414D01*
X-152880160Y-78730196D01*
X-152876351Y-78770486D01*
X-152876050Y-78773673D01*
X-152875500Y-78785343D01*
X-152875500Y-80939547D01*
X-152895185Y-81006586D01*
X-152911819Y-81027228D01*
X-154472772Y-82588181D01*
X-154534095Y-82621666D01*
X-154560453Y-82624500D01*
X-154796253Y-82624500D01*
X-154863292Y-82604815D01*
X-154888400Y-82583473D01*
X-154894129Y-82577112D01*
X-154962789Y-82527228D01*
X-155047272Y-82465847D01*
X-155220197Y-82388855D01*
X-155405352Y-82349500D01*
X-155405354Y-82349500D01*
X-155451811Y-82349500D01*
X-155518850Y-82329815D01*
X-155564605Y-82277011D01*
X-155574549Y-82207853D01*
X-155572224Y-82195890D01*
X-150894976Y-63175079D01*
X-150859853Y-63114680D01*
X-150797650Y-63082857D01*
X-150728118Y-63089716D01*
X-150724127Y-63091410D01*
X-150699493Y-63102377D01*
X-150679803Y-63111144D01*
X-150663167Y-63114680D01*
X-150494648Y-63150500D01*
X-150494646Y-63150500D01*
X-150305352Y-63150500D01*
X-150120197Y-63111144D01*
X-149947270Y-63034151D01*
X-149918945Y-63013572D01*
X-149853139Y-62990092D01*
X-149785085Y-63005917D01*
G37*
%TD.AperFunction*%
%TA.AperFunction,Conductor*%
G36*
X-148194297Y-74390738D02*
G01*
X-148187851Y-74396738D01*
X-148183698Y-74400890D01*
X-148171068Y-74415678D01*
X-148159289Y-74431892D01*
X-148125621Y-74459743D01*
X-148117004Y-74467584D01*
X-146711817Y-75872772D01*
X-146678334Y-75934093D01*
X-146675500Y-75960451D01*
X-146675500Y-77689547D01*
X-146695185Y-77756586D01*
X-146711819Y-77777228D01*
X-147272772Y-78338181D01*
X-147334095Y-78371666D01*
X-147360453Y-78374500D01*
X-148715547Y-78374500D01*
X-148782586Y-78354815D01*
X-148828341Y-78302011D01*
X-148838285Y-78232853D01*
X-148809260Y-78169297D01*
X-148803228Y-78162819D01*
X-148641211Y-78000802D01*
X-148625113Y-77987906D01*
X-148577098Y-77936775D01*
X-148574387Y-77933978D01*
X-148557636Y-77917227D01*
X-148554880Y-77914471D01*
X-148552412Y-77911290D01*
X-148544837Y-77902422D01*
X-148514938Y-77870582D01*
X-148505285Y-77853024D01*
X-148494604Y-77836764D01*
X-148482327Y-77820937D01*
X-148464979Y-77780848D01*
X-148459840Y-77770359D01*
X-148438802Y-77732091D01*
X-148433818Y-77712681D01*
X-148427518Y-77694281D01*
X-148419562Y-77675896D01*
X-148412731Y-77632766D01*
X-148410363Y-77621331D01*
X-148399500Y-77579019D01*
X-148399500Y-77558983D01*
X-148397973Y-77539584D01*
X-148394840Y-77519804D01*
X-148398950Y-77476324D01*
X-148399500Y-77464655D01*
X-148399500Y-74484451D01*
X-148379815Y-74417412D01*
X-148327011Y-74371657D01*
X-148257853Y-74361713D01*
X-148194297Y-74390738D01*
G37*
%TD.AperFunction*%
%TA.AperFunction,Conductor*%
G36*
X-154549681Y-69198487D02*
G01*
X-154493748Y-69240359D01*
X-154469331Y-69305823D01*
X-154472601Y-69344274D01*
X-155691880Y-74302673D01*
X-155880087Y-75068046D01*
X-155915210Y-75128445D01*
X-155977413Y-75160268D01*
X-156046945Y-75153409D01*
X-156101731Y-75110048D01*
X-156124377Y-75043950D01*
X-156124500Y-75038436D01*
X-156124500Y-70722152D01*
X-156104815Y-70655113D01*
X-156088181Y-70634471D01*
X-154680696Y-69226988D01*
X-154619373Y-69193503D01*
X-154549681Y-69198487D01*
G37*
%TD.AperFunction*%
%TA.AperFunction,Conductor*%
G36*
X-138118413Y-28870185D02*
G01*
X-138097771Y-28886819D01*
X-136161819Y-30822771D01*
X-136128334Y-30884094D01*
X-136125500Y-30910452D01*
X-136125500Y-47051312D01*
X-136145185Y-47118351D01*
X-136157350Y-47134284D01*
X-136232533Y-47217783D01*
X-136327179Y-47381715D01*
X-136327179Y-47381716D01*
X-136385674Y-47561744D01*
X-136405460Y-47750000D01*
X-136385674Y-47938256D01*
X-136327179Y-48118284D01*
X-136232533Y-48282216D01*
X-136105871Y-48422888D01*
X-135952730Y-48534151D01*
X-135779803Y-48611144D01*
X-135727191Y-48622327D01*
X-135594648Y-48650500D01*
X-135594646Y-48650500D01*
X-135405352Y-48650500D01*
X-135220197Y-48611144D01*
X-135047269Y-48534151D01*
X-134894129Y-48422889D01*
X-134767466Y-48282216D01*
X-134672820Y-48118284D01*
X-134614326Y-47938257D01*
X-134594540Y-47750000D01*
X-134614326Y-47561742D01*
X-134672820Y-47381715D01*
X-134767466Y-47217783D01*
X-134842650Y-47134284D01*
X-134872880Y-47071293D01*
X-134874500Y-47051312D01*
X-134874500Y-46681123D01*
X-134854815Y-46614084D01*
X-134802011Y-46568329D01*
X-134732853Y-46558385D01*
X-134676190Y-46581856D01*
X-134650315Y-46601226D01*
X-134399161Y-46738367D01*
X-134131046Y-46838369D01*
X-134090159Y-46847263D01*
X-134072619Y-46851079D01*
X-134011295Y-46884563D01*
X-133977810Y-46945886D01*
X-133978562Y-47001851D01*
X-137760824Y-62383045D01*
X-139855960Y-70903262D01*
X-139891083Y-70963661D01*
X-139953286Y-70995484D01*
X-140022818Y-70988625D01*
X-140077604Y-70945264D01*
X-140100250Y-70879166D01*
X-140100373Y-70873652D01*
X-140100373Y-70556867D01*
X-140098109Y-70536363D01*
X-140100312Y-70466271D01*
X-140100373Y-70462377D01*
X-140100373Y-70438672D01*
X-140100373Y-70434777D01*
X-140100859Y-70430926D01*
X-140100861Y-70430895D01*
X-140100878Y-70430767D01*
X-140101791Y-70419155D01*
X-140103163Y-70375495D01*
X-140108753Y-70356255D01*
X-140112698Y-70337208D01*
X-140115208Y-70317336D01*
X-140131286Y-70276726D01*
X-140135067Y-70265681D01*
X-140147253Y-70223738D01*
X-140157451Y-70206496D01*
X-140166011Y-70189024D01*
X-140173387Y-70170393D01*
X-140199054Y-70135065D01*
X-140205464Y-70125307D01*
X-140227702Y-70087706D01*
X-140241871Y-70073537D01*
X-140254501Y-70058749D01*
X-140266278Y-70042540D01*
X-140299931Y-70014699D01*
X-140308569Y-70006838D01*
X-141729181Y-68586227D01*
X-141762666Y-68524904D01*
X-141765500Y-68498546D01*
X-141765500Y-40655347D01*
X-141763235Y-40634843D01*
X-141765439Y-40564730D01*
X-141765500Y-40560835D01*
X-141765500Y-40537142D01*
X-141765500Y-40533254D01*
X-141765985Y-40529409D01*
X-141765987Y-40529384D01*
X-141766004Y-40529257D01*
X-141766918Y-40517637D01*
X-141768290Y-40473973D01*
X-141773880Y-40454733D01*
X-141777825Y-40435685D01*
X-141780335Y-40415813D01*
X-141796413Y-40375203D01*
X-141800194Y-40364158D01*
X-141812381Y-40322214D01*
X-141822579Y-40304969D01*
X-141831133Y-40287508D01*
X-141838512Y-40268871D01*
X-141864185Y-40233535D01*
X-141870595Y-40223778D01*
X-141892829Y-40186184D01*
X-141906996Y-40172017D01*
X-141919626Y-40157228D01*
X-141931404Y-40141017D01*
X-141965058Y-40113176D01*
X-141973697Y-40105315D01*
X-142838181Y-39240831D01*
X-142871666Y-39179508D01*
X-142874500Y-39153150D01*
X-142874500Y-38903952D01*
X-142854815Y-38836913D01*
X-142838181Y-38816271D01*
X-142382228Y-38360318D01*
X-142320905Y-38326833D01*
X-142294547Y-38323999D01*
X-141030979Y-38323999D01*
X-141028878Y-38323999D01*
X-140986111Y-38321100D01*
X-140801307Y-38275141D01*
X-140630704Y-38190530D01*
X-140482278Y-38071222D01*
X-140362970Y-37922796D01*
X-140278359Y-37752193D01*
X-140271362Y-37724058D01*
X-140232399Y-37567387D01*
X-140229641Y-37526716D01*
X-140229640Y-37526688D01*
X-140229500Y-37524623D01*
X-140229500Y-37249500D01*
X-140229500Y-36624478D01*
X-140229500Y-36624448D01*
X-140229501Y-36622378D01*
X-140229961Y-36615595D01*
X-140232399Y-36579613D01*
X-140278359Y-36394805D01*
X-140362971Y-36224202D01*
X-140482278Y-36075778D01*
X-140630702Y-35956471D01*
X-140630704Y-35956470D01*
X-140715152Y-35914587D01*
X-140766464Y-35867167D01*
X-140783993Y-35799532D01*
X-140762174Y-35733157D01*
X-140715152Y-35692412D01*
X-140630704Y-35650530D01*
X-140482278Y-35531222D01*
X-140362970Y-35382796D01*
X-140278359Y-35212193D01*
X-140263269Y-35151515D01*
X-140232399Y-35027387D01*
X-140229641Y-34986716D01*
X-140229640Y-34986688D01*
X-140229500Y-34984623D01*
X-140229500Y-34850000D01*
X-140229500Y-34084478D01*
X-140229500Y-34084448D01*
X-140229501Y-34082378D01*
X-140229643Y-34080280D01*
X-140232399Y-34039613D01*
X-140278359Y-33854805D01*
X-140362971Y-33684202D01*
X-140482278Y-33535778D01*
X-140630702Y-33416471D01*
X-140715152Y-33374588D01*
X-140766464Y-33327167D01*
X-140783993Y-33259532D01*
X-140762174Y-33193157D01*
X-140715152Y-33152412D01*
X-140715148Y-33152410D01*
X-140630704Y-33110530D01*
X-140482278Y-32991222D01*
X-140362970Y-32842796D01*
X-140278359Y-32672193D01*
X-140268504Y-32632567D01*
X-140232399Y-32487387D01*
X-140229641Y-32446716D01*
X-140229640Y-32446688D01*
X-140229500Y-32444623D01*
X-140229500Y-32010738D01*
X-140229500Y-31544478D01*
X-140229500Y-31544448D01*
X-140229501Y-31542378D01*
X-140230313Y-31530397D01*
X-140232399Y-31499613D01*
X-140278359Y-31314805D01*
X-140362971Y-31144202D01*
X-140482278Y-30995778D01*
X-140630702Y-30876471D01*
X-140715152Y-30834588D01*
X-140766464Y-30787167D01*
X-140783993Y-30719532D01*
X-140762174Y-30653157D01*
X-140715152Y-30612412D01*
X-140630704Y-30570530D01*
X-140482278Y-30451222D01*
X-140362970Y-30302796D01*
X-140278359Y-30132193D01*
X-140259155Y-30054972D01*
X-140232399Y-29947387D01*
X-140229641Y-29906716D01*
X-140229640Y-29906688D01*
X-140229500Y-29904623D01*
X-140229500Y-29459888D01*
X-140229500Y-29004478D01*
X-140229500Y-29004448D01*
X-140229501Y-29002378D01*
X-140229643Y-29000280D01*
X-140229643Y-29000275D01*
X-140230822Y-28982884D01*
X-140215716Y-28914667D01*
X-140166126Y-28865447D01*
X-140107106Y-28850500D01*
X-138185452Y-28850500D01*
X-138118413Y-28870185D01*
G37*
%TD.AperFunction*%
%TA.AperFunction,Conductor*%
G36*
X-144416190Y-46648054D02*
G01*
X-144374318Y-46703987D01*
X-144366500Y-46747321D01*
X-144366500Y-67091541D01*
X-144386185Y-67158580D01*
X-144402819Y-67179222D01*
X-146353538Y-69129941D01*
X-146414861Y-69163426D01*
X-146466999Y-69163550D01*
X-146624853Y-69129998D01*
X-146624856Y-69129998D01*
X-146814148Y-69129998D01*
X-146814150Y-69129998D01*
X-146924414Y-69153435D01*
X-146994081Y-69148119D01*
X-147049815Y-69105982D01*
X-147073920Y-69040402D01*
X-147074195Y-69032145D01*
X-147074195Y-62383045D01*
X-147071931Y-62362544D01*
X-147074134Y-62292449D01*
X-147074195Y-62288555D01*
X-147074195Y-62264850D01*
X-147074195Y-62260955D01*
X-147074681Y-62257104D01*
X-147074683Y-62257073D01*
X-147074700Y-62256945D01*
X-147075613Y-62245333D01*
X-147076985Y-62201673D01*
X-147082575Y-62182433D01*
X-147086520Y-62163386D01*
X-147089030Y-62143514D01*
X-147105108Y-62102904D01*
X-147108889Y-62091859D01*
X-147121075Y-62049916D01*
X-147131273Y-62032674D01*
X-147139833Y-62015202D01*
X-147147209Y-61996571D01*
X-147172876Y-61961243D01*
X-147179286Y-61951485D01*
X-147201524Y-61913884D01*
X-147215693Y-61899715D01*
X-147228323Y-61884927D01*
X-147240100Y-61868718D01*
X-147252825Y-61858191D01*
X-147291931Y-61800290D01*
X-147297103Y-61775611D01*
X-147314326Y-61611742D01*
X-147372820Y-61431715D01*
X-147467466Y-61267783D01*
X-147594129Y-61127110D01*
X-147747269Y-61015848D01*
X-147903805Y-60946153D01*
X-147957042Y-60900903D01*
X-147977363Y-60834054D01*
X-147958318Y-60766830D01*
X-147926255Y-60732556D01*
X-147914663Y-60724133D01*
X-147844129Y-60672888D01*
X-147838401Y-60666527D01*
X-147778916Y-60629879D01*
X-147746253Y-60625500D01*
X-147332744Y-60625500D01*
X-147312237Y-60627764D01*
X-147309333Y-60627672D01*
X-147309333Y-60627673D01*
X-147242127Y-60625561D01*
X-147238232Y-60625500D01*
X-147214541Y-60625500D01*
X-147210650Y-60625500D01*
X-147206678Y-60624998D01*
X-147195021Y-60624080D01*
X-147151373Y-60622709D01*
X-147132140Y-60617120D01*
X-147113082Y-60613174D01*
X-147093206Y-60610664D01*
X-147052604Y-60594588D01*
X-147041553Y-60590804D01*
X-147021168Y-60584881D01*
X-146999610Y-60578618D01*
X-146982355Y-60568414D01*
X-146964895Y-60559861D01*
X-146946268Y-60552486D01*
X-146910925Y-60526808D01*
X-146901171Y-60520401D01*
X-146863580Y-60498170D01*
X-146849416Y-60484006D01*
X-146834617Y-60471367D01*
X-146818413Y-60459595D01*
X-146790573Y-60425941D01*
X-146782709Y-60417299D01*
X-146116211Y-59750802D01*
X-146100113Y-59737906D01*
X-146052098Y-59686775D01*
X-146049387Y-59683978D01*
X-146032636Y-59667227D01*
X-146029880Y-59664471D01*
X-146027412Y-59661290D01*
X-146019837Y-59652422D01*
X-145989938Y-59620582D01*
X-145980285Y-59603024D01*
X-145969604Y-59586764D01*
X-145957327Y-59570937D01*
X-145939979Y-59530848D01*
X-145934840Y-59520359D01*
X-145913802Y-59482091D01*
X-145908818Y-59462681D01*
X-145902518Y-59444281D01*
X-145894562Y-59425896D01*
X-145887731Y-59382766D01*
X-145885363Y-59371331D01*
X-145874500Y-59329019D01*
X-145874500Y-59308983D01*
X-145872973Y-59289584D01*
X-145869840Y-59269804D01*
X-145873950Y-59226324D01*
X-145874500Y-59214655D01*
X-145874500Y-48899062D01*
X-145854815Y-48832023D01*
X-145802011Y-48786268D01*
X-145800931Y-48785781D01*
X-145800813Y-48785728D01*
X-145797270Y-48784151D01*
X-145764384Y-48760258D01*
X-145644129Y-48672889D01*
X-145517466Y-48532216D01*
X-145422820Y-48368284D01*
X-145364326Y-48188257D01*
X-145344540Y-48000000D01*
X-145364326Y-47811742D01*
X-145422820Y-47631715D01*
X-145517466Y-47467783D01*
X-145644129Y-47327110D01*
X-145797269Y-47215848D01*
X-145941170Y-47151779D01*
X-145994407Y-47106529D01*
X-146014728Y-47039680D01*
X-145995683Y-46972456D01*
X-145943316Y-46926201D01*
X-145890734Y-46914500D01*
X-145496767Y-46914500D01*
X-145494552Y-46914500D01*
X-145280572Y-46899196D01*
X-145053217Y-46849738D01*
X-145000958Y-46838370D01*
X-145000957Y-46838369D01*
X-145000954Y-46838369D01*
X-144732839Y-46738367D01*
X-144549926Y-46638488D01*
X-144481654Y-46623637D01*
X-144416190Y-46648054D01*
G37*
%TD.AperFunction*%
%TA.AperFunction,Conductor*%
G36*
X-129854942Y-37945185D02*
G01*
X-129816441Y-37984404D01*
X-129807840Y-37998350D01*
X-129747057Y-38059132D01*
X-129713574Y-38120453D01*
X-129718558Y-38190145D01*
X-129727353Y-38208812D01*
X-129827179Y-38381715D01*
X-129852826Y-38460650D01*
X-129885674Y-38561744D01*
X-129905460Y-38750000D01*
X-129885674Y-38938256D01*
X-129827179Y-39118284D01*
X-129732533Y-39282216D01*
X-129642943Y-39381716D01*
X-129605870Y-39422889D01*
X-129530967Y-39477309D01*
X-129452730Y-39534151D01*
X-129279803Y-39611144D01*
X-129218083Y-39624262D01*
X-129094648Y-39650500D01*
X-129094646Y-39650500D01*
X-128905352Y-39650500D01*
X-128720197Y-39611144D01*
X-128547269Y-39534151D01*
X-128394129Y-39422889D01*
X-128316649Y-39336838D01*
X-128257162Y-39300189D01*
X-128187305Y-39301520D01*
X-128129257Y-39340406D01*
X-128101447Y-39404503D01*
X-128100498Y-39419810D01*
X-128100499Y-39474176D01*
X-128090174Y-39575253D01*
X-128035908Y-39739016D01*
X-127945340Y-39885850D01*
X-127937375Y-39893815D01*
X-127931020Y-39900170D01*
X-127897533Y-39961492D01*
X-127902516Y-40031184D01*
X-127931018Y-40075534D01*
X-127944943Y-40089459D01*
X-128035453Y-40236198D01*
X-128089681Y-40399848D01*
X-128099680Y-40497722D01*
X-128100000Y-40504000D01*
X-128100000Y-40600000D01*
X-126150001Y-40600000D01*
X-126150001Y-40504002D01*
X-126150321Y-40497720D01*
X-126160318Y-40399849D01*
X-126214546Y-40236198D01*
X-126305057Y-40089458D01*
X-126318983Y-40075532D01*
X-126352467Y-40014209D01*
X-126347481Y-39944517D01*
X-126318981Y-39900172D01*
X-126304661Y-39885852D01*
X-126214091Y-39739015D01*
X-126159825Y-39575253D01*
X-126149819Y-39477309D01*
X-126149818Y-39477290D01*
X-126149500Y-39474177D01*
X-126149500Y-38899499D01*
X-126129817Y-38832461D01*
X-126077013Y-38786706D01*
X-126025501Y-38775500D01*
X-125991520Y-38775500D01*
X-125924481Y-38795185D01*
X-125903839Y-38811819D01*
X-125846304Y-38869353D01*
X-125810185Y-38905472D01*
X-125664606Y-38993478D01*
X-125502196Y-39044086D01*
X-125431616Y-39050500D01*
X-125428797Y-39050500D01*
X-123721203Y-39050500D01*
X-123718384Y-39050500D01*
X-123647804Y-39044086D01*
X-123485394Y-38993478D01*
X-123339815Y-38905472D01*
X-123339813Y-38905471D01*
X-123337180Y-38902838D01*
X-123275857Y-38869353D01*
X-123206165Y-38874337D01*
X-123150232Y-38916209D01*
X-123125815Y-38981673D01*
X-123125500Y-38990491D01*
X-123125500Y-41510191D01*
X-123145184Y-41577227D01*
X-123197988Y-41622982D01*
X-123267146Y-41632926D01*
X-123330702Y-41603901D01*
X-123337177Y-41597872D01*
X-123340122Y-41594927D01*
X-123485603Y-41506980D01*
X-123647893Y-41456409D01*
X-123715615Y-41450255D01*
X-123721244Y-41450000D01*
X-124325000Y-41450000D01*
X-124325000Y-43249999D01*
X-123721247Y-43249999D01*
X-123715610Y-43249743D01*
X-123647895Y-43243591D01*
X-123485602Y-43193018D01*
X-123340124Y-43105074D01*
X-123337180Y-43102130D01*
X-123275857Y-43068645D01*
X-123206165Y-43073629D01*
X-123150232Y-43115501D01*
X-123125815Y-43180965D01*
X-123125500Y-43189783D01*
X-123125500Y-45939549D01*
X-123145184Y-46006585D01*
X-123161818Y-46027227D01*
X-125722772Y-48588181D01*
X-125784095Y-48621666D01*
X-125810453Y-48624500D01*
X-130667256Y-48624500D01*
X-130687762Y-48622235D01*
X-130757873Y-48624439D01*
X-130761768Y-48624500D01*
X-130789350Y-48624500D01*
X-130793219Y-48624988D01*
X-130793225Y-48624989D01*
X-130793343Y-48625004D01*
X-130804967Y-48625918D01*
X-130848626Y-48627290D01*
X-130864140Y-48631798D01*
X-130867862Y-48632879D01*
X-130886916Y-48636825D01*
X-130906792Y-48639335D01*
X-130947404Y-48655414D01*
X-130958451Y-48659197D01*
X-131000391Y-48671382D01*
X-131017635Y-48681580D01*
X-131035100Y-48690136D01*
X-131053732Y-48697514D01*
X-131053733Y-48697515D01*
X-131089059Y-48723180D01*
X-131098822Y-48729593D01*
X-131136416Y-48751826D01*
X-131136419Y-48751829D01*
X-131136420Y-48751830D01*
X-131150585Y-48765995D01*
X-131165375Y-48778627D01*
X-131181587Y-48790406D01*
X-131209426Y-48824058D01*
X-131217289Y-48832699D01*
X-132383787Y-49999196D01*
X-132399888Y-50012096D01*
X-132426075Y-50039982D01*
X-132486316Y-50075377D01*
X-132556130Y-50072584D01*
X-132613351Y-50032490D01*
X-132639812Y-49967825D01*
X-132636880Y-49925488D01*
X-132215877Y-48213408D01*
X-131919684Y-47008888D01*
X-131884562Y-46948491D01*
X-131822359Y-46916668D01*
X-131799272Y-46914500D01*
X-130496767Y-46914500D01*
X-130494552Y-46914500D01*
X-130280572Y-46899196D01*
X-130053217Y-46849738D01*
X-130000958Y-46838370D01*
X-130000957Y-46838369D01*
X-130000954Y-46838369D01*
X-129732839Y-46738367D01*
X-129597507Y-46664470D01*
X-129481686Y-46601227D01*
X-129354239Y-46505821D01*
X-129252605Y-46429739D01*
X-129050261Y-46227395D01*
X-128900417Y-46027227D01*
X-128878772Y-45998313D01*
X-128741634Y-45747163D01*
X-128641629Y-45479041D01*
X-128580804Y-45199429D01*
X-128565658Y-44987658D01*
X-128565657Y-44987656D01*
X-128565500Y-44985448D01*
X-128565500Y-42600000D01*
X-126074999Y-42600000D01*
X-126074999Y-42603753D01*
X-126074743Y-42609389D01*
X-126068591Y-42677104D01*
X-126018018Y-42839397D01*
X-125930074Y-42984875D01*
X-125809875Y-43105074D01*
X-125664396Y-43193019D01*
X-125502106Y-43243590D01*
X-125434384Y-43249744D01*
X-125428756Y-43249999D01*
X-124825000Y-43249999D01*
X-124824999Y-43249998D01*
X-124825000Y-42600000D01*
X-126074999Y-42600000D01*
X-128565500Y-42600000D01*
X-128565500Y-42100000D01*
X-126075000Y-42100000D01*
X-124825000Y-42100000D01*
X-124825000Y-41450000D01*
X-125428753Y-41450000D01*
X-125434389Y-41450256D01*
X-125502104Y-41456408D01*
X-125664397Y-41506981D01*
X-125809875Y-41594925D01*
X-125930074Y-41715124D01*
X-126018019Y-41860603D01*
X-126068590Y-42022893D01*
X-126074744Y-42090615D01*
X-126075000Y-42096244D01*
X-126075000Y-42100000D01*
X-128565500Y-42100000D01*
X-128565500Y-41842552D01*
X-128574614Y-41715124D01*
X-128580804Y-41628570D01*
X-128641629Y-41348958D01*
X-128734486Y-41100000D01*
X-128099999Y-41100000D01*
X-128099999Y-41195997D01*
X-128099678Y-41202279D01*
X-128089681Y-41300150D01*
X-128035453Y-41463801D01*
X-127944943Y-41610540D01*
X-127823040Y-41732443D01*
X-127676301Y-41822953D01*
X-127512651Y-41877181D01*
X-127414796Y-41887178D01*
X-127408480Y-41887499D01*
X-127375000Y-41887499D01*
X-127375000Y-41100000D01*
X-126875000Y-41100000D01*
X-126875000Y-41887499D01*
X-126841503Y-41887499D01*
X-126835220Y-41887178D01*
X-126737349Y-41877181D01*
X-126573698Y-41822953D01*
X-126426959Y-41732443D01*
X-126305056Y-41610540D01*
X-126214546Y-41463801D01*
X-126160318Y-41300151D01*
X-126150319Y-41202277D01*
X-126150000Y-41195999D01*
X-126150000Y-41100000D01*
X-126875000Y-41100000D01*
X-127375000Y-41100000D01*
X-128099999Y-41100000D01*
X-128734486Y-41100000D01*
X-128741634Y-41080836D01*
X-128878772Y-40829686D01*
X-129050263Y-40600602D01*
X-129252602Y-40398263D01*
X-129481686Y-40226772D01*
X-129732836Y-40089634D01*
X-130000958Y-39989629D01*
X-130280570Y-39928804D01*
X-130492341Y-39913658D01*
X-130492344Y-39913657D01*
X-130494552Y-39913500D01*
X-133637448Y-39913500D01*
X-133639653Y-39913657D01*
X-133639661Y-39913658D01*
X-133715785Y-39919102D01*
X-133784058Y-39904250D01*
X-133833463Y-39854844D01*
X-133848314Y-39786571D01*
X-133847951Y-39782458D01*
X-133844540Y-39750000D01*
X-133864326Y-39561742D01*
X-133922820Y-39381715D01*
X-134017466Y-39217783D01*
X-134134650Y-39087638D01*
X-134164880Y-39024646D01*
X-134166500Y-39004666D01*
X-134166500Y-38447999D01*
X-134146815Y-38380960D01*
X-134094011Y-38335205D01*
X-134042500Y-38323999D01*
X-132267979Y-38323999D01*
X-132265878Y-38323999D01*
X-132223111Y-38321100D01*
X-132038307Y-38275141D01*
X-131867704Y-38190530D01*
X-131719278Y-38071222D01*
X-131667150Y-38006372D01*
X-131639371Y-37971813D01*
X-131582028Y-37931894D01*
X-131542724Y-37925500D01*
X-129921981Y-37925500D01*
X-129854942Y-37945185D01*
G37*
%TD.AperFunction*%
%TD*%
M02*
