%TF.GenerationSoftware,KiCad,Pcbnew,7.0.2*%
%TF.CreationDate,2024-06-10T16:57:37+03:00*%
%TF.ProjectId,STM32_NRF24L01_Sleep_mode,53544d33-325f-44e5-9246-32344c30315f,rev?*%
%TF.SameCoordinates,Original*%
%TF.FileFunction,Soldermask,Bot*%
%TF.FilePolarity,Negative*%
%FSLAX46Y46*%
G04 Gerber Fmt 4.6, Leading zero omitted, Abs format (unit mm)*
G04 Created by KiCad (PCBNEW 7.0.2) date 2024-06-10 16:57:37*
%MOMM*%
%LPD*%
G01*
G04 APERTURE LIST*
G04 Aperture macros list*
%AMRoundRect*
0 Rectangle with rounded corners*
0 $1 Rounding radius*
0 $2 $3 $4 $5 $6 $7 $8 $9 X,Y pos of 4 corners*
0 Add a 4 corners polygon primitive as box body*
4,1,4,$2,$3,$4,$5,$6,$7,$8,$9,$2,$3,0*
0 Add four circle primitives for the rounded corners*
1,1,$1+$1,$2,$3*
1,1,$1+$1,$4,$5*
1,1,$1+$1,$6,$7*
1,1,$1+$1,$8,$9*
0 Add four rect primitives between the rounded corners*
20,1,$1+$1,$2,$3,$4,$5,0*
20,1,$1+$1,$4,$5,$6,$7,0*
20,1,$1+$1,$6,$7,$8,$9,0*
20,1,$1+$1,$8,$9,$2,$3,0*%
%AMFreePoly0*
4,1,6,1.000000,0.000000,0.500000,-0.750000,-0.500000,-0.750000,-0.500000,0.750000,0.500000,0.750000,1.000000,0.000000,1.000000,0.000000,$1*%
%AMFreePoly1*
4,1,6,0.500000,-0.750000,-0.650000,-0.750000,-0.150000,0.000000,-0.650000,0.750000,0.500000,0.750000,0.500000,-0.750000,0.500000,-0.750000,$1*%
G04 Aperture macros list end*
%ADD10RoundRect,0.237500X-0.237500X0.250000X-0.237500X-0.250000X0.237500X-0.250000X0.237500X0.250000X0*%
%ADD11R,1.560000X0.650000*%
%ADD12RoundRect,0.237500X-0.300000X-0.237500X0.300000X-0.237500X0.300000X0.237500X-0.300000X0.237500X0*%
%ADD13RoundRect,0.250000X-1.025000X0.787500X-1.025000X-0.787500X1.025000X-0.787500X1.025000X0.787500X0*%
%ADD14R,1.900000X1.000000*%
%ADD15R,2.510000X1.000000*%
%ADD16R,1.000000X2.510000*%
%ADD17RoundRect,0.250000X0.600000X-0.400000X0.600000X0.400000X-0.600000X0.400000X-0.600000X-0.400000X0*%
%ADD18R,5.560000X2.600000*%
%ADD19C,17.800000*%
%ADD20RoundRect,0.237500X0.237500X-0.250000X0.237500X0.250000X-0.237500X0.250000X-0.237500X-0.250000X0*%
%ADD21R,2.000000X2.000000*%
%ADD22RoundRect,0.237500X0.250000X0.237500X-0.250000X0.237500X-0.250000X-0.237500X0.250000X-0.237500X0*%
%ADD23RoundRect,0.237500X-0.250000X-0.237500X0.250000X-0.237500X0.250000X0.237500X-0.250000X0.237500X0*%
%ADD24R,0.500000X0.375000*%
%ADD25R,0.650000X0.300000*%
%ADD26R,0.300000X1.400000*%
%ADD27RoundRect,0.150000X-0.150000X0.587500X-0.150000X-0.587500X0.150000X-0.587500X0.150000X0.587500X0*%
%ADD28C,0.650000*%
%ADD29R,1.240000X0.600000*%
%ADD30R,1.240000X0.300000*%
%ADD31O,1.800000X1.000000*%
%ADD32O,2.100000X1.000000*%
%ADD33RoundRect,0.237500X-0.287500X-0.237500X0.287500X-0.237500X0.287500X0.237500X-0.287500X0.237500X0*%
%ADD34RoundRect,0.160000X-0.222500X-0.160000X0.222500X-0.160000X0.222500X0.160000X-0.222500X0.160000X0*%
%ADD35RoundRect,0.237500X-0.237500X0.300000X-0.237500X-0.300000X0.237500X-0.300000X0.237500X0.300000X0*%
%ADD36RoundRect,0.237500X0.237500X-0.300000X0.237500X0.300000X-0.237500X0.300000X-0.237500X-0.300000X0*%
%ADD37RoundRect,0.250000X-0.350000X-0.450000X0.350000X-0.450000X0.350000X0.450000X-0.350000X0.450000X0*%
%ADD38RoundRect,0.150000X0.150000X-0.875000X0.150000X0.875000X-0.150000X0.875000X-0.150000X-0.875000X0*%
%ADD39FreePoly0,270.000000*%
%ADD40FreePoly1,270.000000*%
%ADD41RoundRect,0.062500X-0.062500X0.375000X-0.062500X-0.375000X0.062500X-0.375000X0.062500X0.375000X0*%
%ADD42RoundRect,0.062500X-0.375000X0.062500X-0.375000X-0.062500X0.375000X-0.062500X0.375000X0.062500X0*%
%ADD43R,5.600000X5.600000*%
%ADD44RoundRect,0.200000X-0.800000X0.200000X-0.800000X-0.200000X0.800000X-0.200000X0.800000X0.200000X0*%
%ADD45RoundRect,0.250000X0.250000X-1.250000X0.250000X1.250000X-0.250000X1.250000X-0.250000X-1.250000X0*%
%ADD46RoundRect,0.500000X0.500000X-4.500000X0.500000X4.500000X-0.500000X4.500000X-0.500000X-4.500000X0*%
%ADD47R,0.350000X0.500000*%
%ADD48RoundRect,0.150000X-0.825000X-0.150000X0.825000X-0.150000X0.825000X0.150000X-0.825000X0.150000X0*%
G04 APERTURE END LIST*
D10*
%TO.C,JP10*%
X-156850000Y-63325000D03*
X-156850000Y-65150000D03*
%TD*%
D11*
%TO.C,U2*%
X-145550000Y-63200000D03*
X-145550000Y-64150000D03*
X-145550000Y-65100000D03*
X-148250000Y-65100000D03*
X-148250000Y-64150000D03*
X-148250000Y-63200000D03*
%TD*%
D12*
%TO.C,C10*%
X-148500000Y-66700000D03*
X-146775000Y-66700000D03*
%TD*%
D13*
%TO.C,C15*%
X-141800000Y-49487500D03*
X-141800000Y-55712500D03*
%TD*%
D10*
%TO.C,JP9*%
X-135875000Y-81500000D03*
X-135875000Y-79675000D03*
%TD*%
D14*
%TO.C,J3*%
X-162350000Y-61730000D03*
X-165650000Y-64270000D03*
%TD*%
%TO.C,J2*%
X-162350000Y-55130000D03*
X-165650000Y-57670000D03*
%TD*%
D15*
%TO.C,J1*%
X-156510000Y-80060000D03*
X-153200000Y-82600000D03*
X-156510000Y-85140000D03*
X-153200000Y-87680000D03*
%TD*%
%TO.C,JP13*%
X-165600000Y-51200000D03*
X-162290000Y-48660000D03*
X-165600000Y-46120000D03*
%TD*%
D16*
%TO.C,J6*%
X-129120000Y-47800000D03*
X-131660000Y-44490000D03*
X-134200000Y-47800000D03*
X-136740000Y-44490000D03*
%TD*%
D17*
%TO.C,D2*%
X-155200000Y-90800000D03*
X-155200000Y-94300000D03*
%TD*%
D18*
%TO.C,BT2*%
X-141250000Y-107310000D03*
X-141250000Y-83500000D03*
D19*
X-141250000Y-95405000D03*
%TD*%
D20*
%TO.C,JP8*%
X-139650000Y-72600000D03*
X-139650000Y-70775000D03*
%TD*%
D21*
%TO.C,TP2*%
X-136055000Y-66860000D03*
%TD*%
%TO.C,TP1*%
X-136116000Y-70184000D03*
%TD*%
D20*
%TO.C,JP1*%
X-150400000Y-64125000D03*
X-150400000Y-62300000D03*
%TD*%
D22*
%TO.C,JP7*%
X-167565000Y-97325000D03*
X-165740000Y-97325000D03*
%TD*%
D23*
%TO.C,JP3*%
X-142425000Y-47000000D03*
X-140600000Y-47000000D03*
%TD*%
D10*
%TO.C,JP2*%
X-133200000Y-54975000D03*
X-133200000Y-56800000D03*
%TD*%
D22*
%TO.C,R16*%
X-130050000Y-84250000D03*
X-128225000Y-84250000D03*
%TD*%
%TO.C,R15*%
X-130025000Y-82250000D03*
X-128200000Y-82250000D03*
%TD*%
D10*
%TO.C,R14*%
X-141239000Y-72610000D03*
X-141239000Y-70785000D03*
%TD*%
%TO.C,R13*%
X-141221000Y-74375000D03*
X-141221000Y-76200000D03*
%TD*%
D20*
%TO.C,R11*%
X-153200000Y-90800000D03*
X-153200000Y-92625000D03*
%TD*%
D10*
%TO.C,R9*%
X-166700000Y-92950000D03*
X-166700000Y-94775000D03*
%TD*%
%TO.C,R7*%
X-166000000Y-82625000D03*
X-166000000Y-80800000D03*
%TD*%
D22*
%TO.C,R6*%
X-167650000Y-71500000D03*
X-169475000Y-71500000D03*
%TD*%
D23*
%TO.C,R5*%
X-160425000Y-72500000D03*
X-158600000Y-72500000D03*
%TD*%
%TO.C,R4*%
X-160425000Y-74100000D03*
X-158600000Y-74100000D03*
%TD*%
D10*
%TO.C,R2*%
X-166675000Y-91175000D03*
X-166675000Y-89350000D03*
%TD*%
%TO.C,R1*%
X-166675000Y-85750000D03*
X-166675000Y-87575000D03*
%TD*%
D24*
%TO.C,U8*%
X-132066000Y-70846500D03*
D25*
X-131991000Y-71384000D03*
D24*
X-132066000Y-71921500D03*
X-133766000Y-71921500D03*
D25*
X-133841000Y-71384000D03*
D24*
X-133766000Y-70846500D03*
%TD*%
D26*
%TO.C,U7*%
X-133916000Y-74384000D03*
X-133416000Y-74384000D03*
X-132916000Y-74384000D03*
X-132416000Y-74384000D03*
X-131916000Y-74384000D03*
X-131916000Y-78784000D03*
X-132416000Y-78784000D03*
X-132916000Y-78784000D03*
X-133416000Y-78784000D03*
X-133916000Y-78784000D03*
%TD*%
D27*
%TO.C,Q3*%
X-167250000Y-67550000D03*
X-165350000Y-67550000D03*
X-166300000Y-69425000D03*
%TD*%
D28*
%TO.C,P2*%
X-127205000Y-72110000D03*
X-127205000Y-77890000D03*
D29*
X-128325000Y-71800000D03*
X-128325000Y-72600000D03*
D30*
X-128325000Y-73750000D03*
X-128325000Y-74750000D03*
X-128325000Y-75250000D03*
X-128325000Y-76250000D03*
D29*
X-128325000Y-77400000D03*
X-128325000Y-78200000D03*
X-128325000Y-78200000D03*
X-128325000Y-77400000D03*
D30*
X-128325000Y-76750000D03*
X-128325000Y-75750000D03*
X-128325000Y-74250000D03*
X-128325000Y-73250000D03*
D29*
X-128325000Y-72600000D03*
X-128325000Y-71800000D03*
D31*
X-123525000Y-70680000D03*
D32*
X-127725000Y-70680000D03*
X-127725000Y-79320000D03*
D31*
X-123525000Y-79320000D03*
%TD*%
D33*
%TO.C,F1*%
X-131600000Y-68400000D03*
X-133350000Y-68400000D03*
%TD*%
D34*
%TO.C,D5*%
X-123105000Y-84250000D03*
X-124250000Y-84250000D03*
%TD*%
%TO.C,D4*%
X-123105000Y-82125000D03*
X-124250000Y-82125000D03*
%TD*%
D35*
%TO.C,C19*%
X-135916000Y-72725000D03*
X-135916000Y-74450000D03*
%TD*%
D36*
%TO.C,C18*%
X-135916000Y-77909000D03*
X-135916000Y-76184000D03*
%TD*%
D12*
%TO.C,C6*%
X-161475000Y-75750000D03*
X-159750000Y-75750000D03*
%TD*%
D37*
%TO.C,C14*%
X-161750000Y-77500000D03*
X-159750000Y-77500000D03*
%TD*%
D12*
%TO.C,C1*%
X-128237000Y-55424000D03*
X-129962000Y-55424000D03*
%TD*%
D27*
%TO.C,U4*%
X-163700000Y-67525000D03*
X-161800000Y-67525000D03*
X-162750000Y-69400000D03*
%TD*%
D38*
%TO.C,U5*%
X-153330000Y-97400000D03*
X-154600000Y-97400000D03*
X-155870000Y-97400000D03*
X-157140000Y-97400000D03*
X-158410000Y-97400000D03*
X-159680000Y-97400000D03*
X-160950000Y-97400000D03*
X-162220000Y-97400000D03*
X-162220000Y-106700000D03*
X-160950000Y-106700000D03*
X-159680000Y-106700000D03*
X-158410000Y-106700000D03*
X-157140000Y-106700000D03*
X-155870000Y-106700000D03*
X-154600000Y-106700000D03*
X-153330000Y-106700000D03*
%TD*%
D39*
%TO.C,JP6*%
X-169200000Y-85950000D03*
D40*
X-169200000Y-87400000D03*
%TD*%
D35*
%TO.C,C4*%
X-147000000Y-78000000D03*
X-147000000Y-79725000D03*
%TD*%
D41*
%TO.C,U1*%
X-155650000Y-69462500D03*
X-155150000Y-69462500D03*
X-154650000Y-69462500D03*
X-154150000Y-69462500D03*
X-153650000Y-69462500D03*
X-153150000Y-69462500D03*
X-152650000Y-69462500D03*
X-152150000Y-69462500D03*
X-151650000Y-69462500D03*
X-151150000Y-69462500D03*
X-150650000Y-69462500D03*
X-150150000Y-69462500D03*
D42*
X-149462500Y-70150000D03*
X-149462500Y-70650000D03*
X-149462500Y-71150000D03*
X-149462500Y-71650000D03*
X-149462500Y-72150000D03*
X-149462500Y-72650000D03*
X-149462500Y-73150000D03*
X-149462500Y-73650000D03*
X-149462500Y-74150000D03*
X-149462500Y-74650000D03*
X-149462500Y-75150000D03*
X-149462500Y-75650000D03*
D41*
X-150150000Y-76337500D03*
X-150650000Y-76337500D03*
X-151150000Y-76337500D03*
X-151650000Y-76337500D03*
X-152150000Y-76337500D03*
X-152650000Y-76337500D03*
X-153150000Y-76337500D03*
X-153650000Y-76337500D03*
X-154150000Y-76337500D03*
X-154650000Y-76337500D03*
X-155150000Y-76337500D03*
X-155650000Y-76337500D03*
D42*
X-156337500Y-75650000D03*
X-156337500Y-75150000D03*
X-156337500Y-74650000D03*
X-156337500Y-74150000D03*
X-156337500Y-73650000D03*
X-156337500Y-73150000D03*
X-156337500Y-72650000D03*
X-156337500Y-72150000D03*
X-156337500Y-71650000D03*
X-156337500Y-71150000D03*
X-156337500Y-70650000D03*
X-156337500Y-70150000D03*
D43*
X-152900000Y-72900000D03*
%TD*%
D39*
%TO.C,JP4*%
X-169200000Y-93150000D03*
D40*
X-169200000Y-94600000D03*
%TD*%
D35*
%TO.C,C12*%
X-165800000Y-99200000D03*
X-165800000Y-100925000D03*
%TD*%
D12*
%TO.C,C2*%
X-130000000Y-53750000D03*
X-128275000Y-53750000D03*
%TD*%
D35*
%TO.C,C9*%
X-160250000Y-67000000D03*
X-160250000Y-68725000D03*
%TD*%
%TO.C,C13*%
X-152454000Y-65977000D03*
X-152454000Y-67702000D03*
%TD*%
%TO.C,C5*%
X-167400000Y-99200000D03*
X-167400000Y-100925000D03*
%TD*%
D44*
%TO.C,SW2*%
X-168680000Y-83926000D03*
X-168680000Y-79726000D03*
%TD*%
D35*
%TO.C,C7*%
X-148750000Y-78000000D03*
X-148750000Y-79725000D03*
%TD*%
D40*
%TO.C,JP5*%
X-169200000Y-91000000D03*
D39*
X-169200000Y-89550000D03*
%TD*%
D35*
%TO.C,C16*%
X-154200000Y-66000000D03*
X-154200000Y-67725000D03*
%TD*%
D44*
%TO.C,SW1*%
X-168675000Y-73000000D03*
X-168675000Y-77200000D03*
%TD*%
D35*
%TO.C,C3*%
X-166025000Y-73825000D03*
X-166025000Y-75550000D03*
%TD*%
D45*
%TO.C,J4*%
X-148428000Y-57600000D03*
X-149698000Y-57600000D03*
X-150968000Y-57600000D03*
X-152238000Y-57600000D03*
X-153508000Y-57600000D03*
X-154778000Y-57600000D03*
X-156048000Y-57600000D03*
X-157318000Y-57600000D03*
D46*
X-144872000Y-40963000D03*
X-160874000Y-40836000D03*
%TD*%
D35*
%TO.C,C8*%
X-158600000Y-67000000D03*
X-158600000Y-68725000D03*
%TD*%
D47*
%TO.C,U3*%
X-122800000Y-53750000D03*
X-123450000Y-53750000D03*
X-124100000Y-53750000D03*
X-124750000Y-53750000D03*
X-124750000Y-55800000D03*
X-124100000Y-55800000D03*
X-123450000Y-55800000D03*
X-122800000Y-55800000D03*
%TD*%
D48*
%TO.C,U6*%
X-162875000Y-94705000D03*
X-162875000Y-93435000D03*
X-162875000Y-92165000D03*
X-162875000Y-90895000D03*
X-157925000Y-90895000D03*
X-157925000Y-92165000D03*
X-157925000Y-93435000D03*
X-157925000Y-94705000D03*
%TD*%
M02*
